<svg width="389" height="84" viewBox="0 0 389 84" fill="none" xmlns="http://www.w3.org/2000/svg">
<g clip-path="url(#clip0_713_2732)">
<path fill-rule="evenodd" clip-rule="evenodd" d="M352.477 25.9487C356.124 25.9487 359.076 28.9009 359.076 32.5478C359.076 36.2815 356.124 39.2337 352.477 39.2337C348.744 39.2337 345.791 36.2815 345.791 32.5478C345.791 28.8141 348.744 25.9487 352.477 25.9487ZM277.108 25.775C280.842 25.775 283.794 28.8141 283.794 32.5478C283.794 36.2815 280.842 39.3206 277.108 39.3206C273.288 39.3206 270.336 36.2815 270.336 32.5478C270.336 28.7273 273.288 25.775 277.108 25.775ZM134.446 25.6014C138.18 25.6014 141.219 28.6404 141.219 32.461C141.219 36.3683 138.18 39.4074 134.446 39.4074C130.626 39.4074 127.673 36.3683 127.673 32.461C127.76 28.6404 130.712 25.6014 134.446 25.6014ZM166.834 25.0804C169.612 25.0804 171.436 26.5565 172.478 28.9877H160.929C161.885 26.5565 163.968 25.0804 166.834 25.0804ZM379.221 20.2179C374.706 20.2179 370.538 22.6491 370.538 27.4248C370.538 31.5927 373.664 33.1556 377.311 34.5449C380.089 35.5 382.086 35.9342 382.086 37.584C382.086 38.8864 380.958 39.8415 379.047 39.8415C377.224 39.8415 375.053 38.7996 373.403 37.1498L370.017 41.3177C371.927 43.2279 375.227 44.7909 379.308 44.7909C384.431 44.7909 388.164 42.186 388.164 37.4103C388.164 32.6346 384.604 31.0717 381.044 29.9429C378.266 29.0746 376.616 28.5536 376.616 26.9907C376.616 25.775 377.571 24.9936 379.134 24.9936C380.697 24.9936 382.52 25.9487 383.91 27.2511L387.47 23.6043C385.56 21.6072 382.694 20.2179 379.221 20.2179ZM352.477 20.2179C345.357 20.2179 339.974 25.6882 339.974 32.5478C339.974 39.4074 345.357 44.8777 352.477 44.8777C359.51 44.8777 364.981 39.4074 364.981 32.5478C364.981 25.6882 359.51 20.2179 352.477 20.2179ZM328.946 20.2179C321.826 20.2179 316.443 25.6882 316.443 32.5478C316.443 39.4074 321.826 44.8777 328.946 44.8777C330.77 44.8777 332.506 44.5304 333.982 43.8357V37.063C332.767 38.4523 331.03 39.3206 328.946 39.3206C325.126 39.3206 322.26 36.3683 322.26 32.6346C322.26 28.9009 325.039 25.8619 328.946 25.8619C331.03 25.8619 332.767 26.7302 333.982 28.1194V21.2598C332.506 20.652 330.77 20.2179 328.946 20.2179ZM310.972 20.2179C307.933 20.2179 306.023 21.6072 304.634 24.0384V20.7389H298.556V44.3567H304.634V33.9371C304.634 27.0775 308.281 25.6014 311.841 26.296V20.3047C311.493 20.2179 311.233 20.2179 310.972 20.2179ZM198.701 20.2179C195.662 20.2179 193.751 21.6072 192.362 24.0384V20.7389H186.284V44.3567H192.362V33.9371C192.362 27.0775 196.009 25.6014 199.569 26.296V20.3047C199.222 20.2179 198.961 20.2179 198.701 20.2179ZM166.834 20.2179C159.627 20.2179 154.33 25.6882 154.33 32.5478C154.33 39.4074 159.453 44.8777 167.008 44.8777C171.957 44.8777 175.951 42.4464 177.861 38.5391L172.999 36.542C171.696 38.7128 169.439 39.9284 166.921 39.9284C163.447 39.9284 160.756 37.4971 160.235 33.6766H178.816L178.903 32.3741C178.816 25.0804 173.607 20.2179 166.834 20.2179ZM275.893 20.131C269.554 20.131 264.171 25.6014 264.171 32.461C264.171 39.3206 269.467 44.7909 275.893 44.7909C279.453 44.7909 282.058 43.4884 283.881 41.3177L284.055 44.3567H289.699V20.7389H283.621V23.4306C281.884 21.3467 279.279 20.131 275.893 20.131ZM140.958 8.23529V23.3438C139.135 21.173 136.356 20.131 133.404 20.131C126.805 20.131 121.595 25.6014 121.595 32.461C121.595 39.3206 126.805 44.7909 133.404 44.7909C136.704 44.7909 139.482 43.4884 141.219 41.3177L141.393 44.3567H147.037V8.23529H140.958ZM92.7676 8.23529V44.3567H115.257V38.2786H98.8457V29.3351H113.346V23.2569H98.8457V14.3134H115.257V8.23529H92.7676ZM222.405 7.28015V44.3567H228.483V25.8619L239.511 41.2308L250.625 25.8619V44.3567H256.703V7.28015L239.511 31.0717L222.405 7.28015Z" fill="#306D1D"/>
<path d="M92.6035 68.8164V56.3993H100.558V58.2849H94.8529V61.656H100.013V63.5416H94.8529V68.8164H92.6035Z" fill="#306D1D"/>
<path d="M102.511 68.8164V59.5036H104.705V68.8164H102.511ZM103.614 58.1818C103.266 58.1818 102.967 58.0666 102.717 57.8363C102.466 57.6018 102.341 57.3209 102.341 56.9935C102.341 56.662 102.466 56.3811 102.717 56.1507C102.967 55.9163 103.266 55.7991 103.614 55.7991C103.966 55.7991 104.265 55.9163 104.511 56.1507C104.762 56.3811 104.887 56.662 104.887 56.9935C104.887 57.3209 104.762 57.6018 104.511 57.8363C104.265 58.0666 103.966 58.1818 103.614 58.1818Z" fill="#306D1D"/>
<path d="M114.323 61.9652L112.322 62.1834C112.265 61.9813 112.166 61.7914 112.025 61.6135C111.887 61.4357 111.702 61.2922 111.467 61.183C111.233 61.0739 110.946 61.0193 110.606 61.0193C110.149 61.0193 109.765 61.1184 109.454 61.3164C109.147 61.5145 108.995 61.7712 108.999 62.0864C108.995 62.3573 109.094 62.5775 109.297 62.7473C109.503 62.9171 109.842 63.0565 110.315 63.1657L111.904 63.5052C112.785 63.6952 113.44 63.9963 113.868 64.4086C114.301 64.8209 114.519 65.3605 114.523 66.0274C114.519 66.6135 114.347 67.1309 114.008 67.5795C113.672 68.0242 113.205 68.3718 112.607 68.6224C112.009 68.873 111.322 68.9983 110.546 68.9983C109.406 68.9983 108.488 68.7598 107.793 68.2829C107.098 67.8019 106.683 67.1329 106.55 66.276L108.69 66.0699C108.787 66.4902 108.993 66.8075 109.309 67.0217C109.624 67.236 110.034 67.3431 110.539 67.3431C111.061 67.3431 111.479 67.236 111.795 67.0217C112.114 66.8075 112.274 66.5428 112.274 66.2275C112.274 65.9607 112.17 65.7404 111.964 65.5666C111.762 65.3928 111.447 65.2594 111.018 65.1665L109.43 64.833C108.537 64.6471 107.876 64.3338 107.447 63.8932C107.019 63.4486 106.807 62.8868 106.811 62.2077C106.807 61.6337 106.962 61.1366 107.278 60.7162C107.597 60.2918 108.039 59.9644 108.605 59.734C109.175 59.4995 109.832 59.3823 110.576 59.3823C111.667 59.3823 112.526 59.6147 113.153 60.0796C113.783 60.5444 114.173 61.1729 114.323 61.9652Z" fill="#306D1D"/>
<path d="M116.333 68.8164V59.5036H118.528V68.8164H116.333ZM117.436 58.1818C117.089 58.1818 116.789 58.0666 116.539 57.8363C116.288 57.6018 116.163 57.3209 116.163 56.9935C116.163 56.662 116.288 56.3811 116.539 56.1507C116.789 55.9163 117.089 55.7991 117.436 55.7991C117.788 55.7991 118.087 55.9163 118.334 56.1507C118.584 56.3811 118.709 56.662 118.709 56.9935C118.709 57.3209 118.584 57.6018 118.334 57.8363C118.087 58.0666 117.788 58.1818 117.436 58.1818Z" fill="#306D1D"/>
<path d="M124.847 68.9983C123.937 68.9983 123.149 68.7982 122.482 68.3981C121.815 67.9979 121.298 67.4381 120.93 66.7186C120.566 65.9991 120.384 65.1584 120.384 64.1964C120.384 63.2344 120.566 62.3916 120.93 61.6681C121.298 60.9446 121.815 60.3827 122.482 59.9826C123.149 59.5824 123.937 59.3823 124.847 59.3823C125.756 59.3823 126.544 59.5824 127.211 59.9826C127.878 60.3827 128.394 60.9446 128.757 61.6681C129.125 62.3916 129.309 63.2344 129.309 64.1964C129.309 65.1584 129.125 65.9991 128.757 66.7186C128.394 67.4381 127.878 67.9979 127.211 68.3981C126.544 68.7982 125.756 68.9983 124.847 68.9983ZM124.859 67.24C125.352 67.24 125.764 67.1046 126.096 66.8338C126.427 66.5589 126.674 66.1911 126.835 65.7303C127.001 65.2695 127.084 64.7562 127.084 64.1903C127.084 63.6204 127.001 63.105 126.835 62.6442C126.674 62.1794 126.427 61.8096 126.096 61.5347C125.764 61.2598 125.352 61.1224 124.859 61.1224C124.354 61.1224 123.933 61.2598 123.598 61.5347C123.266 61.8096 123.018 62.1794 122.852 62.6442C122.69 63.105 122.609 63.6204 122.609 64.1903C122.609 64.7562 122.69 65.2695 122.852 65.7303C123.018 66.1911 123.266 66.5589 123.598 66.8338C123.933 67.1046 124.354 67.24 124.859 67.24Z" fill="#306D1D"/>
<path d="M135.822 59.5036V61.2012H130.469V59.5036H135.822ZM131.79 57.2724H133.985V66.0153C133.985 66.3104 134.03 66.5367 134.119 66.6943C134.212 66.8479 134.333 66.953 134.482 67.0096C134.632 67.0662 134.798 67.0945 134.98 67.0945C135.117 67.0945 135.242 67.0844 135.355 67.0642C135.473 67.044 135.562 67.0258 135.622 67.0096L135.992 68.7255C135.875 68.7659 135.707 68.8103 135.489 68.8588C135.275 68.9073 135.012 68.9356 134.701 68.9437C134.151 68.9599 133.656 68.877 133.215 68.6951C132.775 68.5092 132.425 68.2222 132.166 67.8342C131.912 67.4462 131.786 66.9611 131.79 66.3791V57.2724Z" fill="#306D1D"/>
<path d="M141.681 68.9983C140.747 68.9983 139.941 68.8043 139.262 68.4162C138.587 68.0242 138.067 67.4704 137.703 66.755C137.34 66.0355 137.158 65.1887 137.158 64.2146C137.158 63.2566 137.34 62.4159 137.703 61.6923C138.071 60.9648 138.585 60.3989 139.243 59.9947C139.902 59.5864 140.676 59.3823 141.566 59.3823C142.14 59.3823 142.681 59.4753 143.19 59.6612C143.704 59.8431 144.156 60.1261 144.549 60.51C144.945 60.894 145.256 61.3831 145.482 61.9773C145.709 62.5674 145.822 63.2707 145.822 64.0872V64.7602H138.188V63.2809H143.718C143.714 62.8605 143.623 62.4866 143.445 62.1592C143.267 61.8277 143.019 61.567 142.699 61.3771C142.384 61.1871 142.016 61.0921 141.596 61.0921C141.147 61.0921 140.753 61.2012 140.414 61.4195C140.074 61.6337 139.809 61.9167 139.619 62.2683C139.433 62.6159 139.338 62.9979 139.334 63.4142V64.7057C139.334 65.2473 139.433 65.7121 139.631 66.1002C139.829 66.4842 140.106 66.7792 140.462 66.9854C140.818 67.1875 141.234 67.2885 141.711 67.2885C142.03 67.2885 142.319 67.2441 142.578 67.1551C142.837 67.0622 143.061 66.9268 143.251 66.7489C143.441 66.5711 143.585 66.3508 143.682 66.088L145.731 66.3184C145.601 66.8601 145.355 67.333 144.991 67.7372C144.631 68.1373 144.171 68.4486 143.609 68.6709C143.047 68.8892 142.404 68.9983 141.681 68.9983Z" fill="#306D1D"/>
<path d="M147.679 68.8164V59.5036H149.807V61.0557H149.904C150.073 60.5181 150.365 60.1038 150.777 59.8128C151.193 59.5177 151.668 59.3702 152.202 59.3702C152.323 59.3702 152.458 59.3763 152.608 59.3884C152.761 59.3965 152.889 59.4106 152.99 59.4308V61.4498C152.897 61.4175 152.749 61.3892 152.547 61.3649C152.349 61.3366 152.157 61.3225 151.971 61.3225C151.571 61.3225 151.211 61.4094 150.892 61.5832C150.577 61.753 150.328 61.9894 150.146 62.2926C149.964 62.5957 149.873 62.9454 149.873 63.3415V68.8164H147.679Z" fill="#306D1D"/>
<path d="M156.961 69.0044C156.371 69.0044 155.839 68.8993 155.367 68.6891C154.898 68.4749 154.526 68.1596 154.251 67.7432C153.98 67.3269 153.845 66.8136 153.845 66.2032C153.845 65.6778 153.942 65.2433 154.136 64.8997C154.33 64.5561 154.594 64.2813 154.93 64.0751C155.265 63.869 155.643 63.7134 156.064 63.6083C156.488 63.4991 156.927 63.4203 157.379 63.3718C157.925 63.3152 158.368 63.2647 158.707 63.2202C159.047 63.1717 159.293 63.099 159.447 63.002C159.605 62.9009 159.683 62.7453 159.683 62.5351V62.4987C159.683 62.042 159.548 61.6883 159.277 61.4377C159.006 61.1871 158.616 61.0618 158.107 61.0618C157.569 61.0618 157.143 61.179 156.828 61.4134C156.516 61.6479 156.306 61.9248 156.197 62.2441L154.148 61.9531C154.31 61.3872 154.576 60.9143 154.948 60.5343C155.32 60.1503 155.775 59.8633 156.312 59.6734C156.85 59.4793 157.444 59.3823 158.095 59.3823C158.544 59.3823 158.99 59.4349 159.435 59.54C159.879 59.6451 160.286 59.8189 160.653 60.0614C161.021 60.2999 161.316 60.6252 161.539 61.0375C161.765 61.4498 161.878 61.9652 161.878 62.5836V68.8164H159.768V67.5371H159.696C159.562 67.7958 159.374 68.0383 159.132 68.2647C158.893 68.487 158.592 68.6668 158.228 68.8043C157.869 68.9377 157.446 69.0044 156.961 69.0044ZM157.531 67.3916C157.972 67.3916 158.354 67.3047 158.677 67.1309C159 66.953 159.249 66.7186 159.423 66.4276C159.601 66.1365 159.689 65.8192 159.689 65.4757V64.3783C159.621 64.4349 159.504 64.4874 159.338 64.5359C159.176 64.5844 158.994 64.6268 158.792 64.6632C158.59 64.6996 158.39 64.7319 158.192 64.7602C157.994 64.7885 157.822 64.8128 157.677 64.833C157.349 64.8775 157.056 64.9502 156.797 65.0513C156.539 65.1523 156.335 65.2938 156.185 65.4757C156.035 65.6535 155.961 65.8839 155.961 66.1669C155.961 66.5711 156.108 66.8762 156.403 67.0824C156.698 67.2885 157.074 67.3916 157.531 67.3916Z" fill="#306D1D"/>
<path d="M164.085 72.3087V59.5036H166.244V61.0436H166.371C166.484 60.8172 166.644 60.5767 166.85 60.3221C167.056 60.0634 167.335 59.8431 167.687 59.6612C168.038 59.4753 168.487 59.3823 169.033 59.3823C169.752 59.3823 170.401 59.5662 170.979 59.9341C171.561 60.2978 172.022 60.8375 172.361 61.5529C172.705 62.2643 172.877 63.1374 172.877 64.1721C172.877 65.1948 172.709 66.0638 172.373 66.7792C172.038 67.4947 171.581 68.0403 171.003 68.4162C170.425 68.7922 169.77 68.9801 169.039 68.9801C168.505 68.9801 168.063 68.8912 167.711 68.7133C167.359 68.5355 167.076 68.3213 166.862 68.0707C166.652 67.816 166.488 67.5755 166.371 67.3491H166.28V72.3087H164.085ZM166.238 64.16C166.238 64.7623 166.322 65.2897 166.492 65.7424C166.666 66.1952 166.915 66.5488 167.238 66.8035C167.565 67.0541 167.961 67.1794 168.426 67.1794C168.911 67.1794 169.318 67.05 169.645 66.7914C169.972 66.5286 170.219 66.1709 170.385 65.7182C170.554 65.2614 170.639 64.742 170.639 64.16C170.639 63.582 170.556 63.0686 170.391 62.62C170.225 62.1713 169.978 61.8197 169.651 61.565C169.324 61.3104 168.915 61.183 168.426 61.183C167.957 61.183 167.559 61.3063 167.232 61.5529C166.904 61.7995 166.656 62.145 166.486 62.5897C166.32 63.0343 166.238 63.5577 166.238 64.16Z" fill="#306D1D"/>
<path d="M174.756 68.8164V59.5036H176.951V68.8164H174.756ZM175.86 58.1818C175.512 58.1818 175.213 58.0666 174.962 57.8363C174.712 57.6018 174.586 57.3209 174.586 56.9935C174.586 56.662 174.712 56.3811 174.962 56.1507C175.213 55.9163 175.512 55.7991 175.86 55.7991C176.211 55.7991 176.51 55.9163 176.757 56.1507C177.007 56.3811 177.133 56.662 177.133 56.9935C177.133 57.3209 177.007 57.6018 176.757 57.8363C176.51 58.0666 176.211 58.1818 175.86 58.1818Z" fill="#306D1D"/>
<path d="M181.888 69.0044C181.298 69.0044 180.766 68.8993 180.293 68.6891C179.824 68.4749 179.452 68.1596 179.178 67.7432C178.907 67.3269 178.771 66.8136 178.771 66.2032C178.771 65.6778 178.868 65.2433 179.062 64.8997C179.256 64.5561 179.521 64.2813 179.857 64.0751C180.192 63.869 180.57 63.7134 180.99 63.6083C181.415 63.4991 181.853 63.4203 182.306 63.3718C182.852 63.3152 183.294 63.2647 183.634 63.2202C183.973 63.1717 184.22 63.099 184.374 63.002C184.531 62.9009 184.61 62.7453 184.61 62.5351V62.4987C184.61 62.042 184.475 61.6883 184.204 61.4377C183.933 61.1871 183.543 61.0618 183.034 61.0618C182.496 61.0618 182.07 61.179 181.754 61.4134C181.443 61.6479 181.233 61.9248 181.124 62.2441L179.074 61.9531C179.236 61.3872 179.503 60.9143 179.875 60.5343C180.247 60.1503 180.701 59.8633 181.239 59.6734C181.777 59.4793 182.371 59.3823 183.022 59.3823C183.47 59.3823 183.917 59.4349 184.361 59.54C184.806 59.6451 185.212 59.8189 185.58 60.0614C185.948 60.2999 186.243 60.6252 186.465 61.0375C186.692 61.4498 186.805 61.9652 186.805 62.5836V68.8164H184.695V67.5371H184.622C184.489 67.7958 184.301 68.0383 184.058 68.2647C183.82 68.487 183.519 68.6668 183.155 68.8043C182.795 68.9377 182.373 69.0044 181.888 69.0044ZM182.458 67.3916C182.898 67.3916 183.28 67.3047 183.604 67.1309C183.927 66.953 184.176 66.7186 184.349 66.4276C184.527 66.1365 184.616 65.8192 184.616 65.4757V64.3783C184.547 64.4349 184.43 64.4874 184.264 64.5359C184.103 64.5844 183.921 64.6268 183.719 64.6632C183.517 64.6996 183.317 64.7319 183.119 64.7602C182.92 64.7885 182.749 64.8128 182.603 64.833C182.276 64.8775 181.983 64.9502 181.724 65.0513C181.465 65.1523 181.261 65.2938 181.112 65.4757C180.962 65.6535 180.887 65.8839 180.887 66.1669C180.887 66.5711 181.035 66.8762 181.33 67.0824C181.625 67.2885 182.001 67.3916 182.458 67.3916Z" fill="#306D1D"/>
<path d="M194.938 68.8164H192.537L196.909 56.3993H199.686L204.063 68.8164H201.662L198.346 58.9458H198.249L194.938 68.8164ZM195.017 63.9478H201.565V65.7546H195.017V63.9478Z" fill="#306D1D"/>
<path d="M212.753 59.5036L209.437 68.8164H207.011L203.695 59.5036H206.035L208.176 66.4215H208.273L210.419 59.5036H212.753Z" fill="#306D1D"/>
<path d="M216.685 69.0044C216.095 69.0044 215.563 68.8993 215.09 68.6891C214.622 68.4749 214.25 68.1596 213.975 67.7432C213.704 67.3269 213.569 66.8136 213.569 66.2032C213.569 65.6778 213.666 65.2433 213.86 64.8997C214.054 64.5561 214.318 64.2813 214.654 64.0751C214.989 63.869 215.367 63.7134 215.788 63.6083C216.212 63.4991 216.651 63.4203 217.103 63.3718C217.649 63.3152 218.092 63.2647 218.431 63.2202C218.771 63.1717 219.017 63.099 219.171 63.002C219.328 62.9009 219.407 62.7453 219.407 62.5351V62.4987C219.407 62.042 219.272 61.6883 219.001 61.4377C218.73 61.1871 218.34 61.0618 217.831 61.0618C217.293 61.0618 216.867 61.179 216.552 61.4134C216.24 61.6479 216.03 61.9248 215.921 62.2441L213.872 61.9531C214.033 61.3872 214.3 60.9143 214.672 60.5343C215.044 60.1503 215.499 59.8633 216.036 59.6734C216.574 59.4793 217.168 59.3823 217.819 59.3823C218.267 59.3823 218.714 59.4349 219.159 59.54C219.603 59.6451 220.01 59.8189 220.377 60.0614C220.745 60.2999 221.04 60.6252 221.263 61.0375C221.489 61.4498 221.602 61.9652 221.602 62.5836V68.8164H219.492V67.5371H219.419C219.286 67.7958 219.098 68.0383 218.856 68.2647C218.617 68.487 218.316 68.6668 217.952 68.8043C217.592 68.9377 217.17 69.0044 216.685 69.0044ZM217.255 67.3916C217.695 67.3916 218.077 67.3047 218.401 67.1309C218.724 66.953 218.973 66.7186 219.147 66.4276C219.324 66.1365 219.413 65.8192 219.413 65.4757V64.3783C219.345 64.4349 219.227 64.4874 219.062 64.5359C218.9 64.5844 218.718 64.6268 218.516 64.6632C218.314 64.6996 218.114 64.7319 217.916 64.7602C217.718 64.7885 217.546 64.8128 217.4 64.833C217.073 64.8775 216.78 64.9502 216.521 65.0513C216.263 65.1523 216.058 65.2938 215.909 65.4757C215.759 65.6535 215.685 65.8839 215.685 66.1669C215.685 66.5711 215.832 66.8762 216.127 67.0824C216.422 67.2885 216.798 67.3916 217.255 67.3916Z" fill="#306D1D"/>
<path d="M226.004 63.3597V68.8164H223.809V59.5036H225.907V61.086H226.016C226.23 60.5646 226.572 60.1503 227.041 59.8431C227.514 59.5359 228.098 59.3823 228.793 59.3823C229.436 59.3823 229.995 59.5198 230.472 59.7946C230.953 60.0695 231.325 60.4676 231.588 60.989C231.855 61.5104 231.986 62.143 231.982 62.8868V68.8164H229.787V63.2263C229.787 62.6038 229.626 62.1168 229.302 61.7651C228.983 61.4134 228.54 61.2376 227.974 61.2376C227.59 61.2376 227.249 61.3225 226.95 61.4923C226.655 61.658 226.422 61.8985 226.252 62.2138C226.087 62.529 226.004 62.911 226.004 63.3597Z" fill="#306D1D"/>
<path d="M238.275 68.9983C237.346 68.9983 236.547 68.7942 235.881 68.3859C235.218 67.9777 234.706 67.4138 234.347 66.6943C233.991 65.9708 233.813 65.1382 233.813 64.1964C233.813 63.2505 233.995 62.4159 234.359 61.6923C234.723 60.9648 235.236 60.3989 235.899 59.9947C236.566 59.5864 237.354 59.3823 238.263 59.3823C239.019 59.3823 239.688 59.5218 240.27 59.8007C240.856 60.0755 241.323 60.4656 241.671 60.9708C242.018 61.4721 242.216 62.0581 242.265 62.7291H240.167C240.082 62.2805 239.88 61.9066 239.561 61.6075C239.246 61.3043 238.823 61.1527 238.294 61.1527C237.845 61.1527 237.451 61.274 237.111 61.5165C236.772 61.755 236.507 62.0986 236.317 62.5472C236.131 62.9959 236.038 63.5335 236.038 64.16C236.038 64.7946 236.131 65.3403 236.317 65.797C236.503 66.2497 236.764 66.5994 237.099 66.8459C237.439 67.0884 237.837 67.2097 238.294 67.2097C238.617 67.2097 238.906 67.1491 239.161 67.0278C239.419 66.9025 239.636 66.7226 239.809 66.4882C239.983 66.2538 240.102 65.9688 240.167 65.6333H242.265C242.212 66.2922 242.018 66.8762 241.683 67.3855C241.347 67.8908 240.891 68.2869 240.313 68.5739C239.735 68.8568 239.056 68.9983 238.275 68.9983ZM237.645 68.7679H238.833L238.736 69.2833C239.116 69.3398 239.438 69.4854 239.7 69.7198C239.967 69.9583 240.1 70.2998 240.1 70.7444C240.104 71.3184 239.848 71.7792 239.33 72.1268C238.813 72.4744 238.075 72.6482 237.117 72.6482L237.093 71.569C237.558 71.569 237.928 71.5064 238.203 71.3811C238.478 71.2598 238.617 71.0658 238.621 70.799C238.629 70.5403 238.532 70.3503 238.33 70.2291C238.132 70.1119 237.817 70.031 237.384 69.9866L237.645 68.7679Z" fill="#306D1D"/>
<path d="M246.747 69.0044C246.157 69.0044 245.625 68.8993 245.152 68.6891C244.684 68.4749 244.312 68.1596 244.037 67.7432C243.766 67.3269 243.631 66.8136 243.631 66.2032C243.631 65.6778 243.728 65.2433 243.922 64.8997C244.116 64.5561 244.38 64.2813 244.716 64.0751C245.051 63.869 245.429 63.7134 245.85 63.6083C246.274 63.4991 246.713 63.4203 247.165 63.3718C247.711 63.3152 248.154 63.2647 248.493 63.2202C248.833 63.1717 249.079 63.099 249.233 63.002C249.391 62.9009 249.469 62.7453 249.469 62.5351V62.4987C249.469 62.042 249.334 61.6883 249.063 61.4377C248.792 61.1871 248.402 61.0618 247.893 61.0618C247.355 61.0618 246.929 61.179 246.614 61.4134C246.302 61.6479 246.092 61.9248 245.983 62.2441L243.934 61.9531C244.095 61.3872 244.362 60.9143 244.734 60.5343C245.106 60.1503 245.561 59.8633 246.098 59.6734C246.636 59.4793 247.23 59.3823 247.881 59.3823C248.329 59.3823 248.776 59.4349 249.221 59.54C249.665 59.6451 250.072 59.8189 250.439 60.0614C250.807 60.2999 251.102 60.6252 251.325 61.0375C251.551 61.4498 251.664 61.9652 251.664 62.5836V68.8164H249.554V67.5371H249.481C249.348 67.7958 249.16 68.0383 248.918 68.2647C248.679 68.487 248.378 68.6668 248.014 68.8043C247.654 68.9377 247.232 69.0044 246.747 69.0044ZM247.317 67.3916C247.758 67.3916 248.14 67.3047 248.463 67.1309C248.786 66.953 249.035 66.7186 249.209 66.4276C249.386 66.1365 249.475 65.8192 249.475 65.4757V64.3783C249.407 64.4349 249.289 64.4874 249.124 64.5359C248.962 64.5844 248.78 64.6268 248.578 64.6632C248.376 64.6996 248.176 64.7319 247.978 64.7602C247.78 64.7885 247.608 64.8128 247.462 64.833C247.135 64.8775 246.842 64.9502 246.583 65.0513C246.325 65.1523 246.121 65.2938 245.971 65.4757C245.821 65.6535 245.747 65.8839 245.747 66.1669C245.747 66.5711 245.894 66.8762 246.189 67.0824C246.484 67.2885 246.86 67.3916 247.317 67.3916Z" fill="#306D1D"/>
<path d="M257.327 68.9801C256.595 68.9801 255.941 68.7922 255.363 68.4162C254.785 68.0403 254.328 67.4947 253.992 66.7792C253.657 66.0638 253.489 65.1948 253.489 64.1721C253.489 63.1374 253.659 62.2643 253.998 61.5529C254.342 60.8375 254.805 60.2978 255.387 59.9341C255.969 59.5662 256.618 59.3823 257.333 59.3823C257.879 59.3823 258.327 59.4753 258.679 59.6612C259.031 59.8431 259.31 60.0634 259.516 60.3221C259.722 60.5767 259.882 60.8172 259.995 61.0436H260.086V56.3993H262.287V68.8164H260.128V67.3491H259.995C259.882 67.5755 259.718 67.816 259.504 68.0707C259.289 68.3213 259.006 68.5355 258.655 68.7133C258.303 68.8912 257.861 68.9801 257.327 68.9801ZM257.939 67.1794C258.404 67.1794 258.8 67.0541 259.128 66.8035C259.455 66.5488 259.704 66.1952 259.873 65.7424C260.043 65.2897 260.128 64.7623 260.128 64.16C260.128 63.5577 260.043 63.0343 259.873 62.5897C259.708 62.145 259.461 61.7995 259.134 61.5529C258.81 61.3063 258.412 61.183 257.939 61.183C257.45 61.183 257.042 61.3104 256.715 61.565C256.387 61.8197 256.141 62.1713 255.975 62.62C255.809 63.0686 255.726 63.582 255.726 64.16C255.726 64.742 255.809 65.2614 255.975 65.7182C256.145 66.1709 256.393 66.5286 256.721 66.7914C257.052 67.05 257.458 67.1794 257.939 67.1794Z" fill="#306D1D"/>
<path d="M267.305 69.0044C266.715 69.0044 266.184 68.8993 265.711 68.6891C265.242 68.4749 264.87 68.1596 264.595 67.7432C264.324 67.3269 264.189 66.8136 264.189 66.2032C264.189 65.6778 264.286 65.2433 264.48 64.8997C264.674 64.5561 264.939 64.2813 265.274 64.0751C265.61 63.869 265.988 63.7134 266.408 63.6083C266.832 63.4991 267.271 63.4203 267.724 63.3718C268.269 63.3152 268.712 63.2647 269.051 63.2202C269.391 63.1717 269.637 63.099 269.791 63.002C269.949 62.9009 270.028 62.7453 270.028 62.5351V62.4987C270.028 62.042 269.892 61.6883 269.621 61.4377C269.351 61.1871 268.96 61.0618 268.451 61.0618C267.914 61.0618 267.487 61.179 267.172 61.4134C266.861 61.6479 266.65 61.9248 266.541 62.2441L264.492 61.9531C264.654 61.3872 264.92 60.9143 265.292 60.5343C265.664 60.1503 266.119 59.8633 266.657 59.6734C267.194 59.4793 267.788 59.3823 268.439 59.3823C268.888 59.3823 269.334 59.4349 269.779 59.54C270.224 59.6451 270.63 59.8189 270.998 60.0614C271.365 60.2999 271.661 60.6252 271.883 61.0375C272.109 61.4498 272.222 61.9652 272.222 62.5836V68.8164H270.112V67.5371H270.04C269.906 67.7958 269.718 68.0383 269.476 68.2647C269.237 68.487 268.936 68.6668 268.572 68.8043C268.213 68.9377 267.79 69.0044 267.305 69.0044ZM267.875 67.3916C268.316 67.3916 268.698 67.3047 269.021 67.1309C269.344 66.953 269.593 66.7186 269.767 66.4276C269.945 66.1365 270.034 65.8192 270.034 65.4757V64.3783C269.965 64.4349 269.848 64.4874 269.682 64.5359C269.52 64.5844 269.338 64.6268 269.136 64.6632C268.934 64.6996 268.734 64.7319 268.536 64.7602C268.338 64.7885 268.166 64.8128 268.021 64.833C267.693 64.8775 267.4 64.9502 267.142 65.0513C266.883 65.1523 266.679 65.2938 266.529 65.4757C266.38 65.6535 266.305 65.8839 266.305 66.1669C266.305 66.5711 266.452 66.8762 266.747 67.0824C267.043 67.2885 267.418 67.3916 267.875 67.3916Z" fill="#306D1D"/>
<path d="M298.697 64.6447H300.734L301.941 66.209L302.802 67.2276L304.869 69.8832H302.687L301.28 68.1007L300.68 67.2518L298.697 64.6447ZM305.166 62.6076C305.166 63.9455 304.916 65.0914 304.415 66.0453C303.918 66.9952 303.238 67.7227 302.377 68.228C301.521 68.7332 300.548 68.9859 299.461 68.9859C298.374 68.9859 297.4 68.7332 296.539 68.228C295.682 67.7187 295.003 66.9891 294.502 66.0392C294.004 65.0853 293.756 63.9414 293.756 62.6076C293.756 61.2696 294.004 60.1258 294.502 59.1759C295.003 58.222 295.682 57.4924 296.539 56.9871C297.4 56.4819 298.374 56.2292 299.461 56.2292C300.548 56.2292 301.521 56.4819 302.377 56.9871C303.238 57.4924 303.918 58.222 304.415 59.1759C304.916 60.1258 305.166 61.2696 305.166 62.6076ZM302.905 62.6076C302.905 61.6658 302.757 60.8715 302.462 60.2248C302.171 59.574 301.767 59.0829 301.25 58.7515C300.732 58.416 300.136 58.2482 299.461 58.2482C298.786 58.2482 298.19 58.416 297.673 58.7515C297.155 59.0829 296.749 59.574 296.454 60.2248C296.163 60.8715 296.017 61.6658 296.017 62.6076C296.017 63.5493 296.163 64.3456 296.454 64.9964C296.749 65.6431 297.155 66.1342 297.673 66.4697C298.19 66.8012 298.786 66.9669 299.461 66.9669C300.136 66.9669 300.732 66.8012 301.25 66.4697C301.767 66.1342 302.171 65.6431 302.462 64.9964C302.757 64.3456 302.905 63.5493 302.905 62.6076Z" fill="#306D1D"/>
<path d="M313.148 64.8994V59.5033H315.343V68.8161H313.215V67.1609H313.118C312.908 67.6823 312.562 68.1087 312.081 68.4402C311.604 68.7716 311.016 68.9374 310.317 68.9374C309.707 68.9374 309.167 68.8019 308.698 68.5311C308.233 68.2563 307.87 67.8581 307.607 67.3367C307.344 66.8113 307.213 66.1767 307.213 65.4329V59.5033H309.408V65.0934C309.408 65.6835 309.569 66.1524 309.893 66.5C310.216 66.8476 310.64 67.0214 311.166 67.0214C311.489 67.0214 311.802 66.9426 312.106 66.785C312.409 66.6273 312.657 66.3929 312.851 66.0817C313.049 65.7664 313.148 65.3723 313.148 64.8994Z" fill="#306D1D"/>
<path d="M317.6 68.8161V59.5033H319.795V68.8161H317.6ZM318.704 58.1815C318.356 58.1815 318.057 58.0663 317.806 57.8359C317.556 57.6015 317.43 57.3206 317.43 56.9932C317.43 56.6617 317.556 56.3808 317.806 56.1504C318.057 55.916 318.356 55.7988 318.704 55.7988C319.055 55.7988 319.354 55.916 319.601 56.1504C319.852 56.3808 319.977 56.6617 319.977 56.9932C319.977 57.3206 319.852 57.6015 319.601 57.8359C319.354 58.0663 319.055 58.1815 318.704 58.1815Z" fill="#306D1D"/>
<path d="M322.052 68.8161V59.5033H324.18V61.0554H324.277C324.447 60.5178 324.738 60.1035 325.15 59.8125C325.567 59.5174 326.042 59.3699 326.575 59.3699C326.696 59.3699 326.832 59.376 326.981 59.3881C327.135 59.3962 327.262 59.4103 327.363 59.4305V61.4495C327.27 61.4172 327.123 61.3889 326.921 61.3646C326.723 61.3363 326.531 61.3222 326.345 61.3222C325.944 61.3222 325.585 61.4091 325.265 61.5829C324.95 61.7527 324.702 61.9891 324.52 62.2923C324.338 62.5954 324.247 62.9451 324.247 63.3412V68.8161H322.052Z" fill="#306D1D"/>
<path d="M332.5 68.998C331.591 68.998 330.803 68.7979 330.136 68.3977C329.469 67.9976 328.951 67.4378 328.583 66.7183C328.22 65.9988 328.038 65.1581 328.038 64.1961C328.038 63.2341 328.22 62.3913 328.583 61.6678C328.951 60.9443 329.469 60.3824 330.136 59.9823C330.803 59.5821 331.591 59.382 332.5 59.382C333.41 59.382 334.198 59.5821 334.865 59.9823C335.532 60.3824 336.047 60.9443 336.411 61.6678C336.779 62.3913 336.963 63.2341 336.963 64.1961C336.963 65.1581 336.779 65.9988 336.411 66.7183C336.047 67.4378 335.532 67.9976 334.865 68.3977C334.198 68.7979 333.41 68.998 332.5 68.998ZM332.512 67.2397C333.005 67.2397 333.418 67.1043 333.749 66.8335C334.081 66.5586 334.327 66.1908 334.489 65.73C334.655 65.2692 334.737 64.7559 334.737 64.19C334.737 63.6201 334.655 63.1047 334.489 62.6439C334.327 62.1791 334.081 61.8093 333.749 61.5344C333.418 61.2595 333.005 61.1221 332.512 61.1221C332.007 61.1221 331.587 61.2595 331.251 61.5344C330.92 61.8093 330.671 62.1791 330.505 62.6439C330.344 63.1047 330.263 63.6201 330.263 64.19C330.263 64.7559 330.344 65.2692 330.505 65.73C330.671 66.1908 330.92 66.5586 331.251 66.8335C331.587 67.1043 332.007 67.2397 332.512 67.2397Z" fill="#306D1D"/>
<path d="M338.825 72.3084V59.5033H340.984V61.0433H341.111C341.224 60.8169 341.384 60.5764 341.59 60.3218C341.796 60.0631 342.075 59.8428 342.427 59.6609C342.779 59.475 343.227 59.382 343.773 59.382C344.492 59.382 345.141 59.5659 345.719 59.9338C346.301 60.2975 346.762 60.8371 347.101 61.5526C347.445 62.264 347.617 63.1371 347.617 64.1718C347.617 65.1944 347.449 66.0635 347.114 66.7789C346.778 67.4944 346.321 68.04 345.743 68.4159C345.165 68.7918 344.511 68.9798 343.779 68.9798C343.245 68.9798 342.803 68.8909 342.451 68.713C342.099 68.5352 341.817 68.3209 341.602 68.0703C341.392 67.8157 341.228 67.5752 341.111 67.3488H341.02V72.3084H338.825ZM340.978 64.1597C340.978 64.762 341.063 65.2894 341.232 65.7421C341.406 66.1948 341.655 66.5485 341.978 66.8032C342.306 67.0538 342.702 67.1791 343.167 67.1791C343.652 67.1791 344.058 67.0497 344.385 66.791C344.713 66.5283 344.959 66.1706 345.125 65.7179C345.295 65.2611 345.38 64.7417 345.38 64.1597C345.38 63.5817 345.297 63.0683 345.131 62.6197C344.965 62.171 344.719 61.8194 344.391 61.5647C344.064 61.3101 343.656 61.1827 343.167 61.1827C342.698 61.1827 342.3 61.306 341.972 61.5526C341.645 61.7991 341.396 62.1447 341.226 62.5894C341.061 63.034 340.978 63.5574 340.978 64.1597Z" fill="#306D1D"/>
<path d="M349.496 68.8161V59.5033H351.624V61.0554H351.721C351.891 60.5178 352.182 60.1035 352.595 59.8125C353.011 59.5174 353.486 59.3699 354.019 59.3699C354.141 59.3699 354.276 59.376 354.426 59.3881C354.579 59.3962 354.707 59.4103 354.808 59.4305V61.4495C354.715 61.4172 354.567 61.3889 354.365 61.3646C354.167 61.3363 353.975 61.3222 353.789 61.3222C353.389 61.3222 353.029 61.4091 352.71 61.5829C352.394 61.7527 352.146 61.9891 351.964 62.2923C351.782 62.5954 351.691 62.9451 351.691 63.3412V68.8161H349.496Z" fill="#306D1D"/>
<path d="M358.779 69.0041C358.189 69.0041 357.657 68.899 357.184 68.6888C356.715 68.4745 356.344 68.1593 356.069 67.7429C355.798 67.3266 355.662 66.8133 355.662 66.2029C355.662 65.6775 355.759 65.243 355.953 64.8994C356.147 64.5558 356.412 64.2809 356.748 64.0748C357.083 63.8687 357.461 63.713 357.882 63.608C358.306 63.4988 358.744 63.42 359.197 63.3715C359.743 63.3149 360.185 63.2644 360.525 63.2199C360.865 63.1714 361.111 63.0987 361.265 63.0016C361.422 62.9006 361.501 62.745 361.501 62.5348V62.4984C361.501 62.0417 361.366 61.688 361.095 61.4374C360.824 61.1868 360.434 61.0615 359.925 61.0615C359.387 61.0615 358.961 61.1787 358.645 61.4131C358.334 61.6476 358.124 61.9245 358.015 62.2438L355.966 61.9527C356.127 61.3869 356.394 60.9139 356.766 60.534C357.138 60.15 357.593 59.863 358.13 59.673C358.668 59.479 359.262 59.382 359.913 59.382C360.361 59.382 360.808 59.4346 361.253 59.5397C361.697 59.6448 362.103 59.8186 362.471 60.0611C362.839 60.2996 363.134 60.6249 363.356 61.0372C363.583 61.4495 363.696 61.9649 363.696 62.5833V68.8161H361.586V67.5368H361.513C361.38 67.7955 361.192 68.038 360.949 68.2644C360.711 68.4867 360.41 68.6665 360.046 68.804C359.686 68.9374 359.264 69.0041 358.779 69.0041ZM359.349 67.3913C359.789 67.3913 360.171 67.3044 360.495 67.1306C360.818 66.9527 361.067 66.7183 361.24 66.4273C361.418 66.1362 361.507 65.8189 361.507 65.4754V64.378C361.439 64.4345 361.321 64.4871 361.156 64.5356C360.994 64.5841 360.812 64.6265 360.61 64.6629C360.408 64.6993 360.208 64.7316 360.01 64.7599C359.812 64.7882 359.64 64.8125 359.494 64.8327C359.167 64.8771 358.874 64.9499 358.615 65.051C358.356 65.152 358.152 65.2935 358.003 65.4754C357.853 65.6532 357.778 65.8836 357.778 66.1666C357.778 66.5708 357.926 66.8759 358.221 67.0821C358.516 67.2882 358.892 67.3913 359.349 67.3913Z" fill="#306D1D"/>
<path d="M367.698 59.5033L369.577 62.941L371.487 59.5033H373.809L371.002 64.1597L373.858 68.8161H371.548L369.577 65.4632L367.625 68.8161H365.297L368.134 64.1597L365.369 59.5033H367.698Z" fill="#306D1D"/>
<path d="M375.507 68.8161V59.5033H377.702V68.8161H375.507ZM376.61 58.1815C376.263 58.1815 375.964 58.0663 375.713 57.8359C375.462 57.6015 375.337 57.3206 375.337 56.9932C375.337 56.6617 375.462 56.3808 375.713 56.1504C375.964 55.916 376.263 55.7988 376.61 55.7988C376.962 55.7988 377.261 55.916 377.508 56.1504C377.758 56.3808 377.883 56.6617 377.883 56.9932C377.883 57.3206 377.758 57.6015 377.508 57.8359C377.261 58.0663 376.962 58.1815 376.61 58.1815Z" fill="#306D1D"/>
<path d="M382.638 69.0041C382.048 69.0041 381.517 68.899 381.044 68.6888C380.575 68.4745 380.203 68.1593 379.928 67.7429C379.657 67.3266 379.522 66.8133 379.522 66.2029C379.522 65.6775 379.619 65.243 379.813 64.8994C380.007 64.5558 380.272 64.2809 380.607 64.0748C380.943 63.8687 381.321 63.713 381.741 63.608C382.165 63.4988 382.604 63.42 383.057 63.3715C383.602 63.3149 384.045 63.2644 384.385 63.2199C384.724 63.1714 384.971 63.0987 385.124 63.0016C385.282 62.9006 385.361 62.745 385.361 62.5348V62.4984C385.361 62.0417 385.225 61.688 384.954 61.4374C384.684 61.1868 384.294 61.0615 383.784 61.0615C383.247 61.0615 382.82 61.1787 382.505 61.4131C382.194 61.6476 381.984 61.9245 381.874 62.2438L379.825 61.9527C379.987 61.3869 380.254 60.9139 380.625 60.534C380.997 60.15 381.452 59.863 381.99 59.673C382.527 59.479 383.121 59.382 383.772 59.382C384.221 59.382 384.667 59.4346 385.112 59.5397C385.557 59.6448 385.963 59.8186 386.331 60.0611C386.699 60.2996 386.994 60.6249 387.216 61.0372C387.442 61.4495 387.556 61.9649 387.556 62.5833V68.8161H385.446V67.5368H385.373C385.239 67.7955 385.051 68.038 384.809 68.2644C384.57 68.4867 384.269 68.6665 383.906 68.804C383.546 68.9374 383.123 69.0041 382.638 69.0041ZM383.208 67.3913C383.649 67.3913 384.031 67.3044 384.354 67.1306C384.678 66.9527 384.926 66.7183 385.1 66.4273C385.278 66.1362 385.367 65.8189 385.367 65.4754V64.378C385.298 64.4345 385.181 64.4871 385.015 64.5356C384.853 64.5841 384.672 64.6265 384.469 64.6629C384.267 64.6993 384.067 64.7316 383.869 64.7599C383.671 64.7882 383.499 64.8125 383.354 64.8327C383.026 64.8771 382.733 64.9499 382.475 65.051C382.216 65.152 382.012 65.2935 381.862 65.4754C381.713 65.6532 381.638 65.8836 381.638 66.1666C381.638 66.5708 381.786 66.8759 382.081 67.0821C382.376 67.2882 382.752 67.3913 383.208 67.3913Z" fill="#306D1D"/>
<path fill-rule="evenodd" clip-rule="evenodd" d="M288.151 63.9191C288.151 61.4496 286.139 59.4373 283.669 59.4373C281.2 59.4373 279.188 61.4496 279.188 63.9191C279.188 66.3887 281.2 68.4009 283.669 68.4009C286.139 68.4009 288.151 66.3887 288.151 63.9191Z" fill="#AFCB37"/>
</g>
<path fill-rule="evenodd" clip-rule="evenodd" d="M65.4085 16.269C76.1575 38.2364 63.1554 43.7283 55.1758 49.1732C48.9798 53.3977 44.8961 60.9549 47.6186 62.1284C49.1676 62.8325 52.0778 59.1243 55.2696 56.261C58.039 53.8202 61.0431 52.1304 62.6391 53.5855C65.784 56.4488 54.4717 71.2346 38.5124 77.055C58.7901 76.6326 74.8432 59.8284 74.4207 39.5507C74.233 30.6323 70.8534 22.5119 65.4085 16.269ZM36.9165 3.6424C16.6388 4.06485 0.585699 20.869 1.00815 41.1467C1.19591 50.0651 4.57551 58.1855 10.0204 64.4284C-0.728595 42.461 12.2735 36.9691 20.2531 31.5242C26.4491 27.2997 30.5328 19.7425 27.8103 18.569C26.2613 17.8649 23.3511 21.5731 20.1593 24.4364C17.3899 26.8772 14.3858 28.567 12.7898 27.1119C9.64493 24.2486 20.9103 9.46283 36.9165 3.6424Z" fill="#19B500"/>
<path fill-rule="evenodd" clip-rule="evenodd" d="M11.2413 76.1634C10.4433 76.1634 9.64539 76.5389 9.22294 77.2899C8.61273 78.3695 8.98824 79.7777 10.0678 80.3879C11.1474 80.9981 12.5556 80.6226 13.1658 79.543C13.776 78.4634 13.4005 77.0552 12.3209 76.445C11.9454 76.2573 11.6168 76.1634 11.2413 76.1634ZM15.6536 67.6674C14.527 67.6205 13.4474 68.1837 12.8842 69.2164C12.0393 70.7185 12.5087 72.643 14.0107 73.4879C15.5128 74.3328 17.4373 73.8164 18.2822 72.3613C19.1271 70.8593 18.6107 68.9348 17.1556 68.0899C16.6862 67.8082 16.1699 67.6674 15.6536 67.6674ZM23.9148 60.4858C22.5067 60.4388 21.1454 61.1429 20.3944 62.4572C19.3148 64.3347 19.972 66.7756 21.8495 67.8552C23.7271 68.9348 26.1679 68.2776 27.2475 66.4001C28.3271 64.5225 27.67 62.0817 25.7924 61.0021C25.1822 60.6266 24.572 60.4858 23.9148 60.4858ZM31.8475 52.9755C30.4394 52.9286 29.0781 53.6327 28.3271 54.9469C27.2475 56.8245 27.9047 59.2184 29.7822 60.3449C31.6598 61.4245 34.1006 60.7674 35.1802 58.8898C36.2598 57.0123 35.6027 54.5714 33.7251 53.4918C33.1618 53.1633 32.5047 52.9755 31.8475 52.9755ZM41.47 22.2305C40.0619 22.1835 38.7006 22.8876 37.9496 24.2019C36.87 26.0795 37.5272 28.5203 39.4047 29.5999C41.2823 30.6795 43.7231 30.0223 44.8027 28.1448C45.8823 26.2672 45.2252 23.8264 43.3476 22.7468C42.7374 22.4182 42.0802 22.2305 41.47 22.2305ZM46.6803 13.9692C45.5537 13.9223 44.4741 14.4855 43.9109 15.5182C43.066 17.0202 43.5823 18.9447 45.0374 19.7896C46.5394 20.6345 48.4639 20.1651 49.3088 18.6631C50.1537 17.161 49.6374 15.2365 48.1823 14.3916C47.666 14.1569 47.1496 14.0161 46.6803 13.9692ZM53.6272 8.47733C52.6415 8.43039 51.6558 8.94672 51.1395 9.8855C50.3884 11.1998 50.8109 12.9365 52.1721 13.6876C53.4864 14.4386 55.2232 14.0161 55.9742 12.6549C56.7252 11.3406 56.3028 9.60386 54.9415 8.85284C54.5191 8.61815 54.0966 8.47733 53.6272 8.47733ZM60.9028 6.31813C60.1518 6.31813 59.4007 6.69365 59.0252 7.35079C58.4619 8.33651 58.7905 9.6508 59.7762 10.2141C60.762 10.7773 62.0762 10.4488 62.6395 9.46305C63.2028 8.47733 62.8742 7.16304 61.8885 6.59977C61.5599 6.41201 61.2313 6.36507 60.9028 6.31813ZM66.3477 1.20178C65.7844 1.24872 65.2681 1.53036 64.9865 2.04668C64.5171 2.84465 64.7987 3.87731 65.5967 4.3467C66.3946 4.81609 67.4273 4.53445 67.8967 3.73649C68.3661 2.93853 68.0844 1.90587 67.2865 1.43648C67.0048 1.24872 66.6763 1.20178 66.3477 1.20178Z" fill="#306D1D"/>
<path fill-rule="evenodd" clip-rule="evenodd" d="M31.5184 34.4804C34.2409 32.8844 36.9634 33.3069 39.3103 35.1375L27.8572 41.7559C27.5286 38.7987 28.7021 36.1232 31.5184 34.4804ZM47.5716 34.7151C43.3471 27.6273 35.4144 25.8436 28.7021 29.7395C21.5674 33.8701 19.5021 42.2253 23.398 48.9845C27.2939 55.7437 35.5083 58.1846 42.9246 53.9131C47.8532 51.0968 50.3879 46.4029 50.0593 41.4743L44.0981 42.2722C44.0981 45.1824 42.5491 47.6702 40.0613 49.1253C36.6348 51.0968 32.5511 50.2519 29.9225 46.7314L48.3226 36.1232L47.5716 34.7151Z" fill="#306D1D"/>
<defs>
<clipPath id="clip0_713_2732">
<rect width="296" height="66" fill="white" transform="translate(93 8)"/>
</clipPath>
</defs>
</svg>
