<svg width="171" height="88" viewBox="0 0 171 88" fill="none" xmlns="http://www.w3.org/2000/svg">
<path d="M56.9712 26.5091C56.9712 26.8863 56.9517 27.2114 56.9127 27.4846C56.8867 27.7447 56.8412 27.9593 56.7761 28.1284C56.7111 28.2845 56.6266 28.4015 56.5225 28.4796C56.4315 28.5576 56.3274 28.5966 56.2104 28.5966H49.8891V48.9457C49.8891 49.0757 49.8436 49.1928 49.7525 49.2968C49.6745 49.4009 49.5379 49.4854 49.3428 49.5505C49.1477 49.6155 48.8811 49.6675 48.5429 49.7066C48.2177 49.7456 47.808 49.7651 47.3137 49.7651C46.8195 49.7651 46.4033 49.7456 46.0651 49.7066C45.7399 49.6675 45.4798 49.6155 45.2847 49.5505C45.0896 49.4854 44.9465 49.4009 44.8555 49.2968C44.7774 49.1928 44.7384 49.0757 44.7384 48.9457V28.5966H38.4171C38.2871 28.5966 38.1765 28.5576 38.0855 28.4796C37.9944 28.4015 37.9164 28.2845 37.8514 28.1284C37.7863 27.9593 37.7343 27.7447 37.6953 27.4846C37.6693 27.2114 37.6562 26.8863 37.6562 26.5091C37.6562 26.1189 37.6693 25.7872 37.6953 25.514C37.7343 25.2409 37.7863 25.0263 37.8514 24.8702C37.9164 24.7011 37.9944 24.5841 38.0855 24.519C38.1765 24.441 38.2871 24.402 38.4171 24.402H56.2104C56.3274 24.402 56.4315 24.441 56.5225 24.519C56.6266 24.5841 56.7111 24.7011 56.7761 24.8702C56.8412 25.0263 56.8867 25.2409 56.9127 25.514C56.9517 25.7872 56.9712 26.1189 56.9712 26.5091Z" fill="#00555C"/>
<path d="M69.2501 49.0432C69.2501 49.2253 69.1851 49.3684 69.055 49.4724C68.9249 49.5765 68.7168 49.648 68.4307 49.687C68.1576 49.7391 67.7478 49.7651 67.2016 49.7651C66.6163 49.7651 66.187 49.7391 65.9139 49.687C65.6538 49.648 65.4652 49.5765 65.3481 49.4724C65.244 49.3684 65.192 49.2253 65.192 49.0432V47.658C64.4766 48.4254 63.6572 49.0237 62.7337 49.4529C61.8233 49.8821 60.8087 50.0968 59.6902 50.0968C58.7667 50.0968 57.9148 49.9732 57.1343 49.7261C56.367 49.4919 55.6971 49.1408 55.1248 48.6725C54.5655 48.1913 54.1298 47.5995 53.8176 46.8971C53.5055 46.1947 53.3494 45.3753 53.3494 44.4388C53.3494 43.4243 53.5445 42.5464 53.9347 41.805C54.3379 41.0506 54.9297 40.4328 55.7101 39.9515C56.5035 39.4573 57.4855 39.0931 58.6561 38.8589C59.8267 38.6248 61.1859 38.5078 62.7337 38.5078H64.4311V37.4542C64.4311 36.9079 64.3726 36.4332 64.2555 36.03C64.1515 35.6138 63.9694 35.2691 63.7092 34.9959C63.4621 34.7228 63.1239 34.5212 62.6947 34.3911C62.2785 34.2611 61.7582 34.196 61.1339 34.196C60.3145 34.196 59.5796 34.2871 58.9293 34.4692C58.2919 34.6513 57.7262 34.8529 57.2319 35.074C56.7376 35.2951 56.3214 35.4967 55.9833 35.6788C55.6581 35.8609 55.3914 35.9519 55.1833 35.9519C55.0403 35.9519 54.9102 35.9064 54.7931 35.8154C54.6891 35.7243 54.598 35.5943 54.52 35.4252C54.455 35.2561 54.4029 35.048 54.3639 34.8008C54.3249 34.5537 54.3054 34.2806 54.3054 33.9814C54.3054 33.5782 54.3379 33.2596 54.4029 33.0254C54.468 32.7913 54.5915 32.5832 54.7736 32.4011C54.9557 32.206 55.2744 31.9979 55.7296 31.7768C56.1849 31.5427 56.7181 31.328 57.3294 31.1329C57.9408 30.9378 58.6041 30.7818 59.3195 30.6647C60.0479 30.5346 60.7957 30.4696 61.5631 30.4696C62.9288 30.4696 64.0929 30.6062 65.0554 30.8793C66.0309 31.1395 66.8309 31.5492 67.4552 32.1085C68.0795 32.6547 68.5347 33.3636 68.8209 34.2351C69.107 35.1065 69.2501 36.1405 69.2501 37.3372V49.0432ZM64.4311 41.5904H62.5582C61.7647 41.5904 61.0884 41.6489 60.5291 41.766C59.9698 41.883 59.5146 42.0586 59.1634 42.2927C58.8122 42.5268 58.5521 42.813 58.383 43.1512C58.2269 43.4763 58.1489 43.8535 58.1489 44.2828C58.1489 45.0111 58.3765 45.5834 58.8317 45.9996C59.3 46.4159 59.9438 46.624 60.7632 46.624C61.4526 46.624 62.0834 46.4484 62.6557 46.0972C63.241 45.746 63.8328 45.2322 64.4311 44.5559V41.5904Z" fill="#00555C"/>
<path d="M88.5721 30.9183C89.1184 30.9183 89.4956 31.0354 89.7037 31.2695C89.9248 31.5036 90.0354 31.8418 90.0354 32.284V48.9847C90.0354 49.1148 89.9964 49.2318 89.9183 49.3359C89.8403 49.4269 89.7102 49.505 89.5281 49.57C89.346 49.635 89.0924 49.6805 88.7672 49.7066C88.4551 49.7456 88.0649 49.7651 87.5966 49.7651C87.1154 49.7651 86.7122 49.7456 86.387 49.7066C86.0748 49.6805 85.8277 49.635 85.6456 49.57C85.4635 49.505 85.3335 49.4269 85.2554 49.3359C85.1774 49.2318 85.1384 49.1148 85.1384 48.9847V34.8984H77.3148V43.0731C77.3148 44.0226 77.4644 44.738 77.7635 45.2192C78.0627 45.6875 78.596 45.9216 79.3634 45.9216C79.6235 45.9216 79.8576 45.9021 80.0657 45.8631C80.2738 45.811 80.4559 45.759 80.612 45.707C80.7811 45.642 80.9177 45.5899 81.0217 45.5509C81.1388 45.4989 81.2428 45.4729 81.3339 45.4729C81.4119 45.4729 81.4835 45.4989 81.5485 45.5509C81.6265 45.5899 81.6851 45.681 81.7241 45.8241C81.7631 45.9541 81.7956 46.1362 81.8216 46.3703C81.8607 46.6045 81.8802 46.9036 81.8802 47.2678C81.8802 47.8401 81.8477 48.2758 81.7826 48.575C81.7176 48.8611 81.6265 49.0757 81.5095 49.2188C81.3924 49.3489 81.2168 49.4659 80.9827 49.57C80.7486 49.661 80.4754 49.7391 80.1633 49.8041C79.8641 49.8822 79.5325 49.9407 79.1683 49.9797C78.8171 50.0187 78.4594 50.0382 78.0952 50.0382C77.1197 50.0382 76.2743 49.9147 75.5589 49.6675C74.8435 49.4204 74.2517 49.0432 73.7835 48.536C73.3152 48.0157 72.9706 47.3653 72.7494 46.5849C72.5283 45.8045 72.4178 44.8811 72.4178 43.8145V34.8984H70.3302C70.0831 34.8984 69.8945 34.7488 69.7644 34.4497C69.6343 34.1375 69.5693 33.6237 69.5693 32.9084C69.5693 32.5312 69.5823 32.2125 69.6083 31.9524C69.6473 31.6922 69.6994 31.4906 69.7644 31.3476C69.8294 31.1915 69.9075 31.0809 69.9985 31.0159C70.1026 30.9509 70.2196 30.9183 70.3497 30.9183H72.4178V27.0358C72.4178 26.9058 72.4503 26.7887 72.5153 26.6846C72.5934 26.5806 72.7234 26.4961 72.9055 26.431C73.1006 26.353 73.3543 26.3009 73.6664 26.2749C73.9916 26.2359 74.3883 26.2164 74.8565 26.2164C75.3378 26.2164 75.7345 26.2359 76.0467 26.2749C76.3718 26.3009 76.6255 26.353 76.8075 26.431C76.9896 26.4961 77.1197 26.5806 77.1977 26.6846C77.2758 26.7887 77.3148 26.9058 77.3148 27.0358V30.9183H88.5721ZM90.4256 25.6896C90.4256 26.6781 90.224 27.361 89.8208 27.7382C89.4176 28.1154 88.6697 28.304 87.5771 28.304C86.4715 28.304 85.7237 28.1219 85.3335 27.7577C84.9563 27.3935 84.7677 26.7367 84.7677 25.7872C84.7677 24.7987 84.9628 24.1158 85.353 23.7386C85.7562 23.3484 86.5106 23.1533 87.6161 23.1533C88.7087 23.1533 89.4501 23.3419 89.8403 23.7191C90.2305 24.0833 90.4256 24.7401 90.4256 25.6896Z" fill="#00555C"/>
<path d="M107.621 49.0432C107.621 49.2253 107.556 49.3684 107.426 49.4724C107.296 49.5765 107.088 49.648 106.802 49.687C106.528 49.7391 106.119 49.7651 105.572 49.7651C104.987 49.7651 104.558 49.7391 104.285 49.687C104.025 49.648 103.836 49.5765 103.719 49.4724C103.615 49.3684 103.563 49.2253 103.563 49.0432V47.658C102.848 48.4254 102.028 49.0237 101.105 49.4529C100.194 49.8821 99.1796 50.0968 98.0611 50.0968C97.1376 50.0968 96.2856 49.9732 95.5052 49.7261C94.7378 49.4919 94.068 49.1408 93.4957 48.6725C92.9364 48.1913 92.5007 47.5995 92.1885 46.8971C91.8764 46.1947 91.7203 45.3753 91.7203 44.4388C91.7203 43.4243 91.9154 42.5464 92.3056 41.805C92.7088 41.0506 93.3006 40.4328 94.081 39.9515C94.8744 39.4573 95.8564 39.0931 97.027 38.8589C98.1976 38.6248 99.5568 38.5078 101.105 38.5078H102.802V37.4542C102.802 36.9079 102.743 36.4332 102.626 36.03C102.522 35.6138 102.34 35.2691 102.08 34.9959C101.833 34.7228 101.495 34.5212 101.066 34.3911C100.649 34.2611 100.129 34.196 99.5048 34.196C98.6854 34.196 97.9505 34.2871 97.3002 34.4692C96.6628 34.6513 96.097 34.8529 95.6028 35.074C95.1085 35.2951 94.6923 35.4967 94.3541 35.6788C94.029 35.8609 93.7623 35.9519 93.5542 35.9519C93.4112 35.9519 93.2811 35.9064 93.164 35.8154C93.06 35.7243 92.9689 35.5943 92.8909 35.4252C92.8259 35.2561 92.7738 35.048 92.7348 34.8008C92.6958 34.5537 92.6763 34.2806 92.6763 33.9814C92.6763 33.5782 92.7088 33.2596 92.7738 33.0254C92.8389 32.7913 92.9624 32.5832 93.1445 32.4011C93.3266 32.206 93.6453 31.9979 94.1005 31.7768C94.5558 31.5427 95.089 31.328 95.7003 31.1329C96.3117 30.9378 96.975 30.7818 97.6904 30.6647C98.4188 30.5346 99.1666 30.4696 99.934 30.4696C101.3 30.4696 102.464 30.6062 103.426 30.8793C104.402 31.1395 105.202 31.5492 105.826 32.1085C106.45 32.6547 106.906 33.3636 107.192 34.2351C107.478 35.1065 107.621 36.1405 107.621 37.3372V49.0432ZM102.802 41.5904H100.929C100.136 41.5904 99.4593 41.6489 98.9 41.766C98.3407 41.883 97.8855 42.0586 97.5343 42.2927C97.1831 42.5268 96.923 42.813 96.7539 43.1512C96.5978 43.4763 96.5198 43.8535 96.5198 44.2828C96.5198 45.0111 96.7474 45.5834 97.2026 45.9996C97.6709 46.4159 98.3147 46.624 99.1341 46.624C99.8235 46.624 100.454 46.4484 101.027 46.0972C101.612 45.746 102.204 45.2322 102.802 44.5559V41.5904Z" fill="#00555C"/>
<path d="M126.963 48.9847C126.963 49.1148 126.924 49.2318 126.845 49.3359C126.767 49.4269 126.637 49.505 126.455 49.57C126.273 49.635 126.02 49.6805 125.694 49.7066C125.382 49.7456 124.992 49.7651 124.524 49.7651C124.043 49.7651 123.639 49.7456 123.314 49.7066C123.002 49.6805 122.755 49.635 122.573 49.57C122.391 49.505 122.261 49.4269 122.183 49.3359C122.105 49.2318 122.066 49.1148 122.066 48.9847V39.054C122.066 38.2086 122 37.5453 121.87 37.064C121.753 36.5828 121.578 36.1731 121.344 35.8349C121.11 35.4837 120.804 35.2171 120.427 35.035C120.062 34.8399 119.633 34.7423 119.139 34.7423C118.515 34.7423 117.884 34.9699 117.247 35.4252C116.609 35.8804 115.946 36.5437 115.256 37.4152V48.9847C115.256 49.1148 115.217 49.2318 115.139 49.3359C115.061 49.4269 114.925 49.505 114.73 49.57C114.548 49.635 114.3 49.6805 113.988 49.7066C113.676 49.7456 113.279 49.7651 112.798 49.7651C112.317 49.7651 111.92 49.7456 111.608 49.7066C111.296 49.6805 111.042 49.635 110.847 49.57C110.665 49.505 110.535 49.4269 110.457 49.3359C110.379 49.2318 110.34 49.1148 110.34 48.9847V31.5817C110.34 31.4516 110.372 31.3411 110.437 31.25C110.503 31.146 110.62 31.0614 110.789 30.9964C110.958 30.9313 111.172 30.8858 111.432 30.8598C111.706 30.8208 112.044 30.8013 112.447 30.8013C112.863 30.8013 113.208 30.8208 113.481 30.8598C113.754 30.8858 113.962 30.9313 114.105 30.9964C114.261 31.0614 114.372 31.146 114.437 31.25C114.502 31.3411 114.535 31.4516 114.535 31.5817V33.5912C115.497 32.5507 116.473 31.7703 117.461 31.25C118.463 30.7297 119.503 30.4696 120.583 30.4696C121.766 30.4696 122.761 30.6647 123.568 31.0549C124.387 31.4451 125.044 31.9784 125.538 32.6547C126.046 33.3181 126.41 34.0985 126.631 34.9959C126.852 35.8934 126.963 36.973 126.963 38.2346V48.9847Z" fill="#00555C"/>
<path d="M144.431 49.0432C144.431 49.2253 144.366 49.3684 144.236 49.4724C144.106 49.5765 143.898 49.648 143.612 49.687C143.339 49.7391 142.929 49.7651 142.383 49.7651C141.797 49.7651 141.368 49.7391 141.095 49.687C140.835 49.648 140.646 49.5765 140.529 49.4724C140.425 49.3684 140.373 49.2253 140.373 49.0432V47.658C139.658 48.4254 138.838 49.0237 137.915 49.4529C137.004 49.8821 135.99 50.0968 134.871 50.0968C133.948 50.0968 133.096 49.9732 132.315 49.7261C131.548 49.4919 130.878 49.1408 130.306 48.6725C129.746 48.1913 129.311 47.5995 128.999 46.8971C128.686 46.1947 128.53 45.3753 128.53 44.4388C128.53 43.4243 128.725 42.5464 129.116 41.805C129.519 41.0506 130.111 40.4328 130.891 39.9515C131.685 39.4573 132.667 39.0931 133.837 38.8589C135.008 38.6248 136.367 38.5078 137.915 38.5078H139.612V37.4542C139.612 36.9079 139.554 36.4332 139.437 36.03C139.332 35.6138 139.15 35.2691 138.89 34.9959C138.643 34.7228 138.305 34.5212 137.876 34.3911C137.459 34.2611 136.939 34.196 136.315 34.196C135.495 34.196 134.761 34.2871 134.11 34.4692C133.473 34.6513 132.907 34.8529 132.413 35.074C131.919 35.2951 131.502 35.4967 131.164 35.6788C130.839 35.8609 130.572 35.9519 130.364 35.9519C130.221 35.9519 130.091 35.9064 129.974 35.8154C129.87 35.7243 129.779 35.5943 129.701 35.4252C129.636 35.2561 129.584 35.048 129.545 34.8008C129.506 34.5537 129.486 34.2806 129.486 33.9814C129.486 33.5782 129.519 33.2596 129.584 33.0254C129.649 32.7913 129.773 32.5832 129.955 32.4011C130.137 32.206 130.455 31.9979 130.911 31.7768C131.366 31.5427 131.899 31.328 132.51 31.1329C133.122 30.9378 133.785 30.7818 134.5 30.6647C135.229 30.5346 135.977 30.4696 136.744 30.4696C138.11 30.4696 139.274 30.6062 140.236 30.8793C141.212 31.1395 142.012 31.5492 142.636 32.1085C143.26 32.6547 143.716 33.3636 144.002 34.2351C144.288 35.1065 144.431 36.1405 144.431 37.3372V49.0432ZM139.612 41.5904H137.739C136.946 41.5904 136.269 41.6489 135.71 41.766C135.151 41.883 134.696 42.0586 134.344 42.2927C133.993 42.5268 133.733 42.813 133.564 43.1512C133.408 43.4763 133.33 43.8535 133.33 44.2828C133.33 45.0111 133.557 45.5834 134.013 45.9996C134.481 46.4159 135.125 46.624 135.944 46.624C136.634 46.624 137.264 46.4484 137.837 46.0972C138.422 45.746 139.014 45.2322 139.612 44.5559V41.5904Z" fill="#00555C"/>
<path d="M57.3006 54.5768C57.3006 54.9352 57.2826 55.2399 57.2468 55.4908C57.2229 55.7297 57.1751 55.9209 57.1034 56.0643C57.0437 56.2077 56.972 56.3152 56.8884 56.3869C56.8047 56.4586 56.7091 56.4944 56.6016 56.4944H49.0205V62.7313H56.1356C56.2432 62.7313 56.3387 62.7612 56.4224 62.821C56.506 62.8807 56.5777 62.9823 56.6374 63.1256C56.7091 63.269 56.7569 63.4602 56.7808 63.6991C56.8167 63.9381 56.8346 64.2368 56.8346 64.5953C56.8346 64.9537 56.8167 65.2524 56.7808 65.4914C56.7569 65.7303 56.7091 65.9275 56.6374 66.0828C56.5777 66.2381 56.506 66.3516 56.4224 66.4233C56.3387 66.4831 56.2432 66.5129 56.1356 66.5129H49.0205V75.1514C49.0205 75.2828 48.9847 75.3963 48.913 75.4919C48.8413 75.5875 48.7099 75.6712 48.5187 75.7428C48.3395 75.8026 48.1005 75.8504 47.8018 75.8862C47.5031 75.9221 47.1208 75.94 46.6548 75.94C46.2008 75.94 45.8184 75.9221 45.5078 75.8862C45.2091 75.8504 44.9701 75.8026 44.7909 75.7428C44.6117 75.6712 44.4802 75.5875 44.3966 75.4919C44.3249 75.3963 44.2891 75.2828 44.2891 75.1514V54.1287C44.2891 53.603 44.4205 53.2266 44.6834 52.9996C44.9582 52.7606 45.2927 52.6412 45.687 52.6412H56.6016C56.7091 52.6412 56.8047 52.677 56.8884 52.7487C56.972 52.8084 57.0437 52.916 57.1034 53.0713C57.1751 53.2147 57.2229 53.4118 57.2468 53.6627C57.2826 53.9136 57.3006 54.2183 57.3006 54.5768Z" fill="#00555C"/>
<path d="M73.262 66.7638C73.262 67.3134 73.1366 67.7197 72.8857 67.9825C72.6467 68.2454 72.3122 68.3768 71.882 68.3768H62.1503C62.1503 69.0579 62.228 69.6792 62.3833 70.2407C62.5506 70.7903 62.8074 71.2623 63.1539 71.6566C63.5124 72.0389 63.9664 72.3317 64.516 72.5348C65.0776 72.7379 65.7467 72.8395 66.5233 72.8395C67.3119 72.8395 68.0049 72.7857 68.6023 72.6782C69.1997 72.5587 69.7135 72.4332 70.1436 72.3018C70.5857 72.1584 70.9501 72.033 71.2368 71.9254C71.5236 71.8059 71.7566 71.7462 71.9358 71.7462C72.0433 71.7462 72.133 71.7701 72.2046 71.8179C72.2763 71.8537 72.3361 71.9254 72.3839 72.033C72.4317 72.1405 72.4615 72.2958 72.4735 72.4989C72.4974 72.6901 72.5093 72.935 72.5093 73.2337C72.5093 73.4966 72.5033 73.7236 72.4914 73.9148C72.4794 74.094 72.4615 74.2493 72.4376 74.3808C72.4137 74.5122 72.3779 74.6257 72.3301 74.7213C72.2823 74.8049 72.2166 74.8886 72.133 74.9722C72.0613 75.0558 71.8522 75.1693 71.5057 75.3127C71.1592 75.4561 70.7171 75.5995 70.1794 75.7428C69.6418 75.8743 69.0264 75.9878 68.3334 76.0834C67.6405 76.1909 66.8997 76.2447 66.1111 76.2447C64.6893 76.2447 63.4407 76.0654 62.3654 75.707C61.302 75.3486 60.4118 74.8049 59.695 74.0761C58.9781 73.3472 58.4404 72.4272 58.082 71.3161C57.7355 70.2049 57.5622 68.9025 57.5622 67.409C57.5622 65.9872 57.7474 64.7088 58.1178 63.5737C58.4882 62.4267 59.0259 61.4589 59.7308 60.6703C60.4357 59.8698 61.29 59.2604 62.2937 58.8422C63.3093 58.424 64.4503 58.215 65.7168 58.215C67.055 58.215 68.196 58.4121 69.1399 58.8064C70.0958 59.2007 70.8784 59.7503 71.4878 60.4552C72.0971 61.1482 72.5452 61.9726 72.8319 62.9285C73.1187 63.8843 73.262 64.9238 73.262 66.0469V66.7638ZM68.889 65.4734C68.9249 64.2069 68.668 63.2152 68.1184 62.4984C67.5807 61.7695 66.7444 61.4051 65.6093 61.4051C65.0358 61.4051 64.5339 61.5126 64.1038 61.7277C63.6856 61.9428 63.3332 62.2355 63.0464 62.6059C62.7716 62.9643 62.5565 63.3945 62.4012 63.8963C62.2578 64.3862 62.1742 64.9119 62.1503 65.4734H68.889Z" fill="#00555C"/>
<path d="M85.424 60.7241C85.424 61.1542 85.4121 61.5067 85.3882 61.7815C85.3643 62.0563 85.3285 62.2713 85.2807 62.4267C85.2329 62.582 85.1672 62.6895 85.0835 62.7493C85.0118 62.809 84.9162 62.8389 84.7968 62.8389C84.7012 62.8389 84.5936 62.821 84.4742 62.7851C84.3547 62.7373 84.2173 62.6895 84.0619 62.6417C83.9186 62.5939 83.7573 62.5521 83.578 62.5163C83.3988 62.4685 83.2017 62.4446 82.9866 62.4446C82.7357 62.4446 82.4848 62.4984 82.2339 62.6059C81.983 62.7015 81.7201 62.8568 81.4453 63.0719C81.1825 63.2869 80.9017 63.5737 80.603 63.9321C80.3162 64.2906 80.0056 64.7327 79.671 65.2584V75.2231C79.671 75.3426 79.6352 75.4501 79.5635 75.5457C79.4918 75.6293 79.3663 75.701 79.1871 75.7608C79.0198 75.8205 78.7928 75.8623 78.5061 75.8862C78.2193 75.9221 77.8549 75.94 77.4128 75.94C76.9707 75.94 76.6063 75.9221 76.3196 75.8862C76.0328 75.8623 75.7998 75.8205 75.6206 75.7608C75.4533 75.701 75.3339 75.6293 75.2622 75.5457C75.1905 75.4501 75.1546 75.3426 75.1546 75.2231V59.2365C75.1546 59.117 75.1845 59.0155 75.2442 58.9318C75.304 58.8363 75.4115 58.7586 75.5668 58.6989C75.7222 58.6391 75.9193 58.5973 76.1583 58.5734C76.4092 58.5376 76.7198 58.5196 77.0902 58.5196C77.4726 58.5196 77.7892 58.5376 78.0401 58.5734C78.291 58.5973 78.4822 58.6391 78.6136 58.6989C78.757 58.7586 78.8585 58.8363 78.9183 58.9318C78.978 59.0155 79.0079 59.117 79.0079 59.2365V61.2259C79.4261 60.6285 79.8204 60.1386 80.1908 59.7563C80.5612 59.362 80.9136 59.0513 81.2482 58.8243C81.5827 58.5973 81.9173 58.442 82.2518 58.3583C82.5864 58.2627 82.9209 58.215 83.2554 58.215C83.4108 58.215 83.578 58.2269 83.7573 58.2508C83.9365 58.2627 84.1217 58.2926 84.3129 58.3404C84.504 58.3763 84.6713 58.424 84.8147 58.4838C84.9581 58.5316 85.0596 58.5853 85.1194 58.6451C85.191 58.7048 85.2388 58.7705 85.2627 58.8422C85.2986 58.9139 85.3285 59.0155 85.3523 59.1469C85.3762 59.2664 85.3942 59.4516 85.4061 59.7025C85.4181 59.9534 85.424 60.2939 85.424 60.7241Z" fill="#00555C"/>
<path d="M96.6361 60.7241C96.6361 61.1542 96.6242 61.5067 96.6003 61.7815C96.5764 62.0563 96.5406 62.2713 96.4928 62.4267C96.445 62.582 96.3793 62.6895 96.2956 62.7493C96.2239 62.809 96.1284 62.8389 96.0089 62.8389C95.9133 62.8389 95.8058 62.821 95.6863 62.7851C95.5668 62.7373 95.4294 62.6895 95.2741 62.6417C95.1307 62.5939 94.9694 62.5521 94.7902 62.5163C94.6109 62.4685 94.4138 62.4446 94.1987 62.4446C93.9478 62.4446 93.6969 62.4984 93.446 62.6059C93.1951 62.7015 92.9322 62.8568 92.6574 63.0719C92.3946 63.2869 92.1138 63.5737 91.8151 63.9321C91.5283 64.2906 91.2177 64.7327 90.8831 65.2584V75.2231C90.8831 75.3426 90.8473 75.4501 90.7756 75.5457C90.7039 75.6293 90.5785 75.701 90.3992 75.7608C90.232 75.8205 90.0049 75.8623 89.7182 75.8862C89.4314 75.9221 89.067 75.94 88.6249 75.94C88.1829 75.94 87.8184 75.9221 87.5317 75.8862C87.2449 75.8623 87.0119 75.8205 86.8327 75.7608C86.6654 75.701 86.546 75.6293 86.4743 75.5457C86.4026 75.4501 86.3667 75.3426 86.3667 75.2231V59.2365C86.3667 59.117 86.3966 59.0155 86.4564 58.9318C86.5161 58.8363 86.6236 58.7586 86.779 58.6989C86.9343 58.6391 87.1314 58.5973 87.3704 58.5734C87.6213 58.5376 87.9319 58.5196 88.3023 58.5196C88.6847 58.5196 89.0013 58.5376 89.2522 58.5734C89.5031 58.5973 89.6943 58.6391 89.8257 58.6989C89.9691 58.7586 90.0707 58.8363 90.1304 58.9318C90.1901 59.0155 90.22 59.117 90.22 59.2365V61.2259C90.6382 60.6285 91.0325 60.1386 91.4029 59.7563C91.7733 59.362 92.1257 59.0513 92.4603 58.8243C92.7948 58.5973 93.1294 58.442 93.4639 58.3583C93.7985 58.2627 94.133 58.215 94.4676 58.215C94.6229 58.215 94.7902 58.2269 94.9694 58.2508C95.1486 58.2627 95.3338 58.2926 95.525 58.3404C95.7161 58.3763 95.8834 58.424 96.0268 58.4838C96.1702 58.5316 96.2717 58.5853 96.3315 58.6451C96.4032 58.7048 96.451 58.7705 96.4748 58.8422C96.5107 58.9139 96.5406 59.0155 96.5645 59.1469C96.5884 59.2664 96.6063 59.4516 96.6182 59.7025C96.6302 59.9534 96.6361 60.2939 96.6361 60.7241Z" fill="#00555C"/>
<path d="M111.917 66.7638C111.917 67.3134 111.791 67.7197 111.54 67.9825C111.301 68.2454 110.967 68.3768 110.537 68.3768H100.805C100.805 69.0579 100.883 69.6792 101.038 70.2407C101.205 70.7903 101.462 71.2623 101.808 71.6566C102.167 72.0389 102.621 72.3317 103.171 72.5348C103.732 72.7379 104.401 72.8395 105.178 72.8395C105.966 72.8395 106.659 72.7857 107.257 72.6782C107.854 72.5587 108.368 72.4332 108.798 72.3018C109.24 72.1584 109.605 72.033 109.891 71.9254C110.178 71.8059 110.411 71.7462 110.59 71.7462C110.698 71.7462 110.787 71.7701 110.859 71.8179C110.931 71.8537 110.991 71.9254 111.038 72.033C111.086 72.1405 111.116 72.2958 111.128 72.4989C111.152 72.6901 111.164 72.935 111.164 73.2337C111.164 73.4966 111.158 73.7236 111.146 73.9148C111.134 74.094 111.116 74.2493 111.092 74.3808C111.068 74.5122 111.032 74.6257 110.985 74.7213C110.937 74.8049 110.871 74.8886 110.787 74.9722C110.716 75.0558 110.507 75.1693 110.16 75.3127C109.814 75.4561 109.372 75.5995 108.834 75.7428C108.296 75.8743 107.681 75.9878 106.988 76.0834C106.295 76.1909 105.554 76.2447 104.766 76.2447C103.344 76.2447 102.095 76.0654 101.02 75.707C99.9565 75.3486 99.0664 74.8049 98.3495 74.0761C97.6326 73.3472 97.095 72.4272 96.7365 71.3161C96.39 70.2049 96.2168 68.9025 96.2168 67.409C96.2168 65.9872 96.402 64.7088 96.7724 63.5737C97.1427 62.4267 97.6804 61.4589 98.3853 60.6703C99.0903 59.8698 99.9446 59.2604 100.948 58.8422C101.964 58.424 103.105 58.215 104.371 58.215C105.71 58.215 106.851 58.4121 107.794 58.8064C108.75 59.2007 109.533 59.7503 110.142 60.4552C110.752 61.1482 111.2 61.9726 111.486 62.9285C111.773 63.8843 111.917 64.9238 111.917 66.0469V66.7638ZM107.544 65.4734C107.579 64.2069 107.323 63.2152 106.773 62.4984C106.235 61.7695 105.399 61.4051 104.264 61.4051C103.69 61.4051 103.188 61.5126 102.758 61.7277C102.34 61.9428 101.988 62.2355 101.701 62.6059C101.426 62.9643 101.211 63.3945 101.056 63.8963C100.912 64.3862 100.829 64.9119 100.805 65.4734H107.544Z" fill="#00555C"/>
<path d="M118.326 75.2231C118.326 75.3426 118.29 75.4501 118.218 75.5457C118.146 75.6293 118.021 75.701 117.842 75.7608C117.674 75.8205 117.447 75.8623 117.161 75.8862C116.874 75.9221 116.509 75.94 116.067 75.94C115.625 75.94 115.261 75.9221 114.974 75.8862C114.687 75.8623 114.454 75.8205 114.275 75.7608C114.108 75.701 113.988 75.6293 113.917 75.5457C113.845 75.4501 113.809 75.3426 113.809 75.2231V59.2724C113.809 59.1529 113.845 59.0513 113.917 58.9677C113.988 58.8721 114.108 58.7944 114.275 58.7347C114.454 58.663 114.687 58.6092 114.974 58.5734C115.261 58.5376 115.625 58.5196 116.067 58.5196C116.509 58.5196 116.874 58.5376 117.161 58.5734C117.447 58.6092 117.674 58.663 117.842 58.7347C118.021 58.7944 118.146 58.8721 118.218 58.9677C118.29 59.0513 118.326 59.1529 118.326 59.2724V75.2231ZM118.666 53.824C118.666 54.7321 118.481 55.3594 118.11 55.7059C117.74 56.0523 117.053 56.2256 116.049 56.2256C115.034 56.2256 114.347 56.0583 113.988 55.7238C113.642 55.3892 113.469 54.7858 113.469 53.9136C113.469 53.0056 113.648 52.3783 114.006 52.0318C114.377 51.6734 115.07 51.4941 116.085 51.4941C117.089 51.4941 117.77 51.6674 118.128 52.0139C118.487 52.3484 118.666 52.9518 118.666 53.824Z" fill="#00555C"/>
<path d="M131.276 60.7241C131.276 61.1542 131.264 61.5067 131.24 61.7815C131.216 62.0563 131.181 62.2713 131.133 62.4267C131.085 62.582 131.019 62.6895 130.936 62.7493C130.864 62.809 130.768 62.8389 130.649 62.8389C130.553 62.8389 130.446 62.821 130.326 62.7851C130.207 62.7373 130.069 62.6895 129.914 62.6417C129.771 62.5939 129.609 62.5521 129.43 62.5163C129.251 62.4685 129.054 62.4446 128.839 62.4446C128.588 62.4446 128.337 62.4984 128.086 62.6059C127.835 62.7015 127.572 62.8568 127.297 63.0719C127.035 63.2869 126.754 63.5737 126.455 63.9321C126.168 64.2906 125.858 64.7327 125.523 65.2584V75.2231C125.523 75.3426 125.487 75.4501 125.416 75.5457C125.344 75.6293 125.218 75.701 125.039 75.7608C124.872 75.8205 124.645 75.8623 124.358 75.8862C124.071 75.9221 123.707 75.94 123.265 75.94C122.823 75.94 122.458 75.9221 122.172 75.8862C121.885 75.8623 121.652 75.8205 121.473 75.7608C121.305 75.701 121.186 75.6293 121.114 75.5457C121.043 75.4501 121.007 75.3426 121.007 75.2231V59.2365C121.007 59.117 121.037 59.0155 121.096 58.9318C121.156 58.8363 121.264 58.7586 121.419 58.6989C121.574 58.6391 121.771 58.5973 122.01 58.5734C122.261 58.5376 122.572 58.5196 122.942 58.5196C123.325 58.5196 123.641 58.5376 123.892 58.5734C124.143 58.5973 124.334 58.6391 124.466 58.6989C124.609 58.7586 124.711 58.8363 124.77 58.9318C124.83 59.0155 124.86 59.117 124.86 59.2365V61.2259C125.278 60.6285 125.672 60.1386 126.043 59.7563C126.413 59.362 126.766 59.0513 127.1 58.8243C127.435 58.5973 127.769 58.442 128.104 58.3583C128.438 58.2627 128.773 58.215 129.108 58.215C129.263 58.215 129.43 58.2269 129.609 58.2508C129.789 58.2627 129.974 58.2926 130.165 58.3404C130.356 58.3763 130.523 58.424 130.667 58.4838C130.81 58.5316 130.912 58.5853 130.971 58.6451C131.043 58.7048 131.091 58.7705 131.115 58.8422C131.151 58.9139 131.181 59.0155 131.204 59.1469C131.228 59.2664 131.246 59.4516 131.258 59.7025C131.27 59.9534 131.276 60.2939 131.276 60.7241Z" fill="#00555C"/>
<path d="M145.015 75.2769C145.015 75.4441 144.956 75.5756 144.836 75.6712C144.717 75.7667 144.525 75.8325 144.263 75.8683C144.012 75.9161 143.635 75.94 143.133 75.94C142.596 75.94 142.201 75.9161 141.951 75.8683C141.712 75.8325 141.538 75.7667 141.431 75.6712C141.335 75.5756 141.287 75.4441 141.287 75.2769V74.0044C140.63 74.7093 139.878 75.2589 139.029 75.6532C138.193 76.0475 137.261 76.2447 136.233 76.2447C135.385 76.2447 134.602 76.1312 133.886 75.9041C133.181 75.6891 132.565 75.3665 132.04 74.9363C131.526 74.4943 131.126 73.9506 130.839 73.3054C130.552 72.6602 130.409 71.9075 130.409 71.0472C130.409 70.1153 130.588 69.3088 130.946 68.6277C131.317 67.9347 131.86 67.3672 132.577 66.9251C133.306 66.4711 134.208 66.1366 135.284 65.9215C136.359 65.7064 137.607 65.5989 139.029 65.5989H140.588V64.6311C140.588 64.1293 140.535 63.6932 140.427 63.3228C140.332 62.9404 140.164 62.6238 139.925 62.3729C139.698 62.122 139.388 61.9368 138.993 61.8173C138.611 61.6978 138.133 61.6381 137.56 61.6381C136.807 61.6381 136.132 61.7217 135.534 61.889C134.949 62.0563 134.429 62.2415 133.975 62.4446C133.521 62.6477 133.139 62.8329 132.828 63.0002C132.529 63.1674 132.285 63.2511 132.093 63.2511C131.962 63.2511 131.842 63.2093 131.735 63.1256C131.639 63.042 131.556 62.9225 131.484 62.7672C131.424 62.6119 131.376 62.4207 131.341 62.1937C131.305 61.9667 131.287 61.7158 131.287 61.4409C131.287 61.0706 131.317 60.7778 131.376 60.5628C131.436 60.3477 131.55 60.1565 131.717 59.9893C131.884 59.81 132.177 59.6189 132.595 59.4157C133.013 59.2007 133.503 59.0035 134.065 58.8243C134.626 58.6451 135.236 58.5017 135.893 58.3942C136.562 58.2747 137.249 58.215 137.954 58.215C139.208 58.215 140.278 58.3404 141.162 58.5913C142.058 58.8303 142.793 59.2066 143.366 59.7204C143.94 60.2222 144.358 60.8734 144.621 61.6739C144.884 62.4745 145.015 63.4243 145.015 64.5236V75.2769ZM140.588 68.4306H138.868C138.139 68.4306 137.518 68.4844 137.004 68.5919C136.49 68.6994 136.072 68.8607 135.749 69.0758C135.427 69.2909 135.188 69.5537 135.033 69.8644C134.889 70.1631 134.818 70.5096 134.818 70.9039C134.818 71.5729 135.027 72.0987 135.445 72.481C135.875 72.8633 136.466 73.0545 137.219 73.0545C137.852 73.0545 138.432 72.8932 138.958 72.5706C139.495 72.248 140.039 71.7761 140.588 71.1548V68.4306Z" fill="#00555C"/>
<path d="M153.001 73.2517C153.001 74.3628 152.804 75.1096 152.41 75.4919C152.028 75.8743 151.335 76.0654 150.331 76.0654C149.327 76.0654 148.634 75.8802 148.252 75.5099C147.87 75.1275 147.678 74.4106 147.678 73.3592C147.678 72.2361 147.87 71.4833 148.252 71.101C148.646 70.7187 149.351 70.5275 150.367 70.5275C151.359 70.5275 152.046 70.7187 152.428 71.101C152.81 71.4714 153.001 72.1883 153.001 73.2517Z" fill="#00A98A"/>
<path d="M44.4651 15.8342C44.4651 16.5207 44.3744 17.1089 44.1932 17.5987C44.0158 18.0846 43.7593 18.4819 43.4238 18.7904C43.0882 19.0989 42.6794 19.3265 42.1973 19.473C41.7191 19.6157 41.1483 19.6871 40.4849 19.6871H38.6973C38.5701 19.6871 38.4621 19.6504 38.3734 19.5772C38.2885 19.5 38.2461 19.3766 38.2461 19.2069V12.6813C38.2461 12.5116 38.2885 12.3902 38.3734 12.3169C38.4621 12.2397 38.5701 12.2012 38.6973 12.2012H40.618C41.2852 12.2012 41.8502 12.2802 42.313 12.4384C42.7797 12.5926 43.1711 12.824 43.4874 13.1326C43.8075 13.4373 44.0505 13.8152 44.2163 14.2665C44.3822 14.7177 44.4651 15.2403 44.4651 15.8342ZM42.8915 15.8863C42.8915 15.5315 42.8491 15.2017 42.7643 14.897C42.6833 14.5923 42.5502 14.3282 42.3651 14.1045C42.1838 13.8808 41.9486 13.7072 41.6593 13.5838C41.3739 13.4565 40.9979 13.3929 40.5312 13.3929H39.7618V18.4838H40.5543C40.9709 18.4838 41.3218 18.4298 41.6072 18.3218C41.8926 18.2138 42.1298 18.0518 42.3188 17.8359C42.5116 17.616 42.6543 17.3441 42.7469 17.0202C42.8433 16.6962 42.8915 16.3182 42.8915 15.8863Z" fill="#00555C"/>
<path d="M48.7708 14.8102C48.7708 14.9491 48.7669 15.0629 48.7592 15.1516C48.7515 15.2403 48.7399 15.3097 48.7245 15.3598C48.7091 15.41 48.6879 15.4447 48.6609 15.464C48.6377 15.4832 48.6069 15.4929 48.5683 15.4929C48.5375 15.4929 48.5028 15.4871 48.4642 15.4755C48.4256 15.4601 48.3813 15.4447 48.3311 15.4293C48.2849 15.4138 48.2328 15.4003 48.1749 15.3888C48.1171 15.3733 48.0534 15.3656 47.984 15.3656C47.903 15.3656 47.822 15.383 47.7411 15.4177C47.6601 15.4485 47.5752 15.4987 47.4865 15.5681C47.4017 15.6375 47.311 15.7301 47.2146 15.8458C47.122 15.9615 47.0218 16.1042 46.9138 16.2739V19.4904C46.9138 19.529 46.9022 19.5637 46.8791 19.5945C46.8559 19.6215 46.8154 19.6447 46.7576 19.6639C46.7036 19.6832 46.6303 19.6967 46.5378 19.7044C46.4452 19.716 46.3276 19.7218 46.1849 19.7218C46.0422 19.7218 45.9245 19.716 45.832 19.7044C45.7394 19.6967 45.6642 19.6832 45.6064 19.6639C45.5524 19.6447 45.5138 19.6215 45.4907 19.5945C45.4675 19.5637 45.4559 19.529 45.4559 19.4904V14.3301C45.4559 14.2915 45.4656 14.2587 45.4849 14.2317C45.5042 14.2009 45.5389 14.1758 45.589 14.1565C45.6391 14.1373 45.7028 14.1238 45.7799 14.116C45.8609 14.1045 45.9612 14.0987 46.0807 14.0987C46.2041 14.0987 46.3064 14.1045 46.3873 14.116C46.4683 14.1238 46.53 14.1373 46.5725 14.1565C46.6187 14.1758 46.6515 14.2009 46.6708 14.2317C46.6901 14.2587 46.6997 14.2915 46.6997 14.3301V14.9722C46.8347 14.7794 46.962 14.6213 47.0816 14.4979C47.2011 14.3706 47.3149 14.2703 47.4229 14.197C47.5309 14.1238 47.6389 14.0736 47.7468 14.0466C47.8548 14.0158 47.9628 14.0003 48.0708 14.0003C48.1209 14.0003 48.1749 14.0042 48.2328 14.0119C48.2906 14.0158 48.3504 14.0254 48.4121 14.0408C48.4738 14.0524 48.5278 14.0678 48.5741 14.0871C48.6204 14.1025 48.6532 14.1199 48.6725 14.1392C48.6956 14.1585 48.711 14.1797 48.7187 14.2028C48.7303 14.226 48.7399 14.2587 48.7477 14.3012C48.7554 14.3397 48.7612 14.3995 48.765 14.4805C48.7689 14.5615 48.7708 14.6714 48.7708 14.8102Z" fill="#00555C"/>
<path d="M53.6203 19.5077C53.6203 19.5617 53.601 19.6042 53.5625 19.635C53.5239 19.6659 53.4622 19.6871 53.3774 19.6987C53.2964 19.7141 53.1749 19.7218 53.0129 19.7218C52.8393 19.7218 52.7121 19.7141 52.6311 19.6987C52.5539 19.6871 52.498 19.6659 52.4633 19.635C52.4325 19.6042 52.417 19.5617 52.417 19.5077V19.097C52.2049 19.3246 51.9619 19.502 51.6881 19.6292C51.4181 19.7565 51.1173 19.8201 50.7856 19.8201C50.5118 19.8201 50.2592 19.7835 50.0278 19.7102C49.8002 19.6408 49.6016 19.5367 49.4319 19.3978C49.2661 19.2551 49.1369 19.0796 49.0443 18.8714C48.9518 18.6631 48.9055 18.4201 48.9055 18.1425C48.9055 17.8416 48.9633 17.5813 49.079 17.3615C49.1986 17.1378 49.3741 16.9546 49.6055 16.8119C49.8407 16.6653 50.1319 16.5573 50.479 16.4879C50.8261 16.4185 51.2292 16.3838 51.6881 16.3838H52.1914V16.0714C52.1914 15.9094 52.1741 15.7686 52.1393 15.6491C52.1085 15.5257 52.0545 15.4235 51.9774 15.3425C51.9041 15.2615 51.8038 15.2017 51.6765 15.1631C51.5531 15.1246 51.3989 15.1053 51.2137 15.1053C50.9708 15.1053 50.7529 15.1323 50.56 15.1863C50.371 15.2403 50.2033 15.3001 50.0567 15.3656C49.9102 15.4312 49.7867 15.491 49.6865 15.545C49.59 15.599 49.511 15.6259 49.4493 15.6259C49.4069 15.6259 49.3683 15.6124 49.3336 15.5855C49.3027 15.5585 49.2757 15.5199 49.2526 15.4698C49.2333 15.4196 49.2179 15.3579 49.2063 15.2846C49.1947 15.2113 49.1889 15.1304 49.1889 15.0417C49.1889 14.9221 49.1986 14.8276 49.2179 14.7582C49.2372 14.6888 49.2738 14.6271 49.3278 14.5731C49.3818 14.5152 49.4763 14.4535 49.6113 14.3879C49.7462 14.3185 49.9044 14.2549 50.0856 14.197C50.2669 14.1392 50.4636 14.0929 50.6757 14.0582C50.8917 14.0196 51.1135 14.0003 51.341 14.0003C51.746 14.0003 52.0911 14.0408 52.3765 14.1218C52.6658 14.199 52.903 14.3204 53.0881 14.4863C53.2732 14.6483 53.4082 14.8585 53.4931 15.1169C53.5779 15.3753 53.6203 15.6819 53.6203 16.0367V19.5077ZM52.1914 17.2978H51.636C51.4008 17.2978 51.2002 17.3152 51.0344 17.3499C50.8686 17.3846 50.7336 17.4367 50.6294 17.5061C50.5253 17.5755 50.4482 17.6604 50.398 17.7606C50.3518 17.8571 50.3286 17.9689 50.3286 18.0962C50.3286 18.3122 50.3961 18.4819 50.5311 18.6053C50.6699 18.7287 50.8608 18.7904 51.1038 18.7904C51.3082 18.7904 51.4953 18.7383 51.665 18.6342C51.8385 18.5301 52.014 18.3777 52.1914 18.1772V17.2978Z" fill="#00555C"/>
<path d="M56.6128 18.854C56.6128 19.2127 56.5492 19.4538 56.4219 19.5772C56.2985 19.7006 56.0748 19.7623 55.7509 19.7623C55.4269 19.7623 55.2032 19.7025 55.0798 19.583C54.9564 19.4595 54.8947 19.2281 54.8947 18.8887C54.8947 18.5262 54.9564 18.2832 55.0798 18.1598C55.2071 18.0364 55.4346 17.9747 55.7624 17.9747C56.0825 17.9747 56.3043 18.0364 56.4277 18.1598C56.5511 18.2794 56.6128 18.5108 56.6128 18.854Z" fill="#00555C"/>
<path d="M22.5588 3.86876C22.5588 4.65571 22.4135 5.18458 22.123 5.45535C21.8413 5.72613 21.3307 5.86152 20.5912 5.86152C19.8516 5.86152 19.341 5.73036 19.0593 5.46805C18.7776 5.19727 18.6367 4.68956 18.6367 3.94491C18.6367 3.1495 18.7776 2.6164 19.0593 2.34562C19.3498 2.07484 19.8692 1.93945 20.6176 1.93945C21.3483 1.93945 21.8545 2.07484 22.1362 2.34562C22.4179 2.60794 22.5588 3.11565 22.5588 3.86876Z" fill="#00A98A"/>
<path d="M20.2599 14.4132C20.2599 15.3087 20.0946 15.9105 19.764 16.2186C19.4434 16.5268 18.8624 16.6808 18.0209 16.6808C17.1794 16.6808 16.5983 16.5316 16.2777 16.2331C15.9572 15.9249 15.7969 15.3472 15.7969 14.4998C15.7969 13.5947 15.9572 12.9881 16.2777 12.68C16.6083 12.3718 17.1994 12.2178 18.0509 12.2178C18.8824 12.2178 19.4585 12.3718 19.7791 12.68C20.0996 12.9785 20.2599 13.5562 20.2599 14.4132Z" fill="#00A98A"/>
<path d="M15.249 25.2122C15.249 26.5962 14.9935 27.5263 14.4826 28.0025C13.9872 28.4787 13.0892 28.7168 11.7887 28.7168C10.4881 28.7168 9.59016 28.4861 9.09472 28.0248C8.59928 27.5486 8.35156 26.6557 8.35156 25.3462C8.35156 23.9473 8.59928 23.0098 9.09472 22.5336C9.60564 22.0574 10.5191 21.8193 11.8351 21.8193C13.1202 21.8193 14.0104 22.0574 14.5058 22.5336C15.0013 22.995 15.249 23.8878 15.249 25.2122Z" fill="#00A98A"/>
<path d="M11.0613 38.7191C11.0613 40.5372 10.7257 41.7591 10.0545 42.3847C9.40365 43.0103 8.22394 43.323 6.51541 43.323C4.80688 43.323 3.62718 43.02 2.97631 42.414C2.32544 41.7884 2 40.6154 2 38.895C2 37.0573 2.32544 35.8257 2.97631 35.2001C3.64751 34.5745 4.84756 34.2617 6.57643 34.2617C8.26462 34.2617 9.43416 34.5745 10.085 35.2001C10.7359 35.8062 11.0613 36.9791 11.0613 38.7191Z" fill="#00A98A"/>
<path d="M12.407 54.9461C12.407 56.8728 12.0514 58.1676 11.3401 58.8306C10.6503 59.4935 9.40021 59.825 7.58968 59.825C5.77914 59.825 4.52901 59.5039 3.83928 58.8616C3.14955 58.1987 2.80469 56.9557 2.80469 55.1326C2.80469 53.1852 3.14955 51.88 3.83928 51.2171C4.55056 50.5541 5.82225 50.2227 7.65434 50.2227C9.44332 50.2227 10.6827 50.5541 11.3724 51.2171C12.0621 51.8593 12.407 53.1023 12.407 54.9461Z" fill="#00A98A"/>
<path d="M18.9095 70.0322C18.9095 71.7689 18.5889 72.9361 17.9478 73.5336C17.326 74.1312 16.1992 74.43 14.5671 74.43C12.9351 74.43 11.8082 74.1406 11.1865 73.5617C10.5648 72.9641 10.2539 71.8436 10.2539 70.2003C10.2539 68.4449 10.5648 67.2684 11.1865 66.6708C11.8277 66.0732 12.974 65.7744 14.6254 65.7744C16.238 65.7744 17.3552 66.0732 17.9769 66.6708C18.5986 67.2497 18.9095 68.3702 18.9095 70.0322Z" fill="#00A98A"/>
<path d="M23.5 82.9693C23.5 84.1905 23.2746 85.0111 22.8238 85.4313C22.3867 85.8515 21.5943 86.0616 20.4468 86.0616C19.2993 86.0616 18.5069 85.858 18.0698 85.451C17.6326 85.0308 17.4141 84.243 17.4141 83.0875C17.4141 81.8532 17.6326 81.026 18.0698 80.6058C18.5206 80.1857 19.3266 79.9756 20.4878 79.9756C21.6216 79.9756 22.4072 80.1857 22.8443 80.6058C23.2815 81.0129 23.5 81.8007 23.5 82.9693Z" fill="#00A98A"/>
<path d="M23.7726 63.4747C13.2821 44.9935 23.4563 26.2083 23.7726 26.1475L23.2984 28.0321C19.7137 43.1089 22.1209 57.9425 23.7726 63.4747Z" fill="#00555C"/>
</svg>
