<svg width="109" height="61" viewBox="0 0 109 61" fill="none" xmlns="http://www.w3.org/2000/svg">
<path d="M39.4096 17.6138C39.4096 17.8842 39.3956 18.1173 39.3676 18.3131C39.349 18.4996 39.3163 18.6535 39.2697 18.7747C39.2231 18.8866 39.1625 18.9705 39.0879 19.0264C39.0226 19.0824 38.948 19.1104 38.8641 19.1104H34.3323V33.6988C34.3323 33.792 34.2997 33.8759 34.2344 33.9505C34.1785 34.0251 34.0806 34.0857 33.9407 34.1324C33.8008 34.179 33.6097 34.2163 33.3672 34.2443C33.1341 34.2722 32.8404 34.2862 32.486 34.2862C32.1317 34.2862 31.8333 34.2722 31.5909 34.2443C31.3578 34.2163 31.1713 34.179 31.0314 34.1324C30.8915 34.0857 30.789 34.0251 30.7237 33.9505C30.6677 33.8759 30.6398 33.792 30.6398 33.6988V19.1104H26.108C26.0147 19.1104 25.9355 19.0824 25.8702 19.0264C25.8049 18.9705 25.749 18.8866 25.7024 18.7747C25.6557 18.6535 25.6184 18.4996 25.5905 18.3131C25.5718 18.1173 25.5625 17.8842 25.5625 17.6138C25.5625 17.334 25.5718 17.0962 25.5905 16.9004C25.6184 16.7046 25.6557 16.5508 25.7024 16.4389C25.749 16.3176 25.8049 16.2337 25.8702 16.1871C25.9355 16.1311 26.0147 16.1032 26.108 16.1032H38.8641C38.948 16.1032 39.0226 16.1311 39.0879 16.1871C39.1625 16.2337 39.2231 16.3176 39.2697 16.4389C39.3163 16.5508 39.349 16.7046 39.3676 16.9004C39.3956 17.0962 39.4096 17.334 39.4096 17.6138Z" fill="#00555C"/>
<path d="M48.2124 33.7687C48.2124 33.8992 48.1658 34.0018 48.0725 34.0764C47.9793 34.151 47.8301 34.2023 47.625 34.2303C47.4291 34.2676 47.1354 34.2862 46.7438 34.2862C46.3242 34.2862 46.0165 34.2676 45.8206 34.2303C45.6342 34.2023 45.4989 34.151 45.415 34.0764C45.3404 34.0018 45.3031 33.8992 45.3031 33.7687V32.7756C44.7903 33.3258 44.2028 33.7547 43.5408 34.0624C42.888 34.3701 42.1607 34.524 41.3588 34.524C40.6968 34.524 40.086 34.4354 39.5265 34.2582C38.9764 34.0904 38.4961 33.8386 38.0859 33.5029C37.6849 33.1579 37.3725 32.7337 37.1487 32.2301C36.9249 31.7266 36.813 31.1392 36.813 30.4678C36.813 29.7405 36.9529 29.111 37.2327 28.5795C37.5217 28.0387 37.946 27.5958 38.5055 27.2508C39.0743 26.8964 39.7783 26.6354 40.6175 26.4675C41.4567 26.2997 42.4311 26.2157 43.5408 26.2157H44.7576V25.4604C44.7576 25.0688 44.7157 24.7285 44.6318 24.4394C44.5572 24.141 44.4266 23.8939 44.2401 23.6981C44.063 23.5023 43.8205 23.3577 43.5128 23.2645C43.2144 23.1712 42.8414 23.1246 42.3938 23.1246C41.8064 23.1246 41.2795 23.1899 40.8133 23.3204C40.3564 23.451 39.9508 23.5955 39.5965 23.754C39.2421 23.9126 38.9437 24.0571 38.7013 24.1876C38.4682 24.3182 38.277 24.3835 38.1278 24.3835C38.0253 24.3835 37.932 24.3508 37.8481 24.2855C37.7735 24.2203 37.7082 24.127 37.6523 24.0058C37.6056 23.8846 37.5683 23.7354 37.5404 23.5582C37.5124 23.3811 37.4984 23.1852 37.4984 22.9708C37.4984 22.6817 37.5217 22.4533 37.5683 22.2854C37.615 22.1176 37.7036 21.9684 37.8341 21.8378C37.9646 21.698 38.1931 21.5488 38.5195 21.3902C38.8458 21.2224 39.2281 21.0685 39.6664 20.9287C40.1046 20.7888 40.5802 20.6769 41.0931 20.593C41.6152 20.4997 42.1514 20.4531 42.7016 20.4531C43.6806 20.4531 44.5152 20.551 45.2052 20.7468C45.9046 20.9333 46.478 21.2271 46.9256 21.628C47.3732 22.0197 47.6996 22.5278 47.9047 23.1526C48.1098 23.7773 48.2124 24.5187 48.2124 25.3765V33.7687ZM44.7576 28.4257H43.4149C42.8461 28.4257 42.3612 28.4676 41.9602 28.5516C41.5593 28.6355 41.2329 28.7614 40.9812 28.9292C40.7294 29.0971 40.5429 29.3022 40.4217 29.5446C40.3098 29.7778 40.2538 30.0482 40.2538 30.3559C40.2538 30.8781 40.417 31.2883 40.7434 31.5867C41.0791 31.8851 41.5406 32.0343 42.1281 32.0343C42.6223 32.0343 43.0745 31.9084 43.4848 31.6567C43.9044 31.4049 44.3287 31.0366 44.7576 30.5517V28.4257Z" fill="#00555C"/>
<path d="M62.0645 20.7748C62.4562 20.7748 62.7266 20.8587 62.8758 21.0266C63.0343 21.1944 63.1136 21.4369 63.1136 21.7539V33.7267C63.1136 33.82 63.0856 33.9039 63.0296 33.9785C62.9737 34.0438 62.8804 34.0997 62.7499 34.1463C62.6194 34.193 62.4375 34.2256 62.2044 34.2443C61.9806 34.2722 61.7009 34.2862 61.3652 34.2862C61.0202 34.2862 60.7311 34.2722 60.498 34.2443C60.2742 34.2256 60.097 34.193 59.9665 34.1463C59.8359 34.0997 59.7427 34.0438 59.6868 33.9785C59.6308 33.9039 59.6028 33.82 59.6028 33.7267V23.6282H53.9941V29.4887C53.9941 30.1694 54.1013 30.6822 54.3158 31.0273C54.5302 31.3629 54.9125 31.5308 55.4627 31.5308C55.6492 31.5308 55.817 31.5168 55.9662 31.4888C56.1154 31.4515 56.246 31.4142 56.3579 31.3769C56.4791 31.3303 56.577 31.293 56.6516 31.265C56.7355 31.2277 56.8101 31.2091 56.8754 31.2091C56.9313 31.2091 56.9826 31.2277 57.0292 31.265C57.0852 31.293 57.1271 31.3583 57.1551 31.4609C57.1831 31.5541 57.2064 31.6846 57.2251 31.8525C57.253 32.0203 57.267 32.2348 57.267 32.4959C57.267 32.9062 57.2437 33.2185 57.1971 33.433C57.1505 33.6382 57.0852 33.792 57.0013 33.8946C56.9173 33.9878 56.7915 34.0717 56.6236 34.1463C56.4558 34.2116 56.26 34.2676 56.0362 34.3142C55.8217 34.3701 55.5839 34.4121 55.3228 34.4401C55.0711 34.468 54.8146 34.482 54.5535 34.482C53.8542 34.482 53.2481 34.3934 52.7352 34.2163C52.2224 34.0391 51.7981 33.7687 51.4624 33.405C51.1267 33.0321 50.8796 32.5658 50.7211 32.0063C50.5626 31.4469 50.4833 30.7848 50.4833 30.0202V23.6282H48.9867C48.8096 23.6282 48.6744 23.5209 48.5811 23.3065C48.4879 23.0827 48.4412 22.7143 48.4412 22.2015C48.4412 21.9311 48.4506 21.7026 48.4692 21.5161C48.4972 21.3296 48.5345 21.1851 48.5811 21.0825C48.6277 20.9706 48.6837 20.8914 48.749 20.8448C48.8236 20.7981 48.9075 20.7748 49.0007 20.7748H50.4833V17.9914C50.4833 17.8982 50.5067 17.8142 50.5533 17.7396C50.6092 17.665 50.7025 17.6044 50.833 17.5578C50.9729 17.5019 51.1547 17.4646 51.3785 17.4459C51.6116 17.4179 51.896 17.404 52.2317 17.404C52.5767 17.404 52.8611 17.4179 53.0849 17.4459C53.318 17.4646 53.4999 17.5019 53.6304 17.5578C53.761 17.6044 53.8542 17.665 53.9101 17.7396C53.9661 17.8142 53.9941 17.8982 53.9941 17.9914V20.7748H62.0645ZM63.3933 17.0263C63.3933 17.735 63.2488 18.2245 62.9597 18.4949C62.6706 18.7654 62.1345 18.9006 61.3512 18.9006C60.5586 18.9006 60.0224 18.77 59.7427 18.5089C59.4723 18.2478 59.3371 17.7769 59.3371 17.0962C59.3371 16.3876 59.477 15.898 59.7567 15.6276C60.0458 15.3479 60.5866 15.208 61.3792 15.208C62.1624 15.208 62.6939 15.3432 62.9737 15.6136C63.2534 15.8747 63.3933 16.3456 63.3933 17.0263Z" fill="#00555C"/>
<path d="M75.7208 33.7687C75.7208 33.8992 75.6742 34.0018 75.581 34.0764C75.4877 34.151 75.3385 34.2023 75.1334 34.2303C74.9376 34.2676 74.6438 34.2862 74.2522 34.2862C73.8326 34.2862 73.5249 34.2676 73.3291 34.2303C73.1426 34.2023 73.0074 34.151 72.9235 34.0764C72.8489 34.0018 72.8116 33.8992 72.8116 33.7687V32.7756C72.2987 33.3258 71.7113 33.7547 71.0492 34.0624C70.3965 34.3701 69.6692 34.524 68.8672 34.524C68.2052 34.524 67.5944 34.4354 67.0349 34.2582C66.4848 34.0904 66.0046 33.8386 65.5943 33.5029C65.1933 33.1579 64.881 32.7337 64.6572 32.2301C64.4334 31.7266 64.3215 31.1392 64.3215 30.4678C64.3215 29.7405 64.4613 29.111 64.7411 28.5795C65.0301 28.0387 65.4544 27.5958 66.0139 27.2508C66.5827 26.8964 67.2867 26.6354 68.1259 26.4675C68.9651 26.2997 69.9396 26.2157 71.0492 26.2157H72.2661V25.4604C72.2661 25.0688 72.2241 24.7285 72.1402 24.4394C72.0656 24.141 71.935 23.8939 71.7485 23.6981C71.5714 23.5023 71.3289 23.3577 71.0212 23.2645C70.7228 23.1712 70.3499 23.1246 69.9023 23.1246C69.3148 23.1246 68.788 23.1899 68.3217 23.3204C67.8648 23.451 67.4592 23.5955 67.1049 23.754C66.7505 23.9126 66.4522 24.0571 66.2097 24.1876C65.9766 24.3182 65.7854 24.3835 65.6362 24.3835C65.5337 24.3835 65.4404 24.3508 65.3565 24.2855C65.2819 24.2203 65.2166 24.127 65.1607 24.0058C65.1141 23.8846 65.0768 23.7354 65.0488 23.5582C65.0208 23.3811 65.0068 23.1852 65.0068 22.9708C65.0068 22.6817 65.0301 22.4533 65.0768 22.2854C65.1234 22.1176 65.212 21.9684 65.3425 21.8378C65.4731 21.698 65.7015 21.5488 66.0279 21.3902C66.3542 21.2224 66.7366 21.0685 67.1748 20.9287C67.6131 20.7888 68.0886 20.6769 68.6015 20.593C69.1237 20.4997 69.6598 20.4531 70.21 20.4531C71.1891 20.4531 72.0236 20.551 72.7136 20.7468C73.413 20.9333 73.9865 21.2271 74.434 21.628C74.8816 22.0197 75.208 22.5278 75.4131 23.1526C75.6183 23.7773 75.7208 24.5187 75.7208 25.3765V33.7687ZM72.2661 28.4257H70.9233C70.3545 28.4257 69.8696 28.4676 69.4687 28.5516C69.0677 28.6355 68.7414 28.7614 68.4896 28.9292C68.2378 29.0971 68.0513 29.3022 67.9301 29.5446C67.8182 29.7778 67.7623 30.0482 67.7623 30.3559C67.7623 30.8781 67.9254 31.2883 68.2518 31.5867C68.5875 31.8851 69.0491 32.0343 69.6365 32.0343C70.1307 32.0343 70.583 31.9084 70.9933 31.6567C71.4129 31.4049 71.8371 31.0366 72.2661 30.5517V28.4257Z" fill="#00555C"/>
<path d="M89.5869 33.7267C89.5869 33.82 89.559 33.9039 89.503 33.9785C89.4471 34.0438 89.3538 34.0997 89.2233 34.1463C89.0927 34.193 88.9109 34.2256 88.6778 34.2443C88.454 34.2722 88.1743 34.2862 87.8386 34.2862C87.4936 34.2862 87.2045 34.2722 86.9714 34.2443C86.7476 34.2256 86.5704 34.193 86.4399 34.1463C86.3093 34.0997 86.2161 34.0438 86.1601 33.9785C86.1042 33.9039 86.0762 33.82 86.0762 33.7267V26.6074C86.0762 26.0013 86.0296 25.5257 85.9364 25.1807C85.8524 24.8357 85.7265 24.542 85.5587 24.2995C85.3909 24.0478 85.1717 23.8566 84.9013 23.7261C84.6402 23.5862 84.3325 23.5163 83.9782 23.5163C83.5306 23.5163 83.0784 23.6794 82.6214 24.0058C82.1645 24.3322 81.689 24.8077 81.1948 25.4325V33.7267C81.1948 33.82 81.1668 33.9039 81.1109 33.9785C81.0549 34.0438 80.957 34.0997 80.8171 34.1463C80.6866 34.193 80.5094 34.2256 80.2856 34.2443C80.0618 34.2722 79.7774 34.2862 79.4324 34.2862C79.0874 34.2862 78.803 34.2722 78.5792 34.2443C78.3554 34.2256 78.1736 34.193 78.0337 34.1463C77.9032 34.0997 77.8099 34.0438 77.754 33.9785C77.698 33.9039 77.6701 33.82 77.6701 33.7267V21.2504C77.6701 21.1571 77.6934 21.0779 77.74 21.0126C77.7866 20.938 77.8705 20.8774 77.9918 20.8308C78.113 20.7841 78.2668 20.7515 78.4533 20.7329C78.6491 20.7049 78.8916 20.6909 79.1807 20.6909C79.479 20.6909 79.7261 20.7049 79.922 20.7329C80.1178 20.7515 80.267 20.7841 80.3695 20.8308C80.4814 20.8774 80.5607 20.938 80.6073 21.0126C80.6539 21.0779 80.6773 21.1571 80.6773 21.2504V22.691C81.3673 21.9451 82.0666 21.3856 82.7753 21.0126C83.4933 20.6396 84.2393 20.4531 85.0132 20.4531C85.8618 20.4531 86.5751 20.593 87.1532 20.8727C87.7407 21.1525 88.2116 21.5348 88.5659 22.0197C88.9296 22.4952 89.1906 23.0547 89.3492 23.6981C89.5077 24.3415 89.5869 25.1154 89.5869 26.0199V33.7267Z" fill="#00555C"/>
<path d="M102.11 33.7687C102.11 33.8992 102.064 34.0018 101.97 34.0764C101.877 34.151 101.728 34.2023 101.523 34.2303C101.327 34.2676 101.033 34.2862 100.642 34.2862C100.222 34.2862 99.9144 34.2676 99.7185 34.2303C99.5321 34.2023 99.3968 34.151 99.3129 34.0764C99.2383 34.0018 99.201 33.8992 99.201 33.7687V32.7756C98.6882 33.3258 98.1007 33.7547 97.4387 34.0624C96.7859 34.3701 96.0586 34.524 95.2567 34.524C94.5947 34.524 93.9839 34.4354 93.4244 34.2582C92.8743 34.0904 92.394 33.8386 91.9838 33.5029C91.5828 33.1579 91.2704 32.7337 91.0466 32.2301C90.8228 31.7266 90.7109 31.1392 90.7109 30.4678C90.7109 29.7405 90.8508 29.111 91.1306 28.5795C91.4196 28.0387 91.8439 27.5958 92.4034 27.2508C92.9722 26.8964 93.6762 26.6354 94.5154 26.4675C95.3546 26.2997 96.329 26.2157 97.4387 26.2157H98.6555V25.4604C98.6555 25.0688 98.6136 24.7285 98.5297 24.4394C98.4551 24.141 98.3245 23.8939 98.138 23.6981C97.9608 23.5023 97.7184 23.3577 97.4107 23.2645C97.1123 23.1712 96.7393 23.1246 96.2917 23.1246C95.7043 23.1246 95.1774 23.1899 94.7112 23.3204C94.2543 23.451 93.8487 23.5955 93.4943 23.754C93.14 23.9126 92.8416 24.0571 92.5992 24.1876C92.3661 24.3182 92.1749 24.3835 92.0257 24.3835C91.9231 24.3835 91.8299 24.3508 91.746 24.2855C91.6714 24.2203 91.6061 24.127 91.5502 24.0058C91.5035 23.8846 91.4662 23.7354 91.4383 23.5582C91.4103 23.3811 91.3963 23.1852 91.3963 22.9708C91.3963 22.6817 91.4196 22.4533 91.4662 22.2854C91.5129 22.1176 91.6014 21.9684 91.732 21.8378C91.8625 21.698 92.091 21.5488 92.4173 21.3902C92.7437 21.2224 93.126 21.0685 93.5643 20.9287C94.0025 20.7888 94.4781 20.6769 94.991 20.593C95.5131 20.4997 96.0493 20.4531 96.5994 20.4531C97.5785 20.4531 98.4131 20.551 99.1031 20.7468C99.8025 20.9333 100.376 21.2271 100.824 21.628C101.271 22.0197 101.597 22.5278 101.803 23.1526C102.008 23.7773 102.11 24.5187 102.11 25.3765V33.7687ZM98.6555 28.4257H97.3128C96.744 28.4257 96.2591 28.4676 95.8581 28.5516C95.4572 28.6355 95.1308 28.7614 94.8791 28.9292C94.6273 29.0971 94.4408 29.3022 94.3196 29.5446C94.2077 29.7778 94.1517 30.0482 94.1517 30.3559C94.1517 30.8781 94.3149 31.2883 94.6413 31.5867C94.977 31.8851 95.4385 32.0343 96.026 32.0343C96.5202 32.0343 96.9724 31.9084 97.3827 31.6567C97.8023 31.4049 98.2266 31.0366 98.6555 30.5517V28.4257Z" fill="#00555C"/>
<path d="M39.6445 37.7363C39.6445 37.9933 39.6316 38.2117 39.6059 38.3916C39.5888 38.5629 39.5545 38.7 39.5031 38.8027C39.4603 38.9055 39.4089 38.9826 39.3489 39.034C39.289 39.0854 39.2205 39.1111 39.1434 39.1111H33.7084V43.5824H38.8093C38.8864 43.5824 38.9549 43.6038 39.0149 43.6467C39.0748 43.6895 39.1262 43.7623 39.1691 43.8651C39.2205 43.9679 39.2547 44.1049 39.2719 44.2762C39.2976 44.4476 39.3104 44.6617 39.3104 44.9187C39.3104 45.1756 39.2976 45.3898 39.2719 45.5611C39.2547 45.7324 39.2205 45.8737 39.1691 45.9851C39.1262 46.0965 39.0748 46.1778 39.0149 46.2292C38.9549 46.272 38.8864 46.2935 38.8093 46.2935H33.7084V52.4865C33.7084 52.5807 33.6827 52.6621 33.6313 52.7306C33.5799 52.7991 33.4857 52.8591 33.3487 52.9105C33.2202 52.9533 33.0489 52.9876 32.8347 53.0133C32.6206 53.039 32.3465 53.0518 32.0124 53.0518C31.6869 53.0518 31.4128 53.039 31.1901 53.0133C30.976 52.9876 30.8047 52.9533 30.6762 52.9105C30.5477 52.8591 30.4535 52.7991 30.3935 52.7306C30.3421 52.6621 30.3164 52.5807 30.3164 52.4865V37.4151C30.3164 37.0382 30.4106 36.7684 30.5991 36.6056C30.7961 36.4343 31.0359 36.3487 31.3186 36.3487H39.1434C39.2205 36.3487 39.289 36.3744 39.3489 36.4258C39.4089 36.4686 39.4603 36.5457 39.5031 36.657C39.5545 36.7598 39.5888 36.9012 39.6059 37.081C39.6316 37.2609 39.6445 37.4793 39.6445 37.7363Z" fill="#00555C"/>
<path d="M51.0874 46.4733C51.0874 46.8674 50.9974 47.1586 50.8176 47.347C50.6463 47.5355 50.4064 47.6297 50.0981 47.6297H43.1213C43.1213 48.118 43.177 48.5634 43.2883 48.966C43.4082 49.36 43.5924 49.6983 43.8408 49.981C44.0978 50.2551 44.4233 50.465 44.8173 50.6106C45.2199 50.7562 45.6996 50.829 46.2563 50.829C46.8217 50.829 47.3185 50.7905 47.7468 50.7134C48.175 50.6277 48.5434 50.5378 48.8517 50.4435C49.1687 50.3408 49.4299 50.2508 49.6355 50.1737C49.8411 50.0881 50.0081 50.0452 50.1366 50.0452C50.2137 50.0452 50.2779 50.0624 50.3293 50.0966C50.3807 50.1223 50.4235 50.1737 50.4578 50.2508C50.4921 50.3279 50.5135 50.4393 50.5221 50.5849C50.5392 50.7219 50.5478 50.8975 50.5478 51.1117C50.5478 51.3001 50.5435 51.4629 50.5349 51.5999C50.5263 51.7284 50.5135 51.8398 50.4964 51.934C50.4792 52.0282 50.4535 52.1096 50.4193 52.1781C50.385 52.2381 50.3379 52.298 50.2779 52.358C50.2265 52.4179 50.0766 52.4993 49.8282 52.6021C49.5798 52.7049 49.2629 52.8077 48.8774 52.9105C48.492 53.0047 48.0508 53.0861 47.554 53.1546C47.0572 53.2317 46.5262 53.2702 45.9608 53.2702C44.9415 53.2702 44.0464 53.1417 43.2755 52.8848C42.5131 52.6278 41.875 52.2381 41.361 51.7156C40.8471 51.193 40.4616 50.5335 40.2047 49.7369C39.9563 48.9403 39.8321 48.0066 39.8321 46.9359C39.8321 45.9166 39.9648 45 40.2304 44.1863C40.4959 43.364 40.8813 42.6702 41.3867 42.1048C41.8921 41.5309 42.5046 41.0941 43.2241 40.7943C43.9522 40.4945 44.7702 40.3446 45.6781 40.3446C46.6375 40.3446 47.4555 40.4859 48.1322 40.7686C48.8175 41.0512 49.3785 41.4453 49.8154 41.9506C50.2522 42.4475 50.5734 43.0385 50.779 43.7237C50.9846 44.409 51.0874 45.1542 51.0874 45.9594V46.4733ZM47.9523 45.5482C47.978 44.6403 47.7939 43.9293 47.3999 43.4154C47.0144 42.8929 46.4148 42.6316 45.6011 42.6316C45.1899 42.6316 44.8301 42.7087 44.5218 42.8629C44.222 43.0171 43.9693 43.2269 43.7637 43.4925C43.5667 43.7494 43.4125 44.0578 43.3012 44.4176C43.1984 44.7688 43.1384 45.1457 43.1213 45.5482H47.9523Z" fill="#00555C"/>
<path d="M59.8064 42.1434C59.8064 42.4517 59.7979 42.7044 59.7807 42.9014C59.7636 43.0985 59.7379 43.2526 59.7036 43.364C59.6694 43.4753 59.6223 43.5524 59.5623 43.5953C59.5109 43.6381 59.4424 43.6595 59.3567 43.6595C59.2882 43.6595 59.2111 43.6467 59.1255 43.621C59.0398 43.5867 58.9413 43.5524 58.8299 43.5182C58.7271 43.4839 58.6115 43.4539 58.483 43.4282C58.3545 43.394 58.2132 43.3768 58.059 43.3768C57.8791 43.3768 57.6993 43.4154 57.5194 43.4925C57.3395 43.561 57.1511 43.6724 56.954 43.8265C56.7656 43.9807 56.5643 44.1863 56.3502 44.4433C56.1446 44.7002 55.9219 45.0172 55.682 45.3941V52.5379C55.682 52.6235 55.6563 52.7006 55.6049 52.7691C55.5536 52.8291 55.4636 52.8805 55.3351 52.9233C55.2152 52.9661 55.0525 52.9961 54.8469 53.0133C54.6413 53.039 54.38 53.0518 54.0631 53.0518C53.7462 53.0518 53.4849 53.039 53.2794 53.0133C53.0738 52.9961 52.9067 52.9661 52.7783 52.9233C52.6583 52.8805 52.5727 52.8291 52.5213 52.7691C52.4699 52.7006 52.4442 52.6235 52.4442 52.5379V41.0769C52.4442 40.9913 52.4656 40.9185 52.5084 40.8585C52.5513 40.79 52.6284 40.7343 52.7397 40.6915C52.8511 40.6487 52.9924 40.6187 53.1637 40.6015C53.3436 40.5759 53.5663 40.563 53.8318 40.563C54.1059 40.563 54.3329 40.5759 54.5128 40.6015C54.6927 40.6187 54.8297 40.6487 54.924 40.6915C55.0268 40.7343 55.0996 40.79 55.1424 40.8585C55.1852 40.9185 55.2066 40.9913 55.2066 41.0769V42.5031C55.5064 42.0749 55.7891 41.7237 56.0546 41.4496C56.3202 41.1669 56.5729 40.9442 56.8127 40.7814C57.0525 40.6187 57.2924 40.5073 57.5322 40.4474C57.7721 40.3788 58.0119 40.3446 58.2517 40.3446C58.3631 40.3446 58.483 40.3531 58.6115 40.3703C58.74 40.3788 58.8728 40.4003 59.0098 40.4345C59.1469 40.4602 59.2668 40.4945 59.3696 40.5373C59.4724 40.5716 59.5452 40.6101 59.588 40.6529C59.6394 40.6958 59.6737 40.7429 59.6908 40.7943C59.7165 40.8457 59.7379 40.9185 59.755 41.0127C59.7722 41.0984 59.785 41.2311 59.7936 41.411C59.8021 41.5909 59.8064 41.835 59.8064 42.1434Z" fill="#00555C"/>
<path d="M67.8445 42.1434C67.8445 42.4517 67.8359 42.7044 67.8188 42.9014C67.8017 43.0985 67.776 43.2526 67.7417 43.364C67.7074 43.4753 67.6603 43.5524 67.6004 43.5953C67.549 43.6381 67.4804 43.6595 67.3948 43.6595C67.3263 43.6595 67.2492 43.6467 67.1635 43.621C67.0779 43.5867 66.9793 43.5524 66.868 43.5182C66.7652 43.4839 66.6496 43.4539 66.5211 43.4282C66.3926 43.394 66.2513 43.3768 66.0971 43.3768C65.9172 43.3768 65.7373 43.4154 65.5574 43.4925C65.3776 43.561 65.1891 43.6724 64.9921 43.8265C64.8037 43.9807 64.6024 44.1863 64.3882 44.4433C64.1826 44.7002 63.9599 45.0172 63.7201 45.3941V52.5379C63.7201 52.6235 63.6944 52.7006 63.643 52.7691C63.5916 52.8291 63.5017 52.8805 63.3732 52.9233C63.2533 52.9661 63.0905 52.9961 62.8849 53.0133C62.6794 53.039 62.4181 53.0518 62.1012 53.0518C61.7842 53.0518 61.523 53.039 61.3174 53.0133C61.1118 52.9961 60.9448 52.9661 60.8163 52.9233C60.6964 52.8805 60.6107 52.8291 60.5594 52.7691C60.508 52.7006 60.4823 52.6235 60.4823 52.5379V41.0769C60.4823 40.9913 60.5037 40.9185 60.5465 40.8585C60.5893 40.79 60.6664 40.7343 60.7778 40.6915C60.8891 40.6487 61.0305 40.6187 61.2018 40.6015C61.3817 40.5759 61.6044 40.563 61.8699 40.563C62.144 40.563 62.371 40.5759 62.5509 40.6015C62.7308 40.6187 62.8678 40.6487 62.962 40.6915C63.0648 40.7343 63.1376 40.79 63.1805 40.8585C63.2233 40.9185 63.2447 40.9913 63.2447 41.0769V42.5031C63.5445 42.0749 63.8272 41.7237 64.0927 41.4496C64.3582 41.1669 64.6109 40.9442 64.8508 40.7814C65.0906 40.6187 65.3304 40.5073 65.5703 40.4474C65.8101 40.3788 66.05 40.3446 66.2898 40.3446C66.4012 40.3446 66.5211 40.3531 66.6496 40.3703C66.7781 40.3788 66.9108 40.4003 67.0479 40.4345C67.1849 40.4602 67.3048 40.4945 67.4076 40.5373C67.5104 40.5716 67.5832 40.6101 67.6261 40.6529C67.6775 40.6958 67.7117 40.7429 67.7288 40.7943C67.7545 40.8457 67.776 40.9185 67.7931 41.0127C67.8102 41.0984 67.8231 41.2311 67.8316 41.411C67.8402 41.5909 67.8445 41.835 67.8445 42.1434Z" fill="#00555C"/>
<path d="M78.7992 46.4733C78.7992 46.8674 78.7092 47.1586 78.5293 47.347C78.358 47.5355 78.1182 47.6297 77.8098 47.6297H70.8331C70.8331 48.118 70.8887 48.5634 71.0001 48.966C71.12 49.36 71.3042 49.6983 71.5526 49.981C71.8096 50.2551 72.135 50.465 72.5291 50.6106C72.9317 50.7562 73.4113 50.829 73.9681 50.829C74.5334 50.829 75.0303 50.7905 75.4585 50.7134C75.8868 50.6277 76.2552 50.5378 76.5635 50.4435C76.8804 50.3408 77.1417 50.2508 77.3473 50.1737C77.5529 50.0881 77.7199 50.0452 77.8484 50.0452C77.9255 50.0452 77.9897 50.0624 78.0411 50.0966C78.0925 50.1223 78.1353 50.1737 78.1696 50.2508C78.2039 50.3279 78.2253 50.4393 78.2338 50.5849C78.251 50.7219 78.2595 50.8975 78.2595 51.1117C78.2595 51.3001 78.2552 51.4629 78.2467 51.5999C78.2381 51.7284 78.2253 51.8398 78.2081 51.934C78.191 52.0282 78.1653 52.1096 78.131 52.1781C78.0968 52.2381 78.0497 52.298 77.9897 52.358C77.9383 52.4179 77.7884 52.4993 77.54 52.6021C77.2916 52.7049 76.9747 52.8077 76.5892 52.9105C76.2038 53.0047 75.7626 53.0861 75.2658 53.1546C74.769 53.2317 74.2379 53.2702 73.6726 53.2702C72.6533 53.2702 71.7582 53.1417 70.9872 52.8848C70.2249 52.6278 69.5867 52.2381 69.0728 51.7156C68.5589 51.193 68.1734 50.5335 67.9164 49.7369C67.668 48.9403 67.5438 48.0066 67.5438 46.9359C67.5438 45.9166 67.6766 45 67.9421 44.1863C68.2077 43.364 68.5931 42.6702 69.0985 42.1048C69.6039 41.5309 70.2163 41.0941 70.9358 40.7943C71.6639 40.4945 72.482 40.3446 73.3899 40.3446C74.3493 40.3446 75.1673 40.4859 75.844 40.7686C76.5293 41.0512 77.0903 41.4453 77.5272 41.9506C77.964 42.4475 78.2852 43.0385 78.4908 43.7237C78.6964 44.409 78.7992 45.1542 78.7992 45.9594V46.4733ZM75.6641 45.5482C75.6898 44.6403 75.5057 43.9293 75.1116 43.4154C74.7262 42.8929 74.1266 42.6316 73.3128 42.6316C72.9017 42.6316 72.5419 42.7087 72.2336 42.8629C71.9338 43.0171 71.6811 43.2269 71.4755 43.4925C71.2785 43.7494 71.1243 44.0578 71.0129 44.4176C70.9102 44.7688 70.8502 45.1457 70.8331 45.5482H75.6641Z" fill="#00555C"/>
<path d="M83.3938 52.5379C83.3938 52.6235 83.3681 52.7006 83.3167 52.7691C83.2653 52.8291 83.1754 52.8805 83.0469 52.9233C82.927 52.9661 82.7642 52.9961 82.5587 53.0133C82.3531 53.039 82.0918 53.0518 81.7749 53.0518C81.458 53.0518 81.1967 53.039 80.9911 53.0133C80.7856 52.9961 80.6185 52.9661 80.49 52.9233C80.3701 52.8805 80.2845 52.8291 80.2331 52.7691C80.1817 52.7006 80.156 52.6235 80.156 52.5379V41.1026C80.156 41.017 80.1817 40.9442 80.2331 40.8842C80.2845 40.8157 80.3701 40.76 80.49 40.7172C80.6185 40.6658 80.7856 40.6272 80.9911 40.6015C81.1967 40.5759 81.458 40.563 81.7749 40.563C82.0918 40.563 82.3531 40.5759 82.5587 40.6015C82.7642 40.6272 82.927 40.6658 83.0469 40.7172C83.1754 40.76 83.2653 40.8157 83.3167 40.8842C83.3681 40.9442 83.3938 41.017 83.3938 41.1026V52.5379ZM83.6379 37.1967C83.6379 37.8477 83.5052 38.2974 83.2396 38.5458C82.9741 38.7942 82.4816 38.9184 81.762 38.9184C81.034 38.9184 80.5414 38.7985 80.2845 38.5586C80.0361 38.3188 79.9119 37.8862 79.9119 37.2609C79.9119 36.6099 80.0403 36.1602 80.2973 35.9118C80.5628 35.6549 81.0597 35.5264 81.7877 35.5264C82.5073 35.5264 82.9955 35.6506 83.2525 35.899C83.5095 36.1388 83.6379 36.5714 83.6379 37.1967Z" fill="#00555C"/>
<path d="M92.6782 42.1434C92.6782 42.4517 92.6696 42.7044 92.6525 42.9014C92.6354 43.0985 92.6097 43.2526 92.5754 43.364C92.5411 43.4753 92.494 43.5524 92.4341 43.5953C92.3827 43.6381 92.3141 43.6595 92.2285 43.6595C92.16 43.6595 92.0829 43.6467 91.9972 43.621C91.9116 43.5867 91.8131 43.5524 91.7017 43.5182C91.5989 43.4839 91.4833 43.4539 91.3548 43.4282C91.2263 43.394 91.085 43.3768 90.9308 43.3768C90.7509 43.3768 90.571 43.4154 90.3911 43.4925C90.2113 43.561 90.0228 43.6724 89.8258 43.8265C89.6374 43.9807 89.4361 44.1863 89.2219 44.4433C89.0163 44.7002 88.7936 45.0172 88.5538 45.3941V52.5379C88.5538 52.6235 88.5281 52.7006 88.4767 52.7691C88.4253 52.8291 88.3354 52.8805 88.2069 52.9233C88.087 52.9661 87.9242 52.9961 87.7186 53.0133C87.5131 53.039 87.2518 53.0518 86.9349 53.0518C86.6179 53.0518 86.3567 53.039 86.1511 53.0133C85.9455 52.9961 85.7785 52.9661 85.65 52.9233C85.5301 52.8805 85.4444 52.8291 85.393 52.7691C85.3417 52.7006 85.316 52.6235 85.316 52.5379V41.0769C85.316 40.9913 85.3374 40.9185 85.3802 40.8585C85.423 40.79 85.5001 40.7343 85.6115 40.6915C85.7228 40.6487 85.8642 40.6187 86.0355 40.6015C86.2154 40.5759 86.4381 40.563 86.7036 40.563C86.9777 40.563 87.2047 40.5759 87.3846 40.6015C87.5645 40.6187 87.7015 40.6487 87.7957 40.6915C87.8985 40.7343 87.9713 40.79 88.0142 40.8585C88.057 40.9185 88.0784 40.9913 88.0784 41.0769V42.5031C88.3782 42.0749 88.6609 41.7237 88.9264 41.4496C89.1919 41.1669 89.4446 40.9442 89.6845 40.7814C89.9243 40.6187 90.1641 40.5073 90.404 40.4474C90.6438 40.3788 90.8837 40.3446 91.1235 40.3446C91.2349 40.3446 91.3548 40.3531 91.4833 40.3703C91.6118 40.3788 91.7445 40.4003 91.8816 40.4345C92.0186 40.4602 92.1385 40.4945 92.2413 40.5373C92.3441 40.5716 92.4169 40.6101 92.4598 40.6529C92.5112 40.6958 92.5454 40.7429 92.5625 40.7943C92.5882 40.8457 92.6097 40.9185 92.6268 41.0127C92.6439 41.0984 92.6568 41.2311 92.6653 41.411C92.6739 41.5909 92.6782 41.835 92.6782 42.1434Z" fill="#00555C"/>
<path d="M102.528 52.5764C102.528 52.6963 102.485 52.7906 102.399 52.8591C102.314 52.9276 102.177 52.9747 101.988 53.0004C101.808 53.0347 101.539 53.0518 101.179 53.0518C100.793 53.0518 100.511 53.0347 100.331 53.0004C100.159 52.9747 100.035 52.9276 99.9582 52.8591C99.8897 52.7906 99.8554 52.6963 99.8554 52.5764V51.6642C99.3843 52.1695 98.8446 52.5636 98.2365 52.8462C97.6369 53.1289 96.9687 53.2702 96.2321 53.2702C95.6239 53.2702 95.0629 53.1889 94.5489 53.0261C94.0436 52.8719 93.6024 52.6407 93.2255 52.3323C92.8572 52.0154 92.5703 51.6256 92.3647 51.1631C92.1591 50.7005 92.0563 50.1609 92.0563 49.5441C92.0563 48.876 92.1848 48.2978 92.4418 47.8096C92.7073 47.3128 93.097 46.9059 93.611 46.589C94.1335 46.2635 94.7802 46.0236 95.5511 45.8695C96.322 45.7153 97.2172 45.6382 98.2365 45.6382H99.3543V44.9444C99.3543 44.5846 99.3158 44.272 99.2387 44.0064C99.1701 43.7323 99.0502 43.5053 98.8789 43.3254C98.7162 43.1456 98.4934 43.0128 98.2108 42.9271C97.9367 42.8415 97.594 42.7987 97.1829 42.7987C96.6433 42.7987 96.1593 42.8586 95.731 42.9785C95.3113 43.0985 94.9387 43.2312 94.6132 43.3768C94.2877 43.5225 94.0136 43.6552 93.7909 43.7751C93.5767 43.8951 93.4011 43.955 93.2641 43.955C93.1699 43.955 93.0842 43.925 93.0071 43.8651C92.9386 43.8051 92.8786 43.7195 92.8272 43.6081C92.7844 43.4968 92.7501 43.3597 92.7244 43.197C92.6987 43.0342 92.6859 42.8543 92.6859 42.6573C92.6859 42.3918 92.7073 42.1819 92.7501 42.0277C92.793 41.8736 92.8743 41.7365 92.9943 41.6166C93.1142 41.4881 93.324 41.351 93.6238 41.2054C93.9236 41.0512 94.2748 40.9099 94.6774 40.7814C95.08 40.6529 95.5169 40.5502 95.988 40.4731C96.4677 40.3874 96.9602 40.3446 97.4656 40.3446C98.365 40.3446 99.1316 40.4345 99.7655 40.6144C100.408 40.7857 100.935 41.0555 101.346 41.4239C101.757 41.7836 102.057 42.2504 102.245 42.8243C102.434 43.3983 102.528 44.0792 102.528 44.8673V52.5764ZM99.3543 47.6683H98.1208C97.5983 47.6683 97.1529 47.7068 96.7846 47.7839C96.4163 47.861 96.1165 47.9766 95.8852 48.1308C95.6539 48.285 95.4826 48.4734 95.3712 48.6961C95.2685 48.9103 95.2171 49.1587 95.2171 49.4414C95.2171 49.921 95.367 50.2979 95.6668 50.572C95.9751 50.8461 96.3991 50.9832 96.9388 50.9832C97.3928 50.9832 97.8082 50.8676 98.1851 50.6363C98.5705 50.405 98.9603 50.0667 99.3543 49.6212V47.6683Z" fill="#00555C"/>
<path d="M108.253 51.1245C108.253 51.9211 108.112 52.4565 107.829 52.7306C107.555 53.0047 107.058 53.1417 106.339 53.1417C105.619 53.1417 105.122 53.009 104.848 52.7434C104.574 52.4693 104.437 51.9554 104.437 51.2016C104.437 50.3964 104.574 49.8568 104.848 49.5827C105.131 49.3086 105.636 49.1715 106.364 49.1715C107.075 49.1715 107.568 49.3086 107.842 49.5827C108.116 49.8482 108.253 50.3622 108.253 51.1245Z" fill="#00A98A"/>
<path d="M30.4428 9.961C30.4428 10.4532 30.3778 10.8748 30.2479 11.226C30.1207 11.5743 29.9368 11.8591 29.6963 12.0803C29.4557 12.3015 29.1627 12.4646 28.817 12.5697C28.4742 12.672 28.065 12.7232 27.5894 12.7232H26.3079C26.2166 12.7232 26.1392 12.6969 26.0756 12.6444C26.0148 12.5891 25.9844 12.5006 25.9844 12.3789V7.70068C25.9844 7.57902 26.0148 7.49193 26.0756 7.43939C26.1392 7.38409 26.2166 7.35645 26.3079 7.35645H27.6848C28.1631 7.35645 28.5682 7.41313 28.9 7.52649C29.2345 7.63709 29.5152 7.80298 29.7419 8.02417C29.9714 8.2426 30.1456 8.51357 30.2645 8.83706C30.3834 9.16056 30.4428 9.5352 30.4428 9.961ZM29.3147 9.99833C29.3147 9.74396 29.2843 9.50756 29.2235 9.28913C29.1654 9.0707 29.07 8.8813 28.9373 8.72093C28.8074 8.56057 28.6387 8.43615 28.4313 8.34767C28.2267 8.25643 27.9571 8.21081 27.6226 8.21081H27.071V11.8605H27.6392C27.9378 11.8605 28.1894 11.8218 28.394 11.7444C28.5986 11.667 28.7687 11.5508 28.9041 11.396C29.0424 11.2384 29.1447 11.0435 29.211 10.8112C29.2802 10.579 29.3147 10.308 29.3147 9.99833Z" fill="#00555C"/>
<path d="M33.5296 9.22692C33.5296 9.32645 33.5269 9.40802 33.5213 9.47161C33.5158 9.5352 33.5075 9.58497 33.4964 9.62092C33.4854 9.65686 33.4702 9.68175 33.4508 9.69557C33.4342 9.7094 33.4121 9.71631 33.3845 9.71631C33.3624 9.71631 33.3375 9.71216 33.3098 9.70386C33.2822 9.69281 33.2504 9.68175 33.2144 9.67069C33.1812 9.65963 33.1439 9.64995 33.1024 9.64165C33.061 9.63059 33.0154 9.62506 32.9656 9.62506C32.9075 9.62506 32.8495 9.63751 32.7914 9.66239C32.7333 9.68451 32.6725 9.72045 32.6089 9.77022C32.5481 9.81999 32.4831 9.88635 32.414 9.9693C32.3476 10.0522 32.2757 10.1545 32.1983 10.2762V12.5822C32.1983 12.6098 32.19 12.6347 32.1734 12.6568C32.1568 12.6762 32.1278 12.6927 32.0863 12.7066C32.0476 12.7204 31.9951 12.7301 31.9287 12.7356C31.8624 12.7439 31.7781 12.748 31.6757 12.748C31.5734 12.748 31.4891 12.7439 31.4228 12.7356C31.3564 12.7301 31.3025 12.7204 31.261 12.7066C31.2223 12.6927 31.1947 12.6762 31.1781 12.6568C31.1615 12.6347 31.1532 12.6098 31.1532 12.5822V8.88268C31.1532 8.85503 31.1601 8.83153 31.1739 8.81218C31.1877 8.79006 31.2126 8.77209 31.2486 8.75826C31.2845 8.74444 31.3301 8.73476 31.3854 8.72923C31.4435 8.72093 31.5154 8.71679 31.6011 8.71679C31.6896 8.71679 31.7628 8.72093 31.8209 8.72923C31.879 8.73476 31.9232 8.74444 31.9536 8.75826C31.9868 8.77209 32.0103 8.79006 32.0241 8.81218C32.038 8.83153 32.0449 8.85503 32.0449 8.88268V9.34304C32.1416 9.2048 32.2329 9.09143 32.3186 9.00296C32.4043 8.91171 32.4859 8.83983 32.5633 8.78729C32.6407 8.73476 32.7181 8.69882 32.7955 8.67946C32.873 8.65734 32.9504 8.64628 33.0278 8.64628C33.0637 8.64628 33.1024 8.64905 33.1439 8.65458C33.1854 8.65734 33.2283 8.66425 33.2725 8.67531C33.3167 8.68361 33.3554 8.69467 33.3886 8.70849C33.4218 8.71955 33.4453 8.73199 33.4591 8.74582C33.4757 8.75964 33.4868 8.77485 33.4923 8.79144C33.5006 8.80803 33.5075 8.83153 33.513 8.86195C33.5186 8.8896 33.5227 8.93245 33.5255 8.99052C33.5282 9.04858 33.5296 9.12738 33.5296 9.22692Z" fill="#00555C"/>
<path d="M37.0063 12.5946C37.0063 12.6333 36.9925 12.6637 36.9648 12.6858C36.9372 12.708 36.8929 12.7232 36.8321 12.7315C36.774 12.7425 36.6869 12.748 36.5708 12.748C36.4464 12.748 36.3552 12.7425 36.2971 12.7315C36.2418 12.7232 36.2017 12.708 36.1768 12.6858C36.1547 12.6637 36.1436 12.6333 36.1436 12.5946V12.3001C35.9916 12.4633 35.8174 12.5904 35.6211 12.6817C35.4275 12.7729 35.2119 12.8186 34.9741 12.8186C34.7778 12.8186 34.5967 12.7923 34.4308 12.7398C34.2676 12.69 34.1252 12.6153 34.0036 12.5158C33.8847 12.4135 33.7921 12.2877 33.7257 12.1384C33.6594 11.9891 33.6262 11.8149 33.6262 11.6158C33.6262 11.4001 33.6677 11.2135 33.7506 11.0559C33.8363 10.8955 33.9621 10.7642 34.128 10.6619C34.2967 10.5568 34.5054 10.4794 34.7543 10.4297C35.0031 10.3799 35.292 10.355 35.6211 10.355H35.9819V10.131C35.9819 10.0149 35.9695 9.914 35.9446 9.82829C35.9224 9.73981 35.8837 9.66654 35.8284 9.60848C35.7759 9.55041 35.704 9.50756 35.6128 9.47991C35.5243 9.45226 35.4137 9.43843 35.281 9.43843C35.1068 9.43843 34.9506 9.45779 34.8123 9.4965C34.6769 9.5352 34.5566 9.57806 34.4515 9.62506C34.3464 9.67207 34.258 9.71492 34.1861 9.75363C34.117 9.79234 34.0603 9.8117 34.016 9.8117C33.9856 9.8117 33.958 9.80202 33.9331 9.78267C33.911 9.76331 33.8916 9.73566 33.875 9.69972C33.8612 9.66377 33.8501 9.61953 33.8418 9.567C33.8335 9.51447 33.8294 9.4564 33.8294 9.39281C33.8294 9.3071 33.8363 9.23936 33.8501 9.18959C33.864 9.13982 33.8902 9.09558 33.9289 9.05687C33.9676 9.0154 34.0354 8.97116 34.1322 8.92416C34.2289 8.87439 34.3423 8.82877 34.4722 8.78729C34.6022 8.74582 34.7432 8.71264 34.8953 8.68776C35.0501 8.66011 35.2091 8.64628 35.3722 8.64628C35.6625 8.64628 35.91 8.67531 36.1146 8.73338C36.322 8.78868 36.492 8.87577 36.6247 8.99466C36.7575 9.11079 36.8542 9.26148 36.9151 9.44673C36.9759 9.63198 37.0063 9.85179 37.0063 10.1062V12.5946ZM35.9819 11.0103H35.5837C35.4151 11.0103 35.2713 11.0227 35.1524 11.0476C35.0335 11.0725 34.9368 11.1098 34.8621 11.1596C34.7874 11.2094 34.7321 11.2702 34.6962 11.3421C34.663 11.4112 34.6464 11.4914 34.6464 11.5826C34.6464 11.7375 34.6948 11.8591 34.7916 11.9476C34.8911 12.0361 35.028 12.0803 35.2022 12.0803C35.3487 12.0803 35.4828 12.043 35.6045 11.9683C35.7289 11.8937 35.8547 11.7845 35.9819 11.6407V11.0103Z" fill="#00555C"/>
<path d="M39.1517 12.1259C39.1517 12.3831 39.106 12.5559 39.0148 12.6444C38.9263 12.7328 38.766 12.7771 38.5337 12.7771C38.3014 12.7771 38.1411 12.7342 38.0526 12.6485C37.9641 12.56 37.9199 12.3941 37.9199 12.1508C37.9199 11.8909 37.9641 11.7167 38.0526 11.6283C38.1438 11.5398 38.307 11.4955 38.542 11.4955C38.7715 11.4955 38.9305 11.5398 39.0189 11.6283C39.1074 11.714 39.1517 11.8799 39.1517 12.1259Z" fill="#00555C"/>
<path d="M14.7375 1.38313C14.7375 1.94731 14.6334 2.32646 14.4251 2.52058C14.2232 2.7147 13.8571 2.81177 13.3269 2.81177C12.7968 2.81177 12.4307 2.71774 12.2287 2.52968C12.0268 2.33556 11.9258 1.97157 11.9258 1.43773C11.9258 0.867492 12.0268 0.485311 12.2287 0.291187C12.437 0.0970627 12.8094 0 13.3459 0C13.8697 0 14.2326 0.0970627 14.4346 0.291187C14.6366 0.479244 14.7375 0.843226 14.7375 1.38313Z" fill="#00A98A"/>
<path d="M13.0902 8.94207C13.0902 9.58406 12.9717 10.0155 12.7347 10.2364C12.5049 10.4573 12.0883 10.5678 11.485 10.5678C10.8817 10.5678 10.4652 10.4608 10.2354 10.2468C10.0055 10.0259 9.89062 9.61168 9.89062 9.0042C9.89062 8.35531 10.0055 7.92041 10.2354 7.69951C10.4724 7.47861 10.8961 7.36816 11.5066 7.36816C12.1027 7.36816 12.5157 7.47861 12.7455 7.69951C12.9753 7.91351 13.0902 8.3277 13.0902 8.94207Z" fill="#00A98A"/>
<path d="M9.49952 16.6844C9.49952 17.6765 9.31637 18.3433 8.95009 18.6847C8.59491 19.0261 7.95114 19.1968 7.01878 19.1968C6.08642 19.1968 5.44265 19.0314 5.08746 18.7007C4.73228 18.3593 4.55469 17.7192 4.55469 16.7804C4.55469 15.7775 4.73228 15.1054 5.08746 14.764C5.45375 14.4226 6.10862 14.252 7.05208 14.252C7.97333 14.252 8.61156 14.4226 8.96674 14.764C9.32192 15.0948 9.49952 15.7349 9.49952 16.6844Z" fill="#00A98A"/>
<path d="M6.49615 26.3674C6.49615 27.6708 6.25555 28.5468 5.77435 28.9953C5.30774 29.4438 4.462 29.668 3.23714 29.668C2.01227 29.668 1.16654 29.4508 0.699922 29.0163C0.233307 28.5678 0 27.7269 0 26.4935C0 25.1761 0.233307 24.2931 0.699922 23.8446C1.18112 23.3961 2.04144 23.1719 3.28088 23.1719C4.49116 23.1719 5.32961 23.3961 5.79622 23.8446C6.26284 24.2791 6.49615 25.12 6.49615 26.3674Z" fill="#00A98A"/>
<path d="M7.4621 38.0006C7.4621 39.3818 7.20714 40.3101 6.69722 40.7853C6.20274 41.2606 5.30651 41.4982 4.00852 41.4982C2.71054 41.4982 1.81431 41.268 1.31983 40.8076C0.825361 40.3323 0.578125 39.4412 0.578125 38.1342C0.578125 36.7381 0.825361 35.8024 1.31983 35.3272C1.82976 34.8519 2.74144 34.6143 4.05488 34.6143C5.33742 34.6143 6.22592 34.8519 6.72039 35.3272C7.21487 35.7876 7.4621 36.6787 7.4621 38.0006Z" fill="#00A98A"/>
<path d="M12.1232 48.8161C12.1232 50.0612 11.8934 50.8979 11.4338 51.3263C10.988 51.7547 10.1802 51.9689 9.01016 51.9689C7.84014 51.9689 7.03227 51.7614 6.58655 51.3464C6.14083 50.918 5.91797 50.1147 5.91797 48.9366C5.91797 47.6781 6.14083 46.8347 6.58655 46.4063C7.0462 45.9779 7.868 45.7637 9.05195 45.7637C10.208 45.7637 11.0089 45.9779 11.4547 46.4063C11.9004 46.8213 12.1232 47.6246 12.1232 48.8161Z" fill="#00A98A"/>
<path d="M15.4139 58.0906C15.4139 58.966 15.2523 59.5544 14.9291 59.8556C14.6157 60.1568 14.0476 60.3074 13.225 60.3074C12.4023 60.3074 11.8343 60.1615 11.5209 59.8697C11.2075 59.5685 11.0508 59.0037 11.0508 58.1753C11.0508 57.2904 11.2075 56.6974 11.5209 56.3962C11.8441 56.095 12.4219 55.9443 13.2544 55.9443C14.0672 55.9443 14.6304 56.095 14.9438 56.3962C15.2572 56.688 15.4139 57.2528 15.4139 58.0906Z" fill="#00A98A"/>
<path d="M15.6084 44.1147C8.08762 30.8654 15.3816 17.3981 15.6084 17.3545L15.2684 18.7056C12.6985 29.5143 14.4242 40.1486 15.6084 44.1147Z" fill="#00555C"/>
</svg>
