<svg width="179" height="179" viewBox="0 0 179 179" fill="none" xmlns="http://www.w3.org/2000/svg">
<path d="M21.2834 125.684C21.4181 125.936 21.4826 126.208 21.4767 126.501C21.4709 126.794 21.3959 127.065 21.2518 127.316C21.0939 127.562 20.8708 127.763 20.5824 127.917C20.303 128.066 20.0215 128.135 19.7379 128.125C19.4404 128.11 19.1684 128.023 18.9219 127.865C18.6755 127.707 18.4849 127.502 18.3501 127.25C18.2057 126.98 18.1389 126.703 18.1495 126.419C18.1554 126.126 18.2373 125.857 18.3952 125.61C18.5393 125.36 18.751 125.16 19.0304 125.01C19.3187 124.856 19.6117 124.787 19.9091 124.802C20.1928 124.812 20.4579 124.897 20.7043 125.055C20.946 125.204 21.139 125.413 21.2834 125.684Z" fill="#263333" fill-opacity="0.6"/>
<path d="M37.5113 143.051L27.83 145.906L26.9805 144.921L31.2124 135.752L32.1135 136.796L28.1381 145.137L27.7948 144.739L36.6274 142.027L37.5113 143.051ZM34.6125 143.21L33.5853 143.628L30.2042 139.71L30.7508 138.735L34.6125 143.21Z" fill="#263333" fill-opacity="0.6"/>
<path d="M47.716 151.189L41.982 158.377L41.1401 157.705L41.0961 148.008L41.5376 148.36L36.8276 154.264L35.8008 153.445L41.5348 146.258L42.3767 146.93L42.4207 156.626L41.9792 156.274L46.6893 150.37L47.716 151.189Z" fill="#263333" fill-opacity="0.6"/>
<path d="M56.8109 156.118C57.882 156.678 58.5639 157.424 58.8567 158.358C59.1495 159.291 58.9877 160.348 58.3714 161.528L55.9506 166.161L54.7864 165.553L57.1829 160.966C57.6573 160.058 57.8061 159.291 57.6292 158.665C57.4446 158.035 56.9875 157.529 56.2579 157.148C55.5206 156.763 54.8446 156.677 54.2298 156.889C53.6072 157.097 53.0587 157.655 52.5843 158.563L50.1879 163.15L49.0586 162.56L51.4794 157.927C52.0957 156.747 52.8707 156.011 53.8041 155.718C54.7298 155.421 55.7321 155.555 56.8109 156.118Z" fill="#263333" fill-opacity="0.6"/>
<path d="M70.9468 161.672L68.1519 170.432L66.9006 170.032L69.3481 162.362L64.6055 160.848L64.9528 159.76L70.9468 161.672Z" fill="#263333" fill-opacity="0.6"/>
<path d="M81.4774 163.21C82.1719 163.303 82.803 163.506 83.3708 163.82C83.9299 164.132 84.3988 164.526 84.7775 165C85.155 165.483 85.4278 166.023 85.5959 166.62C85.764 167.216 85.8036 167.849 85.7148 168.517C85.626 169.185 85.4226 169.785 85.1046 170.317C84.7866 170.849 84.3829 171.295 83.8935 171.654C83.403 172.021 82.847 172.283 82.2256 172.439C81.6042 172.595 80.942 172.626 80.2389 172.533C79.5444 172.441 78.922 172.239 78.3715 171.927C77.8112 171.623 77.3424 171.23 76.9648 170.747C76.5775 170.271 76.3041 169.736 76.1447 169.14C75.9766 168.544 75.9376 167.907 76.0275 167.23C76.1175 166.553 76.3214 165.948 76.6395 165.416C76.9488 164.883 77.3531 164.433 77.8523 164.067C78.3416 163.708 78.897 163.45 79.5184 163.295C80.13 163.146 80.783 163.118 81.4774 163.21ZM81.3235 164.369C80.82 164.302 80.3441 164.327 79.8957 164.444C79.4386 164.56 79.0331 164.754 78.679 165.025C78.3152 165.303 78.0182 165.644 77.7881 166.046C77.5493 166.447 77.3965 166.899 77.3296 167.403C77.2627 167.906 77.2921 168.383 77.4179 168.832C77.535 169.281 77.7334 169.683 78.013 170.038C78.2829 170.4 78.6233 170.697 79.0342 170.929C79.4365 171.159 79.8894 171.307 80.3928 171.374C80.905 171.442 81.3896 171.418 81.8467 171.302C82.2951 171.185 82.7012 170.987 83.065 170.709C83.4277 170.439 83.7285 170.104 83.9673 169.703C84.1974 169.3 84.3459 168.847 84.4128 168.344C84.4797 167.84 84.4546 167.365 84.3375 166.916C84.2117 166.467 84.0095 166.06 83.731 165.696C83.4514 165.341 83.1104 165.048 82.7081 164.818C82.2972 164.587 81.8356 164.437 81.3235 164.369Z" fill="#263333" fill-opacity="0.6"/>
<path d="M94.1346 163.564C94.8342 163.528 95.4872 163.608 96.0936 163.805C96.6918 164.01 97.2204 164.312 97.6794 164.709C98.1301 165.115 98.4926 165.596 98.7669 166.152C99.0413 166.707 99.1961 167.326 99.2315 168.009C99.2668 168.691 99.1768 169.322 98.9614 169.903C98.7461 170.484 98.4306 170.996 98.0151 171.439C97.6001 171.89 97.1055 172.244 96.5314 172.502C95.949 172.769 95.308 172.921 94.6084 172.957C93.9001 172.994 93.2422 172.905 92.6349 172.691C92.0192 172.486 91.4893 172.158 91.045 171.708L91.8548 170.837C92.2237 171.187 92.6312 171.437 93.0776 171.589C93.5243 171.75 93.9969 171.818 94.4954 171.792C95.0114 171.765 95.4878 171.653 95.9247 171.455C96.3529 171.257 96.7206 170.993 97.0278 170.661C97.3351 170.33 97.5692 169.94 97.7302 169.494C97.8828 169.056 97.946 168.584 97.9197 168.077C97.8934 167.569 97.7815 167.102 97.5839 166.673C97.3781 166.254 97.1052 165.896 96.7653 165.598C96.4254 165.3 96.0323 165.075 95.586 164.923C95.131 164.771 94.6455 164.708 94.1295 164.735C93.631 164.761 93.1677 164.873 92.7395 165.07C92.3118 165.276 91.9328 165.577 91.6025 165.971L90.707 165.189C91.1023 164.695 91.5953 164.31 92.186 164.033C92.768 163.758 93.4175 163.601 94.1346 163.564Z" fill="#263333" fill-opacity="0.6"/>
<path d="M120.896 157L123.996 165.656L122.982 166.019L116.757 160.868L117.301 160.673L115.81 168.588L114.796 168.951L111.684 160.299L112.871 159.874L115.314 166.659L115.03 166.76L116.388 159.8L116.957 159.597L122.449 164.103L122.14 164.214L119.709 157.425L120.896 157Z" fill="#263333" fill-opacity="0.6"/>
<path d="M131.812 150.767L136.542 158.651L130.977 161.989L130.39 161.009L134.827 158.347L131.273 152.422L126.678 155.179L126.09 154.199L131.812 150.767ZM132.902 154.907L133.476 155.864L129.421 158.297L128.847 157.34L132.902 154.907Z" fill="#263333" fill-opacity="0.6"/>
<path d="M147.971 135.756L151.771 145.107L150.876 146.049L141.332 142.747L142.282 141.747L150.975 144.876L150.614 145.257L147.039 136.737L147.971 135.756ZM148.417 138.625L148.934 139.605L145.371 143.358L144.347 142.911L148.417 138.625Z" fill="#263333" fill-opacity="0.6"/>
<path d="M152.363 129.279L159.025 133.801L160.796 131.193L161.741 131.834L157.47 138.127L156.525 137.485L158.295 134.877L151.633 130.355L152.363 129.279Z" fill="#263333" fill-opacity="0.6"/>
<path d="M157.399 119.566C157.7 118.933 158.082 118.373 158.546 117.886C159.018 117.402 159.487 117.068 159.953 116.882L160.67 117.76C160.243 117.945 159.822 118.24 159.408 118.644C158.993 119.048 158.66 119.515 158.408 120.045C158.179 120.528 158.048 120.945 158.017 121.299C157.985 121.652 158.03 121.945 158.152 122.177C158.282 122.413 158.47 122.59 158.715 122.706C159 122.841 159.274 122.855 159.538 122.748C159.799 122.649 160.052 122.473 160.297 122.221C160.547 121.981 160.796 121.702 161.044 121.384C161.292 121.065 161.554 120.748 161.83 120.433C162.109 120.13 162.404 119.867 162.712 119.646C163.018 119.432 163.352 119.3 163.715 119.249C164.086 119.202 164.493 119.284 164.936 119.495C165.363 119.697 165.702 119.994 165.953 120.384C166.208 120.787 166.332 121.272 166.324 121.84C166.32 122.42 166.145 123.073 165.8 123.801C165.571 124.284 165.28 124.732 164.928 125.147C164.576 125.561 164.199 125.886 163.796 126.122L163.033 125.28C163.439 125.036 163.788 124.741 164.078 124.394C164.377 124.052 164.615 123.694 164.791 123.322C165.013 122.856 165.135 122.444 165.159 122.087C165.183 121.73 165.13 121.433 165 121.197C164.866 120.969 164.677 120.796 164.432 120.68C164.139 120.541 163.862 120.521 163.602 120.62C163.338 120.728 163.085 120.903 162.843 121.147C162.597 121.399 162.347 121.682 162.091 121.997C161.843 122.315 161.583 122.628 161.311 122.935C161.035 123.25 160.745 123.515 160.44 123.728C160.131 123.95 159.795 124.086 159.432 124.137C159.068 124.187 158.669 124.109 158.234 123.903C157.815 123.704 157.478 123.403 157.223 123.001C156.976 122.603 156.856 122.11 156.864 121.522C156.875 120.946 157.054 120.294 157.399 119.566Z" fill="#263333" fill-opacity="0.6"/>
<path d="M161.222 109.765L169.976 112.578L169.574 113.828L160.82 111.015L161.222 109.765Z" fill="#263333" fill-opacity="0.6"/>
<path d="M163.465 98.3975L172.512 100.036L172.278 101.328L164.355 99.8936L163.468 104.792L162.344 104.588L163.465 98.3975Z" fill="#263333" fill-opacity="0.6"/>
<path d="M163.847 83.6162L172.999 87.8723L172.986 89.1726L163.75 93.2568L163.764 91.8777L172.26 88.2458L172.255 88.7711L163.833 84.9691L163.847 83.6162ZM166.128 85.4125L167.175 85.7777L167.123 90.9526L166.068 91.3229L166.128 85.4125Z" fill="#263333" fill-opacity="0.6"/>
<path d="M163.008 77.193L172.126 76.0068L172.295 77.3094L163.177 78.4955L163.008 77.193Z" fill="#263333" fill-opacity="0.6"/>
<path d="M160.681 68.4693C160.494 67.7943 160.431 67.1394 160.491 66.5048C160.562 65.8762 160.741 65.2948 161.029 64.7606C161.328 64.2324 161.719 63.7741 162.202 63.3857C162.685 62.9973 163.255 62.7118 163.913 62.5293C164.572 62.3467 165.208 62.2975 165.822 62.3816C166.436 62.4657 167.004 62.6626 167.526 62.9721C168.056 63.2793 168.51 63.6852 168.886 64.1897C169.273 64.7003 169.56 65.2931 169.747 65.9681C169.937 66.6516 169.993 67.313 169.916 67.9523C169.85 68.5978 169.645 69.1862 169.302 69.7176L168.276 69.1161C168.537 68.6803 168.693 68.228 168.745 67.7593C168.805 67.2882 168.768 66.8122 168.635 66.3312C168.497 65.8334 168.284 65.3927 167.995 65.0092C167.71 64.6341 167.372 64.3326 166.981 64.1046C166.591 63.8767 166.16 63.7326 165.689 63.6724C165.229 63.6184 164.754 63.6592 164.265 63.795C163.775 63.9307 163.343 64.1415 162.968 64.4273C162.604 64.7192 162.313 65.0634 162.096 65.4598C161.878 65.8563 161.744 66.2889 161.692 66.7576C161.643 67.2348 161.687 67.7223 161.825 68.2201C161.959 68.7011 162.168 69.1291 162.454 69.5042C162.748 69.877 163.124 70.1818 163.58 70.4186L163.011 71.4626C162.443 71.1839 161.96 70.7863 161.562 70.2696C161.167 69.7613 160.873 69.1612 160.681 68.4693Z" fill="#263333" fill-opacity="0.6"/>
<path d="M154.488 53.0428L162.785 49.0811L165.581 54.9365L164.55 55.4289L162.32 50.7588L156.085 53.7357L158.395 58.5718L157.363 59.0642L154.488 53.0428ZM158.713 52.35L159.721 51.8689L161.758 56.136L160.751 56.6171L158.713 52.35Z" fill="#263333" fill-opacity="0.6"/>
<path d="M147.082 42.2092L154.578 36.8848L156.655 39.8082C157.121 40.465 157.416 41.0989 157.538 41.71C157.661 42.3211 157.614 42.891 157.399 43.4198C157.184 43.9486 156.805 44.4056 156.263 44.791C155.72 45.1764 155.164 45.3836 154.594 45.4127C154.031 45.4366 153.477 45.2927 152.934 44.9807C152.397 44.6638 151.895 44.1769 151.429 43.5201L149.771 41.1856L150.616 41.31L147.843 43.2801L147.082 42.2092ZM150.509 41.3861L150.702 40.5239L152.338 42.8262C152.824 43.5116 153.338 43.9252 153.88 44.0671C154.426 44.2161 154.967 44.1005 155.502 43.7202C156.037 43.3399 156.325 42.8673 156.364 42.3024C156.408 41.7447 156.187 41.1232 155.7 40.4378L154.065 38.1355L154.942 38.237L150.509 41.3861Z" fill="#263333" fill-opacity="0.6"/>
<path d="M140.628 35.5765C140.133 35.081 139.734 34.533 139.43 33.9323C139.133 33.3254 138.976 32.7712 138.957 32.2697L140.025 31.8891C140.056 32.3535 140.192 32.8489 140.434 33.3752C140.675 33.9016 141.003 34.3722 141.418 34.7872C141.795 35.1649 142.145 35.4282 142.467 35.5768C142.789 35.7255 143.08 35.7813 143.34 35.7442C143.607 35.7009 143.836 35.5833 144.028 35.3914C144.251 35.1685 144.356 34.9147 144.344 34.6298C144.337 34.3512 144.257 34.054 144.102 33.7381C143.96 33.4223 143.78 33.0941 143.564 32.7535C143.347 32.4129 143.137 32.06 142.932 31.6946C142.74 31.3292 142.592 30.9639 142.487 30.5985C142.388 30.2394 142.375 29.8803 142.45 29.5211C142.53 29.1558 142.744 28.7998 143.091 28.4532C143.425 28.1189 143.819 27.8991 144.271 27.7939C144.735 27.6888 145.233 27.7353 145.766 27.9335C146.311 28.1318 146.868 28.5158 147.437 29.0856C147.815 29.4633 148.14 29.8875 148.412 30.3582C148.685 30.8288 148.864 31.2932 148.951 31.7515L147.901 32.1878C147.808 31.7234 147.648 31.2961 147.419 30.906C147.196 30.5096 146.939 30.1659 146.648 29.8749C146.283 29.5095 145.936 29.2555 145.608 29.1131C145.28 28.9706 144.982 28.921 144.716 28.9643C144.456 29.0138 144.23 29.1345 144.038 29.3264C143.809 29.5555 143.697 29.8093 143.704 30.0879C143.716 30.3728 143.796 30.67 143.945 30.9796C144.1 31.2954 144.282 31.6267 144.493 31.9735C144.709 32.3141 144.917 32.664 145.115 33.0232C145.319 33.3885 145.471 33.7508 145.57 34.1099C145.675 34.4753 145.69 34.8375 145.616 35.1966C145.541 35.5557 145.334 35.9055 144.993 36.246C144.665 36.5741 144.269 36.7908 143.804 36.896C143.346 36.9949 142.842 36.9422 142.291 36.7378C141.752 36.5333 141.198 36.1462 140.628 35.5765Z" fill="#263333" fill-opacity="0.6"/>
<path d="M128.723 26.096L134.082 18.625L139.354 22.4072L138.688 23.3358L134.483 20.3192L130.456 25.9331L134.811 29.0569L134.144 29.9854L128.723 26.096ZM132.09 23.4521L132.741 22.5449L136.583 25.3012L135.933 26.2084L132.09 23.4521Z" fill="#263333" fill-opacity="0.6"/>
<path d="M107.992 17.112L114.969 9.85547L116.946 10.5691L117.69 20.6134L115.59 19.8551L115.184 11.0782L115.975 11.3636L110.043 17.8524L107.992 17.112ZM110.589 15.9547L111.668 14.6268L116.116 16.2325L116.111 17.9484L110.589 15.9547Z" fill="#263333" fill-opacity="0.6"/>
<path d="M99.7695 15.6863L101.062 8.33836L98.1641 7.82871L98.4644 6.12109L106.356 7.50898L106.055 9.21659L103.158 8.70694L101.865 16.0549L99.7695 15.6863Z" fill="#263333" fill-opacity="0.6"/>
<path d="M88.0326 15.2878C86.7279 15.2822 85.7093 14.9145 84.9768 14.1845C84.2444 13.4546 83.881 12.4154 83.8868 11.0668L83.9088 5.91797L86.0366 5.92705L86.015 10.9971C86.0112 11.8728 86.1881 12.504 86.5454 12.8908C86.9028 13.2777 87.4055 13.4725 88.0535 13.4752C88.7015 13.478 89.2058 13.2875 89.5665 12.9037C89.9271 12.52 90.1093 11.8903 90.1131 11.0146L90.1347 5.94454L92.2363 5.95351L92.2143 11.1024C92.2086 12.4509 91.8363 13.487 91.0977 14.2107C90.359 14.9343 89.3373 15.2934 88.0326 15.2878Z" fill="#263333" fill-opacity="0.6"/>
<path d="M71.5097 17.0679L69.9453 8.00745L76.7924 6.8252L77.083 8.50785L72.3198 9.33028L73.3031 15.0254L78.2346 14.1739L78.5251 15.8566L71.5097 17.0679ZM72.7857 12.9554L72.5041 11.3245L76.8661 10.5714L77.1477 12.2022L72.7857 12.9554Z" fill="#263333" fill-opacity="0.6"/>
<path d="M58.9727 21.4027L55.8438 12.757L59.5861 11.4026C60.3601 11.1224 61.0733 11.0087 61.7255 11.0613C62.3749 11.1057 62.9368 11.3074 63.4113 11.6665C63.8858 12.0256 64.2408 12.5304 64.4762 13.1808C64.7086 13.8231 64.7575 14.434 64.6227 15.0136C64.4879 15.5932 64.1867 16.112 63.7192 16.5699C63.2487 17.0195 62.6264 17.3844 61.8524 17.6645L59.2216 18.6166L59.7846 17.3932L60.9736 20.6786L58.9727 21.4027ZM59.8651 17.6155L58.6316 16.9863L61.1512 16.0744C61.7688 15.8509 62.1822 15.5523 62.3915 15.1786C62.6008 14.8048 62.6205 14.3833 62.4506 13.9139C62.2778 13.4364 61.9914 13.121 61.5913 12.9677C61.1913 12.8145 60.6825 12.8496 60.065 13.0731L57.5454 13.985L58.0905 12.7121L59.8651 17.6155Z" fill="#263333" fill-opacity="0.6"/>
<path d="M45.8978 28.8268L44.7891 18.8216L46.6027 17.7598L54.796 23.6174L52.869 24.7455L45.866 19.4392L46.5915 19.0144L47.7795 27.7252L45.8978 28.8268ZM46.6707 26.0912L46.3418 24.4116L50.4226 22.0226L51.7376 23.1248L46.6707 26.0912Z" fill="#263333" fill-opacity="0.6"/>
<path d="M36.6431 36.8403L30.6367 29.8788L33.6103 27.3132C34.5782 26.4781 35.5252 26.0542 36.4513 26.0417C37.3715 26.0226 38.1721 26.4075 38.8528 27.1964C39.299 27.7136 39.5624 28.2669 39.6432 28.8565C39.7182 29.4394 39.6161 30.0248 39.3369 30.6127C39.0577 31.2006 38.6065 31.7634 37.9832 32.3011L35.865 34.1288L35.9718 32.8049L38.2542 35.4502L36.6431 36.8403ZM41.0686 33.0219L37.1488 31.9975L38.8693 30.5131L42.809 31.5203L41.0686 33.0219ZM36.1262 32.9839L34.7581 32.8459L36.7868 31.0954C37.2841 30.6664 37.5638 30.24 37.6261 29.8162C37.6826 29.3857 37.5479 28.9816 37.2218 28.6036C36.89 28.2191 36.51 28.0266 36.0816 28.0261C35.6532 28.0256 35.1904 28.2398 34.6932 28.6689L32.6644 30.4193L32.7197 29.0357L36.1262 32.9839Z" fill="#263333" fill-opacity="0.6"/>
<path d="M28.5265 46.4647L21.4102 40.6425L25.81 35.2646L27.1316 36.3459L24.0708 40.087L28.544 43.7467L31.7129 39.8734L33.0345 40.9546L28.5265 46.4647ZM26.7972 42.5213L25.5163 41.4733L28.3192 38.0473L29.6002 39.0953L26.7972 42.5213Z" fill="#263333" fill-opacity="0.6"/>
<path d="M23.4007 55.0465L16.9287 51.335L15.465 53.8873L13.9609 53.0247L17.9469 46.0742L19.451 46.9368L17.9873 49.4891L24.4592 53.2006L23.4007 55.0465Z" fill="#263333" fill-opacity="0.6"/>
<path d="M18.9854 66.3505C18.7424 67.0355 18.4054 67.6314 17.9747 68.1382C17.5468 68.6368 17.0546 69.0289 16.4979 69.3145C15.9442 69.5919 15.3525 69.7536 14.7229 69.7996C14.0963 69.8373 13.4611 69.742 12.8174 69.5135C12.1737 69.2851 11.6206 68.9587 11.1579 68.5343C10.6982 68.1017 10.3423 67.5991 10.0902 67.0264C9.83816 66.4538 9.70323 65.8391 9.68544 65.1824C9.66764 64.5256 9.77882 63.8589 10.019 63.1822C10.2621 62.4973 10.5961 61.9096 11.021 61.4193C11.4488 60.9207 11.9396 60.5327 12.4933 60.2554C13.05 59.9698 13.6431 59.804 14.2727 59.7579C14.894 59.709 15.5307 59.8002 16.1826 60.0316C16.8263 60.26 17.3821 60.592 17.8501 61.0276C18.3098 61.4602 18.6657 61.9628 18.9178 62.5355C19.1645 63.0969 19.2968 63.706 19.3146 64.3628C19.3353 65.0112 19.2256 65.6738 18.9854 66.3505ZM17.2728 65.7566C17.4105 65.3688 17.4704 64.9905 17.4526 64.6218C17.4377 64.2448 17.3504 63.8886 17.1907 63.5532C17.031 63.2178 16.8054 62.924 16.5139 62.6719C16.2253 62.4115 15.8748 62.2081 15.4621 62.0617C15.0495 61.9152 14.6491 61.8521 14.261 61.8723C13.8758 61.8843 13.5155 61.9701 13.18 62.1298C12.8475 62.2813 12.5567 62.4986 12.3075 62.7818C12.0583 63.0651 11.8649 63.4006 11.7272 63.7885C11.5896 64.1763 11.5282 64.5588 11.5431 64.9357C11.5609 65.3044 11.6496 65.6565 11.8094 65.9919C11.9691 66.3273 12.1932 66.6253 12.4817 66.8856C12.7732 67.1377 13.1253 67.337 13.5379 67.4835C13.9423 67.627 14.3412 67.6942 14.7346 67.6852C15.1228 67.665 15.4831 67.5792 15.8156 67.4277C16.151 67.268 16.4434 67.0465 16.6925 66.7633C16.9417 66.4801 17.1352 66.1445 17.2728 65.7566Z" fill="#263333" fill-opacity="0.6"/>
<path d="M15.6805 78.4359L6.64453 76.7357L7.03801 74.6445L16.074 76.3447L15.6805 78.4359Z" fill="#263333" fill-opacity="0.6"/>
<path d="M15.214 87.5641C15.1755 88.2986 15.0425 88.9975 14.8148 89.6608C14.5784 90.3236 14.292 90.8522 13.9557 91.2467L12.3932 90.4415C12.6937 90.0626 12.9497 89.6113 13.1612 89.0875C13.3645 88.5545 13.4806 88.0125 13.5095 87.4616C13.5315 87.0419 13.5098 86.7031 13.4443 86.4454C13.3706 86.1785 13.2627 85.9799 13.1204 85.8497C12.9782 85.7195 12.8109 85.6494 12.6185 85.6393C12.3736 85.6264 12.1762 85.7126 12.0262 85.8976C11.8675 86.0822 11.7361 86.3296 11.6322 86.6398C11.5195 86.9496 11.4137 87.2948 11.3149 87.6755C11.2077 88.0469 11.0829 88.4218 10.9403 88.8002C10.7982 89.1698 10.6227 89.5069 10.4138 89.8117C10.2049 90.1164 9.9378 90.3611 9.61246 90.5457C9.28757 90.7216 8.88027 90.7967 8.39057 90.7711C7.86589 90.7436 7.39663 90.5787 6.9828 90.2764C6.56069 89.9649 6.23772 89.5183 6.0139 88.9367C5.7818 88.3458 5.68842 87.6175 5.73378 86.7517C5.76401 86.1746 5.86375 85.6098 6.03298 85.0575C6.19347 84.5047 6.42048 84.0212 6.71402 83.6069L8.29305 84.3473C8.02575 84.7629 7.82404 85.182 7.68791 85.6046C7.54304 86.0266 7.45983 86.4432 7.4383 86.8542C7.41677 87.2652 7.44723 87.6044 7.52968 87.8718C7.61213 88.1391 7.72907 88.3338 7.88052 88.4557C8.02323 88.5772 8.19514 88.6432 8.39627 88.6537C8.63238 88.6661 8.8298 88.58 8.98854 88.3954C9.13853 88.2103 9.2655 87.9627 9.36944 87.6525C9.47338 87.3422 9.57892 87.0014 9.68606 86.63C9.79367 86.2498 9.91416 85.8747 10.0475 85.5046C10.1814 85.1258 10.3527 84.784 10.5616 84.4793C10.7705 84.1745 11.0374 83.9342 11.3623 83.7583C11.6876 83.5737 12.0908 83.494 12.5717 83.5192C13.0876 83.5462 13.5523 83.7152 13.9657 84.0263C14.379 84.3373 14.7018 84.7882 14.9339 85.3791C15.1665 85.9613 15.2598 86.6896 15.214 87.5641Z" fill="#263333" fill-opacity="0.6"/>
<path d="M15.4257 98.6615L6.26308 99.4269L6.08594 97.3064L15.2485 96.541L15.4257 98.6615Z" fill="#263333" fill-opacity="0.6"/>
<path d="M17.9182 110.578L8.94173 112.569L7.4375 105.785L9.10456 105.416L10.1481 110.122L17.4576 108.501L17.9182 110.578ZM14.2217 109.38L12.5546 109.75L11.5992 105.441L13.2662 105.071L14.2217 109.38Z" fill="#263333" fill-opacity="0.6"/>
</svg>
