<svg width="81" height="88" viewBox="0 0 81 88" fill="none" xmlns="http://www.w3.org/2000/svg">
<path fill-rule="evenodd" clip-rule="evenodd" d="M70.6733 16.5328C82.4678 40.6369 68.2011 46.663 59.4453 52.6375C52.6467 57.2729 48.1658 65.5652 51.153 66.8528C52.8527 67.6254 56.046 63.5565 59.5483 60.4147C62.587 57.7365 65.8833 55.8823 67.6345 57.479C71.0853 60.6207 58.6727 76.8447 41.1611 83.2313C63.4111 82.7677 81.0257 64.3291 80.5622 42.0791C80.3561 32.2932 76.6478 23.3829 70.6733 16.5328ZM39.41 2.67804C17.16 3.14158 -0.454599 21.5802 0.00894279 43.8302C0.214961 53.6161 3.92329 62.5264 9.89783 69.3765C-1.89673 45.2724 12.37 39.2463 21.1258 33.2718C27.9244 28.6364 32.4053 20.3441 29.4181 19.0565C27.7184 18.2839 24.5251 22.3528 21.0228 25.4946C17.9841 28.1728 14.6878 30.027 12.9366 28.4303C9.48579 25.2886 21.8469 9.06461 39.41 2.67804Z" fill="#19B500"/>
<path fill-rule="evenodd" clip-rule="evenodd" d="M11.2375 82.2529C10.362 82.2529 9.48639 82.6649 9.02285 83.489C8.35329 84.6736 8.76532 86.2187 9.94993 86.8883C11.1345 87.5578 12.6797 87.1458 13.3492 85.9612C14.0188 84.7766 13.6068 83.2315 12.4222 82.5619C12.0101 82.3559 11.6496 82.2529 11.2375 82.2529ZM16.079 72.9305C14.8429 72.879 13.6583 73.4971 13.0402 74.6302C12.1131 76.2783 12.6282 78.39 14.2763 79.3171C15.9245 80.2442 18.0362 79.6776 18.9632 78.081C19.8903 76.4329 19.3238 74.3212 17.7271 73.3941C17.2121 73.0851 16.6455 72.9305 16.079 72.9305ZM25.1438 65.0503C23.5987 64.9988 22.105 65.7714 21.2809 67.2135C20.0963 69.2737 20.8174 71.952 22.8776 73.1366C24.9378 74.3212 27.616 73.6001 28.8006 71.5399C29.9852 69.4797 29.2642 66.8015 27.204 65.6169C26.5344 65.2048 25.8649 65.0503 25.1438 65.0503ZM33.8481 56.8096C32.3029 56.7581 30.8093 57.5307 29.9852 58.9728C28.8006 61.033 29.5217 63.6597 31.5819 64.8958C33.6421 66.0804 36.3203 65.3594 37.5049 63.2992C38.6895 61.239 37.9684 58.5608 35.9083 57.3761C35.2902 57.0156 34.5691 56.8096 33.8481 56.8096ZM44.4065 23.0741C42.8614 23.0226 41.3677 23.7951 40.5437 25.2373C39.3591 27.2974 40.0801 29.9757 42.1403 31.1603C44.2005 32.3449 46.8787 31.6238 48.0633 29.5637C49.2479 27.5035 48.5269 24.8252 46.4667 23.6406C45.7971 23.2801 45.0761 23.0741 44.4065 23.0741ZM50.1235 14.0093C48.8874 13.9578 47.7028 14.5758 47.0848 15.7089C46.1577 17.3571 46.7242 19.4687 48.3209 20.3958C49.969 21.3229 52.0807 20.8079 53.0078 19.1597C53.9349 17.5116 53.3683 15.3999 51.7717 14.4728C51.2051 14.2153 50.6386 14.0608 50.1235 14.0093ZM57.7462 7.98322C56.6646 7.93171 55.583 8.49826 55.0165 9.52835C54.1924 10.9705 54.6559 12.8762 56.1496 13.7002C57.5917 14.5243 59.4974 14.0608 60.3214 12.5671C61.1455 11.125 60.682 9.21933 59.1883 8.39525C58.7248 8.13773 58.2613 7.98322 57.7462 7.98322ZM65.7294 5.614C64.9053 5.614 64.0813 6.02604 63.6692 6.74711C63.0512 7.8287 63.4117 9.27083 64.4933 9.88889C65.5749 10.5069 67.017 10.1464 67.6351 9.06481C68.2531 7.98322 67.8926 6.54109 66.811 5.92303C66.4505 5.71701 66.09 5.66551 65.7294 5.614ZM71.704 0C71.0859 0.0515046 70.5194 0.360532 70.2103 0.927083C69.6953 1.80266 70.0043 2.93576 70.8799 3.45081C71.7555 3.96586 72.8886 3.65683 73.4036 2.78125C73.9187 1.90567 73.6096 0.772569 72.7341 0.257523C72.425 0.0515046 72.0645 0 71.704 0Z" fill="#306D1D"/>
<path fill-rule="evenodd" clip-rule="evenodd" d="M33.4874 36.5154C36.4747 34.7643 39.4619 35.2278 42.0372 37.2365L29.4701 44.4987C29.1095 41.2539 30.3971 38.3181 33.4874 36.5154ZM51.102 36.773C46.4666 28.9958 37.7623 27.0386 30.3971 31.3135C22.5684 35.8459 20.3022 45.0137 24.5771 52.4304C28.852 59.847 37.8653 62.5253 46.003 57.8384C51.411 54.7481 54.1923 49.5976 53.8317 44.1896L47.2906 45.0652C47.2906 48.2585 45.591 50.9882 42.8613 52.5849C39.1014 54.7481 34.6205 53.821 31.7363 49.9581L51.9261 38.3181L51.102 36.773Z" fill="#306D1D"/>
</svg>
