<svg width="179" height="179" viewBox="0 0 179 179" fill="none" xmlns="http://www.w3.org/2000/svg">
<path d="M21.2834 125.684C21.4181 125.936 21.4826 126.208 21.4767 126.501C21.4709 126.794 21.3959 127.065 21.2518 127.316C21.0939 127.562 20.8708 127.763 20.5824 127.917C20.303 128.066 20.0215 128.135 19.7379 128.125C19.4404 128.11 19.1684 128.023 18.9219 127.865C18.6755 127.707 18.4849 127.502 18.3501 127.25C18.2057 126.98 18.1389 126.703 18.1495 126.419C18.1554 126.126 18.2373 125.857 18.3952 125.61C18.5393 125.36 18.751 125.16 19.0304 125.01C19.3187 124.856 19.6117 124.787 19.9091 124.802C20.1928 124.812 20.4579 124.897 20.7043 125.055C20.946 125.204 21.139 125.413 21.2834 125.684Z" fill="#263333" fill-opacity="0.6"/>
<path d="M37.5113 143.051L27.83 145.906L26.9805 144.921L31.2124 135.752L32.1135 136.796L28.1381 145.137L27.7948 144.739L36.6274 142.027L37.5113 143.051ZM34.6125 143.21L33.5853 143.628L30.2042 139.71L30.7508 138.735L34.6125 143.21Z" fill="#263333" fill-opacity="0.6"/>
<path d="M47.716 151.189L41.982 158.377L41.1401 157.705L41.0961 148.008L41.5376 148.36L36.8276 154.264L35.8008 153.445L41.5348 146.258L42.3767 146.93L42.4207 156.626L41.9792 156.274L46.6893 150.37L47.716 151.189Z" fill="#263333" fill-opacity="0.6"/>
<path d="M56.8109 156.118C57.882 156.678 58.5639 157.424 58.8567 158.358C59.1495 159.291 58.9877 160.348 58.3714 161.528L55.9506 166.161L54.7864 165.553L57.1829 160.966C57.6573 160.058 57.8061 159.291 57.6292 158.665C57.4446 158.035 56.9875 157.529 56.2579 157.148C55.5206 156.763 54.8446 156.677 54.2298 156.889C53.6072 157.097 53.0587 157.655 52.5843 158.563L50.1879 163.15L49.0586 162.56L51.4794 157.927C52.0957 156.747 52.8707 156.011 53.8041 155.718C54.7298 155.421 55.7321 155.555 56.8109 156.118Z" fill="#263333" fill-opacity="0.6"/>
<path d="M70.9468 161.672L68.1519 170.432L66.9006 170.032L69.3481 162.362L64.6055 160.848L64.9528 159.76L70.9468 161.672Z" fill="#263333" fill-opacity="0.6"/>
<path d="M81.4774 163.21C82.1719 163.303 82.803 163.506 83.3708 163.82C83.9299 164.132 84.3988 164.526 84.7775 165C85.155 165.483 85.4278 166.023 85.5959 166.62C85.764 167.216 85.8036 167.849 85.7148 168.517C85.626 169.185 85.4226 169.785 85.1046 170.317C84.7866 170.849 84.3829 171.295 83.8935 171.654C83.403 172.021 82.847 172.283 82.2256 172.439C81.6042 172.595 80.942 172.626 80.2389 172.533C79.5444 172.441 78.922 172.239 78.3715 171.927C77.8112 171.623 77.3424 171.23 76.9648 170.747C76.5775 170.271 76.3041 169.736 76.1447 169.14C75.9766 168.544 75.9376 167.907 76.0275 167.23C76.1175 166.553 76.3214 165.948 76.6395 165.416C76.9488 164.883 77.3531 164.433 77.8523 164.067C78.3416 163.708 78.897 163.45 79.5184 163.295C80.13 163.146 80.783 163.118 81.4774 163.21ZM81.3235 164.369C80.82 164.302 80.3441 164.327 79.8957 164.444C79.4386 164.56 79.0331 164.754 78.679 165.025C78.3152 165.303 78.0182 165.644 77.7881 166.046C77.5493 166.447 77.3965 166.899 77.3296 167.403C77.2627 167.906 77.2921 168.383 77.4179 168.832C77.535 169.281 77.7334 169.683 78.013 170.038C78.2829 170.4 78.6233 170.697 79.0342 170.929C79.4365 171.159 79.8894 171.307 80.3928 171.374C80.905 171.442 81.3896 171.418 81.8467 171.302C82.2951 171.185 82.7012 170.987 83.065 170.709C83.4277 170.439 83.7285 170.104 83.9673 169.703C84.1974 169.3 84.3459 168.847 84.4128 168.344C84.4797 167.84 84.4546 167.365 84.3375 166.916C84.2117 166.467 84.0095 166.06 83.731 165.696C83.4514 165.341 83.1104 165.048 82.7081 164.818C82.2972 164.587 81.8356 164.437 81.3235 164.369Z" fill="#263333" fill-opacity="0.6"/>
<path d="M94.1346 163.564C94.8342 163.528 95.4872 163.608 96.0936 163.805C96.6918 164.01 97.2204 164.312 97.6794 164.709C98.1301 165.115 98.4926 165.596 98.7669 166.152C99.0413 166.707 99.1961 167.326 99.2315 168.009C99.2668 168.691 99.1768 169.322 98.9614 169.903C98.7461 170.484 98.4306 170.996 98.0151 171.439C97.6001 171.89 97.1055 172.244 96.5314 172.502C95.949 172.769 95.308 172.921 94.6084 172.957C93.9001 172.994 93.2422 172.905 92.6349 172.691C92.0192 172.486 91.4893 172.158 91.045 171.708L91.8548 170.837C92.2237 171.187 92.6312 171.437 93.0776 171.589C93.5243 171.75 93.9969 171.818 94.4954 171.792C95.0114 171.765 95.4878 171.653 95.9247 171.455C96.3529 171.257 96.7206 170.993 97.0278 170.661C97.3351 170.33 97.5692 169.94 97.7302 169.494C97.8828 169.056 97.946 168.584 97.9197 168.077C97.8934 167.569 97.7815 167.102 97.5839 166.673C97.3781 166.254 97.1052 165.896 96.7653 165.598C96.4254 165.3 96.0323 165.075 95.586 164.923C95.131 164.771 94.6455 164.708 94.1295 164.735C93.631 164.761 93.1677 164.873 92.7395 165.07C92.3118 165.276 91.9328 165.577 91.6025 165.971L90.707 165.189C91.1023 164.695 91.5953 164.31 92.186 164.033C92.768 163.758 93.4175 163.601 94.1346 163.564Z" fill="#263333" fill-opacity="0.6"/>
<path d="M120.896 157L123.996 165.656L122.982 166.019L116.757 160.868L117.301 160.673L115.81 168.588L114.796 168.951L111.684 160.299L112.871 159.874L115.314 166.659L115.03 166.76L116.388 159.8L116.957 159.597L122.449 164.103L122.14 164.214L119.709 157.425L120.896 157Z" fill="#263333" fill-opacity="0.6"/>
<path d="M131.812 150.767L136.542 158.651L130.977 161.989L130.39 161.009L134.827 158.347L131.273 152.422L126.678 155.179L126.09 154.199L131.812 150.767ZM132.902 154.907L133.476 155.864L129.421 158.297L128.847 157.34L132.902 154.907Z" fill="#263333" fill-opacity="0.6"/>
<path d="M147.971 135.756L151.771 145.107L150.876 146.049L141.332 142.747L142.282 141.747L150.975 144.876L150.614 145.257L147.039 136.737L147.971 135.756ZM148.417 138.625L148.934 139.605L145.371 143.358L144.347 142.911L148.417 138.625Z" fill="#263333" fill-opacity="0.6"/>
<path d="M152.363 129.279L159.025 133.801L160.796 131.193L161.741 131.834L157.47 138.127L156.525 137.485L158.295 134.877L151.633 130.355L152.363 129.279Z" fill="#263333" fill-opacity="0.6"/>
<path d="M157.399 119.566C157.7 118.933 158.082 118.373 158.546 117.886C159.018 117.402 159.487 117.068 159.953 116.882L160.67 117.76C160.243 117.945 159.822 118.24 159.408 118.644C158.993 119.048 158.66 119.515 158.408 120.045C158.179 120.528 158.048 120.945 158.017 121.299C157.985 121.652 158.03 121.945 158.152 122.177C158.282 122.413 158.47 122.59 158.715 122.706C159 122.841 159.274 122.855 159.538 122.748C159.799 122.649 160.052 122.473 160.297 122.221C160.547 121.981 160.796 121.702 161.044 121.384C161.292 121.065 161.554 120.748 161.83 120.433C162.109 120.13 162.404 119.867 162.712 119.646C163.018 119.432 163.352 119.3 163.715 119.249C164.086 119.202 164.493 119.284 164.936 119.495C165.363 119.697 165.702 119.994 165.953 120.384C166.208 120.787 166.332 121.272 166.324 121.84C166.32 122.42 166.145 123.073 165.8 123.801C165.571 124.284 165.28 124.732 164.928 125.147C164.576 125.561 164.199 125.886 163.796 126.122L163.033 125.28C163.439 125.036 163.788 124.741 164.078 124.394C164.377 124.052 164.615 123.694 164.791 123.322C165.013 122.856 165.135 122.444 165.159 122.087C165.183 121.73 165.13 121.433 165 121.197C164.866 120.969 164.677 120.796 164.432 120.68C164.139 120.541 163.862 120.521 163.602 120.62C163.338 120.728 163.085 120.903 162.843 121.147C162.597 121.399 162.347 121.682 162.091 121.997C161.843 122.315 161.583 122.628 161.311 122.935C161.035 123.25 160.745 123.515 160.44 123.728C160.131 123.95 159.795 124.086 159.432 124.137C159.068 124.187 158.669 124.109 158.234 123.903C157.815 123.704 157.478 123.403 157.223 123.001C156.976 122.603 156.856 122.11 156.864 121.522C156.875 120.946 157.054 120.294 157.399 119.566Z" fill="#263333" fill-opacity="0.6"/>
<path d="M161.222 109.765L169.976 112.578L169.574 113.828L160.82 111.015L161.222 109.765Z" fill="#263333" fill-opacity="0.6"/>
<path d="M163.465 98.3975L172.512 100.036L172.278 101.328L164.355 99.8936L163.468 104.792L162.344 104.588L163.465 98.3975Z" fill="#263333" fill-opacity="0.6"/>
<path d="M163.847 83.6162L172.999 87.8723L172.986 89.1726L163.75 93.2568L163.764 91.8777L172.26 88.2458L172.255 88.7711L163.833 84.9691L163.847 83.6162ZM166.128 85.4125L167.175 85.7777L167.123 90.9526L166.068 91.3229L166.128 85.4125Z" fill="#263333" fill-opacity="0.6"/>
<path d="M163.008 77.193L172.126 76.0068L172.295 77.3094L163.177 78.4955L163.008 77.193Z" fill="#263333" fill-opacity="0.6"/>
<path d="M160.681 68.4693C160.494 67.7943 160.431 67.1394 160.491 66.5048C160.562 65.8762 160.741 65.2948 161.029 64.7606C161.328 64.2324 161.719 63.7741 162.202 63.3857C162.685 62.9973 163.255 62.7118 163.913 62.5293C164.572 62.3467 165.208 62.2975 165.822 62.3816C166.436 62.4657 167.004 62.6626 167.526 62.9721C168.056 63.2793 168.51 63.6852 168.886 64.1897C169.273 64.7003 169.56 65.2931 169.747 65.9681C169.937 66.6516 169.993 67.313 169.916 67.9523C169.85 68.5978 169.645 69.1862 169.302 69.7176L168.276 69.1161C168.537 68.6803 168.693 68.228 168.745 67.7593C168.805 67.2882 168.768 66.8122 168.635 66.3312C168.497 65.8334 168.284 65.3927 167.995 65.0092C167.71 64.6341 167.372 64.3326 166.981 64.1046C166.591 63.8767 166.16 63.7326 165.689 63.6724C165.229 63.6184 164.754 63.6592 164.265 63.795C163.775 63.9307 163.343 64.1415 162.968 64.4273C162.604 64.7192 162.313 65.0634 162.096 65.4598C161.878 65.8563 161.744 66.2889 161.692 66.7576C161.643 67.2348 161.687 67.7223 161.825 68.2201C161.959 68.7011 162.168 69.1291 162.454 69.5042C162.748 69.877 163.124 70.1818 163.58 70.4186L163.011 71.4626C162.443 71.1839 161.96 70.7863 161.562 70.2696C161.167 69.7613 160.873 69.1612 160.681 68.4693Z" fill="#263333" fill-opacity="0.6"/>
<path d="M154.488 53.0428L162.785 49.0811L165.581 54.9365L164.55 55.4289L162.32 50.7588L156.085 53.7357L158.395 58.5718L157.363 59.0642L154.488 53.0428ZM158.713 52.35L159.721 51.8689L161.758 56.136L160.751 56.6171L158.713 52.35Z" fill="#263333" fill-opacity="0.6"/>
<path d="M147.082 42.2092L154.578 36.8848L156.655 39.8082C157.121 40.465 157.416 41.0989 157.538 41.71C157.661 42.3211 157.614 42.891 157.399 43.4198C157.184 43.9486 156.805 44.4056 156.263 44.791C155.72 45.1764 155.164 45.3836 154.594 45.4127C154.031 45.4366 153.477 45.2927 152.934 44.9807C152.397 44.6638 151.895 44.1769 151.429 43.5201L149.771 41.1856L150.616 41.31L147.843 43.2801L147.082 42.2092ZM150.509 41.3861L150.702 40.5239L152.338 42.8262C152.824 43.5116 153.338 43.9252 153.88 44.0671C154.426 44.2161 154.967 44.1005 155.502 43.7202C156.037 43.3399 156.325 42.8673 156.364 42.3024C156.408 41.7447 156.187 41.1232 155.7 40.4378L154.065 38.1355L154.942 38.237L150.509 41.3861Z" fill="#263333" fill-opacity="0.6"/>
<path d="M140.628 35.5765C140.133 35.081 139.734 34.533 139.43 33.9323C139.133 33.3254 138.976 32.7712 138.957 32.2697L140.025 31.8891C140.056 32.3535 140.192 32.8489 140.434 33.3752C140.675 33.9016 141.003 34.3722 141.418 34.7872C141.795 35.1649 142.145 35.4282 142.467 35.5768C142.789 35.7255 143.08 35.7813 143.34 35.7442C143.607 35.7009 143.836 35.5833 144.028 35.3914C144.251 35.1685 144.356 34.9147 144.344 34.6298C144.337 34.3512 144.257 34.054 144.102 33.7381C143.96 33.4223 143.78 33.0941 143.564 32.7535C143.347 32.4129 143.137 32.06 142.932 31.6946C142.74 31.3292 142.592 30.9639 142.487 30.5985C142.388 30.2394 142.375 29.8803 142.45 29.5211C142.53 29.1558 142.744 28.7998 143.091 28.4532C143.425 28.1189 143.819 27.8991 144.271 27.7939C144.735 27.6888 145.233 27.7353 145.766 27.9335C146.311 28.1318 146.868 28.5158 147.437 29.0856C147.815 29.4633 148.14 29.8875 148.412 30.3582C148.685 30.8288 148.864 31.2932 148.951 31.7515L147.901 32.1878C147.808 31.7234 147.648 31.2961 147.419 30.906C147.196 30.5096 146.939 30.1659 146.648 29.8749C146.283 29.5095 145.936 29.2555 145.608 29.1131C145.28 28.9706 144.982 28.921 144.716 28.9643C144.456 29.0138 144.23 29.1345 144.038 29.3264C143.809 29.5555 143.697 29.8093 143.704 30.0879C143.716 30.3728 143.796 30.67 143.945 30.9796C144.1 31.2954 144.282 31.6267 144.493 31.9735C144.709 32.3141 144.917 32.664 145.115 33.0232C145.319 33.3885 145.471 33.7508 145.57 34.1099C145.675 34.4753 145.69 34.8375 145.616 35.1966C145.541 35.5557 145.334 35.9055 144.993 36.246C144.665 36.5741 144.269 36.7908 143.804 36.896C143.346 36.9949 142.842 36.9422 142.291 36.7378C141.752 36.5333 141.198 36.1462 140.628 35.5765Z" fill="#263333" fill-opacity="0.6"/>
<path d="M128.723 26.096L134.082 18.625L139.354 22.4072L138.688 23.3358L134.483 20.3192L130.456 25.9331L134.811 29.0569L134.144 29.9854L128.723 26.096ZM132.09 23.4521L132.741 22.5449L136.583 25.3012L135.933 26.2084L132.09 23.4521Z" fill="#263333" fill-opacity="0.6"/>
<path d="M107.992 17.112L114.969 9.85547L116.946 10.5691L117.69 20.6134L115.59 19.8551L115.184 11.0782L115.975 11.3636L110.043 17.8524L107.992 17.112ZM110.589 15.9547L111.668 14.6268L116.116 16.2325L116.111 17.9484L110.589 15.9547Z" fill="#263333" fill-opacity="0.6"/>
<path d="M99.7695 15.6863L101.062 8.33836L98.1641 7.82871L98.4644 6.12109L106.356 7.50898L106.055 9.21659L103.158 8.70694L101.865 16.0549L99.7695 15.6863Z" fill="#263333" fill-opacity="0.6"/>
<path d="M88.0326 15.2878C86.7279 15.2822 85.7093 14.9145 84.9768 14.1845C84.2444 13.4546 83.881 12.4154 83.8868 11.0668L83.9088 5.91797L86.0366 5.92705L86.015 10.9971C86.0112 11.8728 86.1881 12.504 86.5454 12.8908C86.9028 13.2777 87.4055 13.4725 88.0535 13.4752C88.7015 13.478 89.2058 13.2875 89.5665 12.9037C89.9271 12.52 90.1093 11.8903 90.1131 11.0146L90.1347 5.94454L92.2363 5.95351L92.2143 11.1024C92.2086 12.4509 91.8363 13.487 91.0977 14.2107C90.359 14.9343 89.3373 15.2934 88.0326 15.2878Z" fill="#263333" fill-opacity="0.6"/>
<path d="M71.5097 17.0679L69.9453 8.00745L76.7924 6.8252L77.083 8.50785L72.3198 9.33028L73.3031 15.0254L78.2346 14.1739L78.5251 15.8566L71.5097 17.0679ZM72.7857 12.9554L72.5041 11.3245L76.8661 10.5714L77.1477 12.2022L72.7857 12.9554Z" fill="#263333" fill-opacity="0.6"/>
<path d="M58.9727 21.4027L55.8438 12.757L59.5861 11.4026C60.3601 11.1224 61.0733 11.0087 61.7255 11.0613C62.3749 11.1057 62.9368 11.3074 63.4113 11.6665C63.8858 12.0256 64.2408 12.5304 64.4762 13.1808C64.7086 13.8231 64.7575 14.434 64.6227 15.0136C64.4879 15.5932 64.1867 16.112 63.7192 16.5699C63.2487 17.0195 62.6264 17.3844 61.8524 17.6645L59.2216 18.6166L59.7846 17.3932L60.9736 20.6786L58.9727 21.4027ZM59.8651 17.6155L58.6316 16.9863L61.1512 16.0744C61.7688 15.8509 62.1822 15.5523 62.3915 15.1786C62.6008 14.8048 62.6205 14.3833 62.4506 13.9139C62.2778 13.4364 61.9914 13.121 61.5913 12.9677C61.1913 12.8145 60.6825 12.8496 60.065 13.0731L57.5454 13.985L58.0905 12.7121L59.8651 17.6155Z" fill="#263333" fill-opacity="0.6"/>
<path d="M45.8978 28.8268L44.7891 18.8216L46.6027 17.7598L54.796 23.6174L52.869 24.7455L45.866 19.4392L46.5915 19.0144L47.7795 27.7252L45.8978 28.8268ZM46.6707 26.0912L46.3418 24.4116L50.4226 22.0226L51.7376 23.1248L46.6707 26.0912Z" fill="#263333" fill-opacity="0.6"/>
<path d="M36.6431 36.8403L30.6367 29.8788L33.6103 27.3132C34.5782 26.4781 35.5252 26.0542 36.4513 26.0417C37.3715 26.0226 38.1721 26.4075 38.8528 27.1964C39.299 27.7136 39.5624 28.2669 39.6432 28.8565C39.7182 29.4394 39.6161 30.0248 39.3369 30.6127C39.0577 31.2006 38.6065 31.7634 37.9832 32.3011L35.865 34.1288L35.9718 32.8049L38.2542 35.4502L36.6431 36.8403ZM41.0686 33.0219L37.1488 31.9975L38.8693 30.5131L42.809 31.5203L41.0686 33.0219ZM36.1262 32.9839L34.7581 32.8459L36.7868 31.0954C37.2841 30.6664 37.5638 30.24 37.6261 29.8162C37.6826 29.3857 37.5479 28.9816 37.2218 28.6036C36.89 28.2191 36.51 28.0266 36.0816 28.0261C35.6532 28.0256 35.1904 28.2398 34.6932 28.6689L32.6644 30.4193L32.7197 29.0357L36.1262 32.9839Z" fill="#263333" fill-opacity="0.6"/>
<path d="M28.5265 46.4647L21.4102 40.6425L25.81 35.2646L27.1316 36.3459L24.0708 40.087L28.544 43.7467L31.7129 39.8734L33.0345 40.9546L28.5265 46.4647ZM26.7972 42.5213L25.5163 41.4733L28.3192 38.0473L29.6002 39.0953L26.7972 42.5213Z" fill="#263333" fill-opacity="0.6"/>
<path d="M23.4007 55.0465L16.9287 51.335L15.465 53.8873L13.9609 53.0247L17.9469 46.0742L19.451 46.9368L17.9873 49.4891L24.4592 53.2006L23.4007 55.0465Z" fill="#263333" fill-opacity="0.6"/>
<path d="M18.9854 66.3505C18.7424 67.0355 18.4054 67.6314 17.9747 68.1382C17.5468 68.6368 17.0546 69.0289 16.4979 69.3145C15.9442 69.5919 15.3525 69.7536 14.7229 69.7996C14.0963 69.8373 13.4611 69.742 12.8174 69.5135C12.1737 69.2851 11.6206 68.9587 11.1579 68.5343C10.6982 68.1017 10.3423 67.5991 10.0902 67.0264C9.83816 66.4538 9.70323 65.8391 9.68544 65.1824C9.66764 64.5256 9.77882 63.8589 10.019 63.1822C10.2621 62.4973 10.5961 61.9096 11.021 61.4193C11.4488 60.9207 11.9396 60.5327 12.4933 60.2554C13.05 59.9698 13.6431 59.804 14.2727 59.7579C14.894 59.709 15.5307 59.8002 16.1826 60.0316C16.8263 60.26 17.3821 60.592 17.8501 61.0276C18.3098 61.4602 18.6657 61.9628 18.9178 62.5355C19.1645 63.0969 19.2968 63.706 19.3146 64.3628C19.3353 65.0112 19.2256 65.6738 18.9854 66.3505ZM17.2728 65.7566C17.4105 65.3688 17.4704 64.9905 17.4526 64.6218C17.4377 64.2448 17.3504 63.8886 17.1907 63.5532C17.031 63.2178 16.8054 62.924 16.5139 62.6719C16.2253 62.4115 15.8748 62.2081 15.4621 62.0617C15.0495 61.9152 14.6491 61.8521 14.261 61.8723C13.8758 61.8843 13.5155 61.9701 13.18 62.1298C12.8475 62.2813 12.5567 62.4986 12.3075 62.7818C12.0583 63.0651 11.8649 63.4006 11.7272 63.7885C11.5896 64.1763 11.5282 64.5588 11.5431 64.9357C11.5609 65.3044 11.6496 65.6565 11.8094 65.9919C11.9691 66.3273 12.1932 66.6253 12.4817 66.8856C12.7732 67.1377 13.1253 67.337 13.5379 67.4835C13.9423 67.627 14.3412 67.6942 14.7346 67.6852C15.1228 67.665 15.4831 67.5792 15.8156 67.4277C16.151 67.268 16.4434 67.0465 16.6925 66.7633C16.9417 66.4801 17.1352 66.1445 17.2728 65.7566Z" fill="#263333" fill-opacity="0.6"/>
<path d="M15.6805 78.4359L6.64453 76.7357L7.03801 74.6445L16.074 76.3447L15.6805 78.4359Z" fill="#263333" fill-opacity="0.6"/>
<path d="M15.214 87.5641C15.1755 88.2986 15.0425 88.9975 14.8148 89.6608C14.5784 90.3236 14.292 90.8522 13.9557 91.2467L12.3932 90.4415C12.6937 90.0626 12.9497 89.6113 13.1612 89.0875C13.3645 88.5545 13.4806 88.0125 13.5095 87.4616C13.5315 87.0419 13.5098 86.7031 13.4443 86.4454C13.3706 86.1785 13.2627 85.9799 13.1204 85.8497C12.9782 85.7195 12.8109 85.6494 12.6185 85.6393C12.3736 85.6264 12.1762 85.7126 12.0262 85.8976C11.8675 86.0822 11.7361 86.3296 11.6322 86.6398C11.5195 86.9496 11.4137 87.2948 11.3149 87.6755C11.2077 88.0469 11.0829 88.4218 10.9403 88.8002C10.7982 89.1698 10.6227 89.5069 10.4138 89.8117C10.2049 90.1164 9.9378 90.3611 9.61246 90.5457C9.28757 90.7216 8.88027 90.7967 8.39057 90.7711C7.86589 90.7436 7.39663 90.5787 6.9828 90.2764C6.56069 89.9649 6.23772 89.5183 6.0139 88.9367C5.7818 88.3458 5.68842 87.6175 5.73378 86.7517C5.76401 86.1746 5.86375 85.6098 6.03298 85.0575C6.19347 84.5047 6.42048 84.0212 6.71402 83.6069L8.29305 84.3473C8.02575 84.7629 7.82404 85.182 7.68791 85.6046C7.54304 86.0266 7.45983 86.4432 7.4383 86.8542C7.41677 87.2652 7.44723 87.6044 7.52968 87.8718C7.61213 88.1391 7.72907 88.3338 7.88052 88.4557C8.02323 88.5772 8.19514 88.6432 8.39627 88.6537C8.63238 88.6661 8.8298 88.58 8.98854 88.3954C9.13853 88.2103 9.2655 87.9627 9.36944 87.6525C9.47338 87.3422 9.57892 87.0014 9.68606 86.63C9.79367 86.2498 9.91416 85.8747 10.0475 85.5046C10.1814 85.1258 10.3527 84.784 10.5616 84.4793C10.7705 84.1745 11.0374 83.9342 11.3623 83.7583C11.6876 83.5737 12.0908 83.494 12.5717 83.5192C13.0876 83.5462 13.5523 83.7152 13.9657 84.0263C14.379 84.3373 14.7018 84.7882 14.9339 85.3791C15.1665 85.9613 15.2598 86.6896 15.214 87.5641Z" fill="#263333" fill-opacity="0.6"/>
<path d="M15.4257 98.6615L6.26308 99.4269L6.08594 97.3064L15.2485 96.541L15.4257 98.6615Z" fill="#263333" fill-opacity="0.6"/>
<path d="M17.9182 110.578L8.94173 112.569L7.4375 105.785L9.10456 105.416L10.1481 110.122L17.4576 108.501L17.9182 110.578ZM14.2217 109.38L12.5546 109.75L11.5992 105.441L13.2662 105.071L14.2217 109.38Z" fill="#263333" fill-opacity="0.6"/>
<path d="M74.1596 73.4604C74.1596 73.7309 74.1456 73.964 74.1176 74.1598C74.099 74.3463 74.0663 74.5001 74.0197 74.6214C73.9731 74.7333 73.9125 74.8172 73.8379 74.8731C73.7726 74.9291 73.698 74.957 73.6141 74.957H69.0823V89.5454C69.0823 89.6387 69.0497 89.7226 68.9844 89.7972C68.9285 89.8718 68.8306 89.9324 68.6907 89.979C68.5508 90.0257 68.3597 90.063 68.1172 90.0909C67.8841 90.1189 67.5904 90.1329 67.236 90.1329C66.8817 90.1329 66.5833 90.1189 66.3409 90.0909C66.1078 90.063 65.9213 90.0257 65.7814 89.979C65.6415 89.9324 65.539 89.8718 65.4737 89.7972C65.4177 89.7226 65.3898 89.6387 65.3898 89.5454V74.957H60.858C60.7647 74.957 60.6855 74.9291 60.6202 74.8731C60.5549 74.8172 60.499 74.7333 60.4524 74.6214C60.4057 74.5001 60.3684 74.3463 60.3405 74.1598C60.3218 73.964 60.3125 73.7309 60.3125 73.4604C60.3125 73.1807 60.3218 72.9429 60.3405 72.7471C60.3684 72.5513 60.4057 72.3974 60.4524 72.2855C60.499 72.1643 60.5549 72.0804 60.6202 72.0338C60.6855 71.9778 60.7647 71.9499 60.858 71.9499H73.6141C73.698 71.9499 73.7726 71.9778 73.8379 72.0338C73.9125 72.0804 73.9731 72.1643 74.0197 72.2855C74.0663 72.3974 74.099 72.5513 74.1176 72.7471C74.1456 72.9429 74.1596 73.1807 74.1596 73.4604Z" fill="#00555C"/>
<path d="M82.9624 89.6154C82.9624 89.7459 82.9158 89.8485 82.8225 89.9231C82.7293 89.9977 82.5801 90.049 82.375 90.0769C82.1791 90.1142 81.8854 90.1329 81.4938 90.1329C81.0742 90.1329 80.7665 90.1142 80.5706 90.0769C80.3842 90.049 80.2489 89.9977 80.165 89.9231C80.0904 89.8485 80.0531 89.7459 80.0531 89.6154V88.6223C79.5403 89.1725 78.9528 89.6014 78.2908 89.9091C77.638 90.2168 76.9107 90.3707 76.1088 90.3707C75.4468 90.3707 74.836 90.2821 74.2765 90.1049C73.7264 89.9371 73.2461 89.6853 72.8359 89.3496C72.4349 89.0046 72.1225 88.5803 71.8987 88.0768C71.6749 87.5733 71.563 86.9858 71.563 86.3145C71.563 85.5871 71.7029 84.9577 71.9827 84.4262C72.2717 83.8854 72.696 83.4425 73.2555 83.0975C73.8243 82.7431 74.5283 82.482 75.3675 82.3142C76.2067 82.1463 77.1811 82.0624 78.2908 82.0624H79.5076V81.3071C79.5076 80.9155 79.4657 80.5751 79.3818 80.2861C79.3072 79.9877 79.1766 79.7406 78.9901 79.5448C78.813 79.349 78.5705 79.2044 78.2628 79.1112C77.9644 79.0179 77.5914 78.9713 77.1438 78.9713C76.5564 78.9713 76.0295 79.0366 75.5633 79.1671C75.1064 79.2977 74.7008 79.4422 74.3465 79.6007C73.9921 79.7592 73.6937 79.9038 73.4513 80.0343C73.2182 80.1649 73.027 80.2301 72.8778 80.2301C72.7753 80.2301 72.682 80.1975 72.5981 80.1322C72.5235 80.0669 72.4582 79.9737 72.4023 79.8525C72.3556 79.7313 72.3183 79.5821 72.2904 79.4049C72.2624 79.2277 72.2484 79.0319 72.2484 78.8174C72.2484 78.5284 72.2717 78.2999 72.3183 78.1321C72.365 77.9642 72.4536 77.8151 72.5841 77.6845C72.7146 77.5446 72.9431 77.3954 73.2695 77.2369C73.5958 77.0691 73.9781 76.9152 74.4164 76.7754C74.8546 76.6355 75.3302 76.5236 75.8431 76.4397C76.3652 76.3464 76.9014 76.2998 77.4516 76.2998C78.4306 76.2998 79.2652 76.3977 79.9552 76.5935C80.6546 76.78 81.228 77.0737 81.6756 77.4747C82.1232 77.8663 82.4496 78.3745 82.6547 78.9993C82.8598 79.624 82.9624 80.3653 82.9624 81.2232V89.6154ZM79.5076 84.2724H78.1649C77.5961 84.2724 77.1112 84.3143 76.7102 84.3982C76.3093 84.4822 75.9829 84.608 75.7312 84.7759C75.4794 84.9437 75.2929 85.1489 75.1717 85.3913C75.0598 85.6244 75.0038 85.8948 75.0038 86.2026C75.0038 86.7247 75.167 87.135 75.4934 87.4334C75.8291 87.7318 76.2906 87.881 76.8781 87.881C77.3723 87.881 77.8245 87.7551 78.2348 87.5033C78.6544 87.2516 79.0787 86.8833 79.5076 86.3984V84.2724Z" fill="#00555C"/>
<path d="M96.8145 76.6215C97.2062 76.6215 97.4766 76.7054 97.6258 76.8733C97.7843 77.0411 97.8636 77.2835 97.8636 77.6006V89.5734C97.8636 89.6667 97.8356 89.7506 97.7796 89.8252C97.7237 89.8905 97.6304 89.9464 97.4999 89.993C97.3694 90.0396 97.1875 90.0723 96.9544 90.0909C96.7306 90.1189 96.4509 90.1329 96.1152 90.1329C95.7702 90.1329 95.4811 90.1189 95.248 90.0909C95.0242 90.0723 94.847 90.0396 94.7165 89.993C94.5859 89.9464 94.4927 89.8905 94.4368 89.8252C94.3808 89.7506 94.3528 89.6667 94.3528 89.5734V79.4748H88.7441V85.3354C88.7441 86.0161 88.8513 86.5289 89.0658 86.8739C89.2802 87.2096 89.6625 87.3775 90.2127 87.3775C90.3992 87.3775 90.567 87.3635 90.7162 87.3355C90.8654 87.2982 90.996 87.2609 91.1079 87.2236C91.2291 87.177 91.327 87.1397 91.4016 87.1117C91.4855 87.0744 91.5601 87.0558 91.6254 87.0558C91.6813 87.0558 91.7326 87.0744 91.7792 87.1117C91.8352 87.1397 91.8771 87.205 91.9051 87.3075C91.9331 87.4008 91.9564 87.5313 91.9751 87.6992C92.003 87.867 92.017 88.0815 92.017 88.3426C92.017 88.7528 91.9937 89.0652 91.9471 89.2797C91.9005 89.4848 91.8352 89.6387 91.7513 89.7413C91.6673 89.8345 91.5415 89.9184 91.3736 89.993C91.2058 90.0583 91.01 90.1142 90.7862 90.1609C90.5717 90.2168 90.3339 90.2588 90.0728 90.2868C89.8211 90.3147 89.5646 90.3287 89.3035 90.3287C88.6042 90.3287 87.9981 90.2401 87.4852 90.063C86.9724 89.8858 86.5481 89.6154 86.2124 89.2517C85.8767 88.8787 85.6296 88.4125 85.4711 87.853C85.3126 87.2935 85.2333 86.6315 85.2333 85.8669V79.4748H83.7367C83.5596 79.4748 83.4244 79.3676 83.3311 79.1531C83.2379 78.9293 83.1912 78.561 83.1912 78.0482C83.1912 77.7778 83.2006 77.5493 83.2192 77.3628C83.2472 77.1763 83.2845 77.0318 83.3311 76.9292C83.3777 76.8173 83.4337 76.7381 83.499 76.6914C83.5736 76.6448 83.6575 76.6215 83.7507 76.6215H85.2333V73.8381C85.2333 73.7448 85.2567 73.6609 85.3033 73.5863C85.3592 73.5117 85.4525 73.4511 85.583 73.4045C85.7229 73.3485 85.9047 73.3113 86.1285 73.2926C86.3616 73.2646 86.646 73.2506 86.9817 73.2506C87.3267 73.2506 87.6111 73.2646 87.8349 73.2926C88.068 73.3113 88.2499 73.3485 88.3804 73.4045C88.511 73.4511 88.6042 73.5117 88.6601 73.5863C88.7161 73.6609 88.7441 73.7448 88.7441 73.8381V76.6215H96.8145ZM98.1433 72.873C98.1433 73.5817 97.9988 74.0712 97.7097 74.3416C97.4206 74.612 96.8845 74.7472 96.1012 74.7472C95.3086 74.7472 94.7724 74.6167 94.4927 74.3556C94.2223 74.0945 94.0871 73.6236 94.0871 72.9429C94.0871 72.2343 94.227 71.7447 94.5067 71.4743C94.7958 71.1946 95.3366 71.0547 96.1292 71.0547C96.9124 71.0547 97.4439 71.1899 97.7237 71.4603C98.0034 71.7214 98.1433 72.1923 98.1433 72.873Z" fill="#00555C"/>
<path d="M110.471 89.6154C110.471 89.7459 110.424 89.8485 110.331 89.9231C110.238 89.9977 110.089 90.049 109.883 90.0769C109.688 90.1142 109.394 90.1329 109.002 90.1329C108.583 90.1329 108.275 90.1142 108.079 90.0769C107.893 90.049 107.757 89.9977 107.673 89.9231C107.599 89.8485 107.562 89.7459 107.562 89.6154V88.6223C107.049 89.1725 106.461 89.6014 105.799 89.9091C105.146 90.2168 104.419 90.3707 103.617 90.3707C102.955 90.3707 102.344 90.2821 101.785 90.1049C101.235 89.9371 100.755 89.6853 100.344 89.3496C99.9433 89.0046 99.631 88.5803 99.4072 88.0768C99.1834 87.5733 99.0715 86.9858 99.0715 86.3145C99.0715 85.5871 99.2113 84.9577 99.4911 84.4262C99.7801 83.8854 100.204 83.4425 100.764 83.0975C101.333 82.7431 102.037 82.482 102.876 82.3142C103.715 82.1463 104.69 82.0624 105.799 82.0624H107.016V81.3071C107.016 80.9155 106.974 80.5751 106.89 80.2861C106.816 79.9877 106.685 79.7406 106.499 79.5448C106.321 79.349 106.079 79.2044 105.771 79.1112C105.473 79.0179 105.1 78.9713 104.652 78.9713C104.065 78.9713 103.538 79.0366 103.072 79.1671C102.615 79.2977 102.209 79.4422 101.855 79.6007C101.501 79.7592 101.202 79.9038 100.96 80.0343C100.727 80.1649 100.535 80.2301 100.386 80.2301C100.284 80.2301 100.19 80.1975 100.107 80.1322C100.032 80.0669 99.9666 79.9737 99.9107 79.8525C99.8641 79.7313 99.8268 79.5821 99.7988 79.4049C99.7708 79.2277 99.7568 79.0319 99.7568 78.8174C99.7568 78.5284 99.7801 78.2999 99.8268 78.1321C99.8734 77.9642 99.962 77.8151 100.093 77.6845C100.223 77.5446 100.452 77.3954 100.778 77.2369C101.104 77.0691 101.487 76.9152 101.925 76.7754C102.363 76.6355 102.839 76.5236 103.351 76.4397C103.874 76.3464 104.41 76.2998 104.96 76.2998C105.939 76.2998 106.774 76.3977 107.464 76.5935C108.163 76.78 108.736 77.0737 109.184 77.4747C109.632 77.8663 109.958 78.3745 110.163 78.9993C110.368 79.624 110.471 80.3653 110.471 81.2232V89.6154ZM107.016 84.2724H105.673C105.105 84.2724 104.62 84.3143 104.219 84.3982C103.818 84.4822 103.491 84.608 103.24 84.7759C102.988 84.9437 102.801 85.1489 102.68 85.3913C102.568 85.6244 102.512 85.8948 102.512 86.2026C102.512 86.7247 102.675 87.135 103.002 87.4334C103.337 87.7318 103.799 87.881 104.387 87.881C104.881 87.881 105.333 87.7551 105.743 87.5033C106.163 87.2516 106.587 86.8833 107.016 86.3984V84.2724Z" fill="#00555C"/>
<path d="M124.337 89.5734C124.337 89.6667 124.309 89.7506 124.253 89.8252C124.197 89.8905 124.104 89.9464 123.973 89.993C123.843 90.0396 123.661 90.0723 123.428 90.0909C123.204 90.1189 122.924 90.1329 122.589 90.1329C122.244 90.1329 121.955 90.1189 121.721 90.0909C121.498 90.0723 121.32 90.0396 121.19 89.993C121.059 89.9464 120.966 89.8905 120.91 89.8252C120.854 89.7506 120.826 89.6667 120.826 89.5734V82.4541C120.826 81.848 120.78 81.3724 120.686 81.0274C120.602 80.6824 120.477 80.3886 120.309 80.1462C120.141 79.8944 119.922 79.7033 119.651 79.5727C119.39 79.4329 119.083 79.3629 118.728 79.3629C118.281 79.3629 117.828 79.5261 117.371 79.8525C116.915 80.1788 116.439 80.6544 115.945 81.2792V89.5734C115.945 89.6667 115.917 89.7506 115.861 89.8252C115.805 89.8905 115.707 89.9464 115.567 89.993C115.437 90.0396 115.259 90.0723 115.036 90.0909C114.812 90.1189 114.527 90.1329 114.182 90.1329C113.837 90.1329 113.553 90.1189 113.329 90.0909C113.105 90.0723 112.924 90.0396 112.784 89.993C112.653 89.9464 112.56 89.8905 112.504 89.8252C112.448 89.7506 112.42 89.6667 112.42 89.5734V77.0971C112.42 77.0038 112.443 76.9245 112.49 76.8593C112.537 76.7847 112.621 76.7241 112.742 76.6774C112.863 76.6308 113.017 76.5982 113.203 76.5795C113.399 76.5516 113.642 76.5376 113.931 76.5376C114.229 76.5376 114.476 76.5516 114.672 76.5795C114.868 76.5982 115.017 76.6308 115.12 76.6774C115.231 76.7241 115.311 76.7847 115.357 76.8593C115.404 76.9245 115.427 77.0038 115.427 77.0971V78.5377C116.117 77.7917 116.817 77.2323 117.525 76.8593C118.243 76.4863 118.989 76.2998 119.763 76.2998C120.612 76.2998 121.325 76.4397 121.903 76.7194C122.491 76.9991 122.962 77.3815 123.316 77.8663C123.68 78.3419 123.941 78.9014 124.099 79.5448C124.258 80.1882 124.337 80.9621 124.337 81.8666V89.5734Z" fill="#00555C"/>
<path d="M136.86 89.6154C136.86 89.7459 136.814 89.8485 136.72 89.9231C136.627 89.9977 136.478 90.049 136.273 90.0769C136.077 90.1142 135.783 90.1329 135.392 90.1329C134.972 90.1329 134.664 90.1142 134.469 90.0769C134.282 90.049 134.147 89.9977 134.063 89.9231C133.988 89.8485 133.951 89.7459 133.951 89.6154V88.6223C133.438 89.1725 132.851 89.6014 132.189 89.9091C131.536 90.2168 130.809 90.3707 130.007 90.3707C129.345 90.3707 128.734 90.2821 128.174 90.1049C127.624 89.9371 127.144 89.6853 126.734 89.3496C126.333 89.0046 126.02 88.5803 125.797 88.0768C125.573 87.5733 125.461 86.9858 125.461 86.3145C125.461 85.5871 125.601 84.9577 125.881 84.4262C126.17 83.8854 126.594 83.4425 127.153 83.0975C127.722 82.7431 128.426 82.482 129.265 82.3142C130.105 82.1463 131.079 82.0624 132.189 82.0624H133.406V81.3071C133.406 80.9155 133.364 80.5751 133.28 80.2861C133.205 79.9877 133.075 79.7406 132.888 79.5448C132.711 79.349 132.468 79.2044 132.161 79.1112C131.862 79.0179 131.489 78.9713 131.042 78.9713C130.454 78.9713 129.927 79.0366 129.461 79.1671C129.004 79.2977 128.599 79.4422 128.244 79.6007C127.89 79.7592 127.592 79.9038 127.349 80.0343C127.116 80.1649 126.925 80.2301 126.776 80.2301C126.673 80.2301 126.58 80.1975 126.496 80.1322C126.421 80.0669 126.356 79.9737 126.3 79.8525C126.254 79.7313 126.216 79.5821 126.188 79.4049C126.16 79.2277 126.146 79.0319 126.146 78.8174C126.146 78.5284 126.17 78.2999 126.216 78.1321C126.263 77.9642 126.351 77.8151 126.482 77.6845C126.613 77.5446 126.841 77.3954 127.167 77.2369C127.494 77.0691 127.876 76.9152 128.314 76.7754C128.753 76.6355 129.228 76.5236 129.741 76.4397C130.263 76.3464 130.799 76.2998 131.349 76.2998C132.329 76.2998 133.163 76.3977 133.853 76.5935C134.552 76.78 135.126 77.0737 135.574 77.4747C136.021 77.8663 136.347 78.3745 136.553 78.9993C136.758 79.624 136.86 80.3653 136.86 81.2232V89.6154ZM133.406 84.2724H132.063C131.494 84.2724 131.009 84.3143 130.608 84.3982C130.207 84.4822 129.881 84.608 129.629 84.7759C129.377 84.9437 129.191 85.1489 129.07 85.3913C128.958 85.6244 128.902 85.8948 128.902 86.2026C128.902 86.7247 129.065 87.135 129.391 87.4334C129.727 87.7318 130.189 87.881 130.776 87.881C131.27 87.881 131.722 87.7551 132.133 87.5033C132.552 87.2516 132.977 86.8833 133.406 86.3984V84.2724Z" fill="#00555C"/>
<path d="M74.3945 93.583C74.3945 93.84 74.3816 94.0584 74.3559 94.2383C74.3388 94.4096 74.3045 94.5466 74.2531 94.6494C74.2103 94.7522 74.1589 94.8293 74.0989 94.8807C74.039 94.9321 73.9705 94.9578 73.8934 94.9578H68.4584V99.4291H73.5593C73.6364 99.4291 73.7049 99.4505 73.7649 99.4933C73.8248 99.5362 73.8762 99.609 73.9191 99.7118C73.9705 99.8146 74.0047 99.9516 74.0219 100.123C74.0476 100.294 74.0604 100.508 74.0604 100.765C74.0604 101.022 74.0476 101.236 74.0219 101.408C74.0047 101.579 73.9705 101.72 73.9191 101.832C73.8762 101.943 73.8248 102.025 73.7649 102.076C73.7049 102.119 73.6364 102.14 73.5593 102.14H68.4584V108.333C68.4584 108.427 68.4327 108.509 68.3813 108.577C68.3299 108.646 68.2357 108.706 68.0987 108.757C67.9702 108.8 67.7989 108.834 67.5847 108.86C67.3706 108.886 67.0965 108.898 66.7624 108.898C66.4369 108.898 66.1628 108.886 65.9401 108.86C65.726 108.834 65.5547 108.8 65.4262 108.757C65.2977 108.706 65.2035 108.646 65.1435 108.577C65.0921 108.509 65.0664 108.427 65.0664 108.333V93.2618C65.0664 92.8849 65.1606 92.6151 65.3491 92.4523C65.5461 92.281 65.7859 92.1954 66.0686 92.1954H73.8934C73.9705 92.1954 74.039 92.2211 74.0989 92.2724C74.1589 92.3153 74.2103 92.3924 74.2531 92.5037C74.3045 92.6065 74.3388 92.7478 74.3559 92.9277C74.3816 93.1076 74.3945 93.326 74.3945 93.583Z" fill="#00555C"/>
<path d="M85.8374 102.32C85.8374 102.714 85.7474 103.005 85.5676 103.194C85.3963 103.382 85.1564 103.476 84.8481 103.476H77.8713C77.8713 103.965 77.927 104.41 78.0383 104.813C78.1582 105.207 78.3424 105.545 78.5908 105.828C78.8478 106.102 79.1733 106.312 79.5673 106.457C79.9699 106.603 80.4496 106.676 81.0063 106.676C81.5717 106.676 82.0685 106.637 82.4968 106.56C82.925 106.474 83.2934 106.384 83.6017 106.29C83.9187 106.187 84.1799 106.097 84.3855 106.02C84.5911 105.935 84.7581 105.892 84.8866 105.892C84.9637 105.892 85.0279 105.909 85.0793 105.943C85.1307 105.969 85.1735 106.02 85.2078 106.097C85.2421 106.175 85.2635 106.286 85.2721 106.432C85.2892 106.569 85.2978 106.744 85.2978 106.958C85.2978 107.147 85.2935 107.31 85.2849 107.447C85.2763 107.575 85.2635 107.686 85.2464 107.781C85.2292 107.875 85.2035 107.956 85.1693 108.025C85.135 108.085 85.0879 108.145 85.0279 108.205C84.9765 108.265 84.8266 108.346 84.5782 108.449C84.3298 108.552 84.0129 108.654 83.6274 108.757C83.242 108.851 82.8008 108.933 82.304 109.001C81.8072 109.078 81.2762 109.117 80.7108 109.117C79.6915 109.117 78.7964 108.988 78.0255 108.731C77.2631 108.474 76.625 108.085 76.111 107.562C75.5971 107.04 75.2116 106.38 74.9547 105.584C74.7063 104.787 74.5821 103.853 74.5821 102.783C74.5821 101.763 74.7148 100.847 74.9804 100.033C75.2459 99.2107 75.6313 98.5168 76.1367 97.9515C76.6421 97.3776 77.2546 96.9408 77.9741 96.641C78.7022 96.3412 79.5202 96.1913 80.4281 96.1913C81.3875 96.1913 82.2055 96.3326 82.8822 96.6153C83.5675 96.8979 84.1285 97.292 84.5654 97.7973C85.0022 98.2941 85.3234 98.8852 85.529 99.5704C85.7346 100.256 85.8374 101.001 85.8374 101.806V102.32ZM82.7023 101.395C82.728 100.487 82.5439 99.776 82.1499 99.2621C81.7644 98.7396 81.1648 98.4783 80.3511 98.4783C79.9399 98.4783 79.5801 98.5554 79.2718 98.7096C78.972 98.8638 78.7193 99.0736 78.5137 99.3392C78.3167 99.5961 78.1625 99.9045 78.0512 100.264C77.9484 100.615 77.8884 100.992 77.8713 101.395H82.7023Z" fill="#00555C"/>
<path d="M94.5564 97.9901C94.5564 98.2984 94.5479 98.5511 94.5307 98.7481C94.5136 98.9451 94.4879 99.0993 94.4536 99.2107C94.4194 99.322 94.3723 99.3991 94.3123 99.4419C94.2609 99.4848 94.1924 99.5062 94.1067 99.5062C94.0382 99.5062 93.9611 99.4933 93.8755 99.4676C93.7898 99.4334 93.6913 99.3991 93.5799 99.3649C93.4771 99.3306 93.3615 99.3006 93.233 99.2749C93.1045 99.2406 92.9632 99.2235 92.809 99.2235C92.6291 99.2235 92.4493 99.2621 92.2694 99.3392C92.0895 99.4077 91.9011 99.519 91.704 99.6732C91.5156 99.8274 91.3143 100.033 91.1002 100.29C90.8946 100.547 90.6719 100.864 90.432 101.241V108.385C90.432 108.47 90.4063 108.547 90.3549 108.616C90.3036 108.676 90.2136 108.727 90.0851 108.77C89.9652 108.813 89.8025 108.843 89.5969 108.86C89.3913 108.886 89.13 108.898 88.8131 108.898C88.4962 108.898 88.2349 108.886 88.0294 108.86C87.8238 108.843 87.6567 108.813 87.5283 108.77C87.4083 108.727 87.3227 108.676 87.2713 108.616C87.2199 108.547 87.1942 108.47 87.1942 108.385V96.9236C87.1942 96.838 87.2156 96.7652 87.2584 96.7052C87.3013 96.6367 87.3784 96.581 87.4897 96.5382C87.6011 96.4953 87.7424 96.4654 87.9137 96.4482C88.0936 96.4225 88.3163 96.4097 88.5818 96.4097C88.8559 96.4097 89.0829 96.4225 89.2628 96.4482C89.4427 96.4654 89.5797 96.4953 89.674 96.5382C89.7768 96.581 89.8496 96.6367 89.8924 96.7052C89.9352 96.7652 89.9566 96.838 89.9566 96.9236V98.3498C90.2564 97.9215 90.5391 97.5703 90.8046 97.2962C91.0702 97.0136 91.3229 96.7909 91.5627 96.6281C91.8025 96.4654 92.0424 96.354 92.2822 96.294C92.5221 96.2255 92.7619 96.1913 93.0017 96.1913C93.1131 96.1913 93.233 96.1998 93.3615 96.217C93.49 96.2255 93.6228 96.2469 93.7598 96.2812C93.8969 96.3069 94.0168 96.3412 94.1196 96.384C94.2224 96.4182 94.2952 96.4568 94.338 96.4996C94.3894 96.5425 94.4237 96.5896 94.4408 96.641C94.4665 96.6924 94.4879 96.7652 94.505 96.8594C94.5222 96.945 94.535 97.0778 94.5436 97.2577C94.5521 97.4376 94.5564 97.6817 94.5564 97.9901Z" fill="#00555C"/>
<path d="M102.594 97.9901C102.594 98.2984 102.586 98.5511 102.569 98.7481C102.552 98.9451 102.526 99.0993 102.492 99.2107C102.457 99.322 102.41 99.3991 102.35 99.4419C102.299 99.4848 102.23 99.5062 102.145 99.5062C102.076 99.5062 101.999 99.4933 101.914 99.4676C101.828 99.4334 101.729 99.3991 101.618 99.3649C101.515 99.3306 101.4 99.3006 101.271 99.2749C101.143 99.2406 101.001 99.2235 100.847 99.2235C100.667 99.2235 100.487 99.2621 100.307 99.3392C100.128 99.4077 99.9391 99.519 99.7421 99.6732C99.5537 99.8274 99.3524 100.033 99.1382 100.29C98.9326 100.547 98.7099 100.864 98.4701 101.241V108.385C98.4701 108.47 98.4444 108.547 98.393 108.616C98.3416 108.676 98.2517 108.727 98.1232 108.77C98.0033 108.813 97.8405 108.843 97.6349 108.86C97.4294 108.886 97.1681 108.898 96.8512 108.898C96.5342 108.898 96.273 108.886 96.0674 108.86C95.8618 108.843 95.6948 108.813 95.5663 108.77C95.4464 108.727 95.3607 108.676 95.3094 108.616C95.258 108.547 95.2323 108.47 95.2323 108.385V96.9236C95.2323 96.838 95.2537 96.7652 95.2965 96.7052C95.3393 96.6367 95.4164 96.581 95.5278 96.5382C95.6391 96.4953 95.7805 96.4654 95.9518 96.4482C96.1317 96.4225 96.3544 96.4097 96.6199 96.4097C96.894 96.4097 97.121 96.4225 97.3009 96.4482C97.4808 96.4654 97.6178 96.4953 97.712 96.5382C97.8148 96.581 97.8876 96.6367 97.9305 96.7052C97.9733 96.7652 97.9947 96.838 97.9947 96.9236V98.3498C98.2945 97.9215 98.5772 97.5703 98.8427 97.2962C99.1082 97.0136 99.3609 96.7909 99.6008 96.6281C99.8406 96.4654 100.08 96.354 100.32 96.294C100.56 96.2255 100.8 96.1913 101.04 96.1913C101.151 96.1913 101.271 96.1998 101.4 96.217C101.528 96.2255 101.661 96.2469 101.798 96.2812C101.935 96.3069 102.055 96.3412 102.158 96.384C102.26 96.4182 102.333 96.4568 102.376 96.4996C102.427 96.5425 102.462 96.5896 102.479 96.641C102.505 96.6924 102.526 96.7652 102.543 96.8594C102.56 96.945 102.573 97.0778 102.582 97.2577C102.59 97.4376 102.594 97.6817 102.594 97.9901Z" fill="#00555C"/>
<path d="M113.549 102.32C113.549 102.714 113.459 103.005 113.279 103.194C113.108 103.382 112.868 103.476 112.56 103.476H105.583C105.583 103.965 105.639 104.41 105.75 104.813C105.87 105.207 106.054 105.545 106.303 105.828C106.56 106.102 106.885 106.312 107.279 106.457C107.682 106.603 108.161 106.676 108.718 106.676C109.283 106.676 109.78 106.637 110.209 106.56C110.637 106.474 111.005 106.384 111.314 106.29C111.63 106.187 111.892 106.097 112.097 106.02C112.303 105.935 112.47 105.892 112.598 105.892C112.675 105.892 112.74 105.909 112.791 105.943C112.842 105.969 112.885 106.02 112.92 106.097C112.954 106.175 112.975 106.286 112.984 106.432C113.001 106.569 113.01 106.744 113.01 106.958C113.01 107.147 113.005 107.31 112.997 107.447C112.988 107.575 112.975 107.686 112.958 107.781C112.941 107.875 112.915 107.956 112.881 108.025C112.847 108.085 112.8 108.145 112.74 108.205C112.688 108.265 112.538 108.346 112.29 108.449C112.042 108.552 111.725 108.654 111.339 108.757C110.954 108.851 110.513 108.933 110.016 109.001C109.519 109.078 108.988 109.117 108.423 109.117C107.403 109.117 106.508 108.988 105.737 108.731C104.975 108.474 104.337 108.085 103.823 107.562C103.309 107.04 102.923 106.38 102.666 105.584C102.418 104.787 102.294 103.853 102.294 102.783C102.294 101.763 102.427 100.847 102.692 100.033C102.958 99.2107 103.343 98.5168 103.849 97.9515C104.354 97.3776 104.966 96.9408 105.686 96.641C106.414 96.3412 107.232 96.1913 108.14 96.1913C109.099 96.1913 109.917 96.3326 110.594 96.6153C111.279 96.8979 111.84 97.292 112.277 97.7973C112.714 98.2941 113.035 98.8852 113.241 99.5704C113.446 100.256 113.549 101.001 113.549 101.806V102.32ZM110.414 101.395C110.44 100.487 110.256 99.776 109.862 99.2621C109.476 98.7396 108.877 98.4783 108.063 98.4783C107.652 98.4783 107.292 98.5554 106.984 98.7096C106.684 98.8638 106.431 99.0736 106.225 99.3392C106.028 99.5961 105.874 99.9045 105.763 100.264C105.66 100.615 105.6 100.992 105.583 101.395H110.414Z" fill="#00555C"/>
<path d="M118.144 108.385C118.144 108.47 118.118 108.547 118.067 108.616C118.015 108.676 117.925 108.727 117.797 108.77C117.677 108.813 117.514 108.843 117.309 108.86C117.103 108.886 116.842 108.898 116.525 108.898C116.208 108.898 115.947 108.886 115.741 108.86C115.536 108.843 115.369 108.813 115.24 108.77C115.12 108.727 115.034 108.676 114.983 108.616C114.932 108.547 114.906 108.47 114.906 108.385V96.9493C114.906 96.8637 114.932 96.7909 114.983 96.7309C115.034 96.6624 115.12 96.6067 115.24 96.5639C115.369 96.5125 115.536 96.4739 115.741 96.4482C115.947 96.4225 116.208 96.4097 116.525 96.4097C116.842 96.4097 117.103 96.4225 117.309 96.4482C117.514 96.4739 117.677 96.5125 117.797 96.5639C117.925 96.6067 118.015 96.6624 118.067 96.7309C118.118 96.7909 118.144 96.8637 118.144 96.9493V108.385ZM118.388 93.0434C118.388 93.6944 118.255 94.1441 117.99 94.3925C117.724 94.6409 117.232 94.7651 116.512 94.7651C115.784 94.7651 115.291 94.6451 115.034 94.4053C114.786 94.1655 114.662 93.7329 114.662 93.1076C114.662 92.4566 114.79 92.0069 115.047 91.7585C115.313 91.5015 115.81 91.373 116.538 91.373C117.257 91.373 117.746 91.4972 118.002 91.7457C118.259 91.9855 118.388 92.4181 118.388 93.0434Z" fill="#00555C"/>
<path d="M127.428 97.9901C127.428 98.2984 127.42 98.5511 127.402 98.7481C127.385 98.9451 127.36 99.0993 127.325 99.2107C127.291 99.322 127.244 99.3991 127.184 99.4419C127.133 99.4848 127.064 99.5062 126.978 99.5062C126.91 99.5062 126.833 99.4933 126.747 99.4676C126.662 99.4334 126.563 99.3991 126.452 99.3649C126.349 99.3306 126.233 99.3006 126.105 99.2749C125.976 99.2406 125.835 99.2235 125.681 99.2235C125.501 99.2235 125.321 99.2621 125.141 99.3392C124.961 99.4077 124.773 99.519 124.576 99.6732C124.387 99.8274 124.186 100.033 123.972 100.29C123.766 100.547 123.544 100.864 123.304 101.241V108.385C123.304 108.47 123.278 108.547 123.227 108.616C123.175 108.676 123.085 108.727 122.957 108.77C122.837 108.813 122.674 108.843 122.469 108.86C122.263 108.886 122.002 108.898 121.685 108.898C121.368 108.898 121.107 108.886 120.901 108.86C120.696 108.843 120.529 108.813 120.4 108.77C120.28 108.727 120.194 108.676 120.143 108.616C120.092 108.547 120.066 108.47 120.066 108.385V96.9236C120.066 96.838 120.087 96.7652 120.13 96.7052C120.173 96.6367 120.25 96.581 120.361 96.5382C120.473 96.4953 120.614 96.4654 120.785 96.4482C120.965 96.4225 121.188 96.4097 121.454 96.4097C121.728 96.4097 121.955 96.4225 122.135 96.4482C122.314 96.4654 122.452 96.4953 122.546 96.5382C122.649 96.581 122.721 96.6367 122.764 96.7052C122.807 96.7652 122.828 96.838 122.828 96.9236V98.3498C123.128 97.9215 123.411 97.5703 123.676 97.2962C123.942 97.0136 124.195 96.7909 124.434 96.6281C124.674 96.4654 124.914 96.354 125.154 96.294C125.394 96.2255 125.634 96.1913 125.874 96.1913C125.985 96.1913 126.105 96.1998 126.233 96.217C126.362 96.2255 126.495 96.2469 126.632 96.2812C126.769 96.3069 126.889 96.3412 126.991 96.384C127.094 96.4182 127.167 96.4568 127.21 96.4996C127.261 96.5425 127.295 96.5896 127.313 96.641C127.338 96.6924 127.36 96.7652 127.377 96.8594C127.394 96.945 127.407 97.0778 127.415 97.2577C127.424 97.4376 127.428 97.6817 127.428 97.9901Z" fill="#00555C"/>
<path d="M137.278 108.423C137.278 108.543 137.235 108.637 137.149 108.706C137.064 108.774 136.927 108.821 136.738 108.847C136.558 108.881 136.289 108.898 135.929 108.898C135.543 108.898 135.261 108.881 135.081 108.847C134.909 108.821 134.785 108.774 134.708 108.706C134.64 108.637 134.605 108.543 134.605 108.423V107.511C134.134 108.016 133.595 108.41 132.986 108.693C132.387 108.976 131.719 109.117 130.982 109.117C130.374 109.117 129.813 109.036 129.299 108.873C128.794 108.719 128.352 108.487 127.976 108.179C127.607 107.862 127.32 107.472 127.115 107.01C126.909 106.547 126.806 106.008 126.806 105.391C126.806 104.723 126.935 104.145 127.192 103.656C127.457 103.159 127.847 102.753 128.361 102.436C128.883 102.11 129.53 101.87 130.301 101.716C131.072 101.562 131.967 101.485 132.986 101.485H134.104V100.791C134.104 100.431 134.066 100.119 133.989 99.8531C133.92 99.579 133.8 99.352 133.629 99.1721C133.466 98.9922 133.243 98.8595 132.961 98.7738C132.687 98.6882 132.344 98.6453 131.933 98.6453C131.393 98.6453 130.909 98.7053 130.481 98.8252C130.061 98.9451 129.689 99.0779 129.363 99.2235C129.038 99.3691 128.764 99.5019 128.541 99.6218C128.327 99.7417 128.151 99.8017 128.014 99.8017C127.92 99.8017 127.834 99.7717 127.757 99.7118C127.689 99.6518 127.629 99.5661 127.577 99.4548C127.534 99.3434 127.5 99.2064 127.474 99.0436C127.449 98.8809 127.436 98.701 127.436 98.504C127.436 98.2385 127.457 98.0286 127.5 97.8744C127.543 97.7202 127.624 97.5832 127.744 97.4633C127.864 97.3348 128.074 97.1977 128.374 97.0521C128.674 96.8979 129.025 96.7566 129.427 96.6281C129.83 96.4996 130.267 96.3968 130.738 96.3197C131.218 96.2341 131.71 96.1913 132.216 96.1913C133.115 96.1913 133.882 96.2812 134.515 96.4611C135.158 96.6324 135.685 96.9022 136.096 97.2705C136.507 97.6303 136.807 98.0971 136.995 98.671C137.184 99.2449 137.278 99.9259 137.278 100.714V108.423ZM134.104 103.515H132.871C132.348 103.515 131.903 103.553 131.535 103.631C131.166 103.708 130.866 103.823 130.635 103.977C130.404 104.132 130.233 104.32 130.121 104.543C130.018 104.757 129.967 105.005 129.967 105.288C129.967 105.768 130.117 106.145 130.417 106.419C130.725 106.693 131.149 106.83 131.689 106.83C132.143 106.83 132.558 106.714 132.935 106.483C133.321 106.252 133.71 105.913 134.104 105.468V103.515Z" fill="#00555C"/>
<path d="M143.003 106.971C143.003 107.768 142.862 108.303 142.579 108.577C142.305 108.851 141.808 108.988 141.089 108.988C140.369 108.988 139.872 108.856 139.598 108.59C139.324 108.316 139.187 107.802 139.187 107.048C139.187 106.243 139.324 105.703 139.598 105.429C139.881 105.155 140.386 105.018 141.114 105.018C141.825 105.018 142.318 105.155 142.592 105.429C142.866 105.695 143.003 106.209 143.003 106.971Z" fill="#00A98A"/>
<path d="M65.1928 65.8077C65.1928 66.2998 65.1278 66.7215 64.9979 67.0726C64.8707 67.421 64.6868 67.7058 64.4463 67.927C64.2057 68.1482 63.9127 68.3113 63.567 68.4164C63.2242 68.5187 62.815 68.5698 62.3394 68.5698H61.0579C60.9666 68.5698 60.8892 68.5436 60.8256 68.491C60.7648 68.4357 60.7344 68.3473 60.7344 68.2256V63.5474C60.7344 63.4257 60.7648 63.3386 60.8256 63.2861C60.8892 63.2308 60.9666 63.2031 61.0579 63.2031H62.4348C62.9131 63.2031 63.3182 63.2598 63.65 63.3732C63.9845 63.4838 64.2652 63.6497 64.4919 63.8709C64.7214 64.0893 64.8956 64.3602 65.0145 64.6837C65.1334 65.0072 65.1928 65.3819 65.1928 65.8077ZM64.0647 65.845C64.0647 65.5906 64.0343 65.3542 63.9735 65.1358C63.9154 64.9174 63.82 64.728 63.6873 64.5676C63.5574 64.4072 63.3887 64.2828 63.1813 64.1944C62.9767 64.1031 62.7071 64.0575 62.3726 64.0575H61.821V67.7072H62.3892C62.6878 67.7072 62.9394 67.6685 63.144 67.5911C63.3486 67.5136 63.5187 67.3975 63.6541 67.2427C63.7924 67.0851 63.8947 66.8902 63.961 66.6579C64.0302 66.4256 64.0647 66.1547 64.0647 65.845Z" fill="#00555C"/>
<path d="M68.2796 65.0736C68.2796 65.1731 68.2769 65.2547 68.2713 65.3183C68.2658 65.3819 68.2575 65.4317 68.2464 65.4676C68.2354 65.5035 68.2202 65.5284 68.2008 65.5423C68.1842 65.5561 68.1621 65.563 68.1345 65.563C68.1124 65.563 68.0875 65.5588 68.0598 65.5505C68.0322 65.5395 68.0004 65.5284 67.9644 65.5174C67.9312 65.5063 67.8939 65.4966 67.8524 65.4883C67.811 65.4773 67.7654 65.4717 67.7156 65.4717C67.6575 65.4717 67.5995 65.4842 67.5414 65.5091C67.4833 65.5312 67.4225 65.5671 67.3589 65.6169C67.2981 65.6667 67.2331 65.733 67.164 65.816C67.0976 65.8989 67.0257 66.0012 66.9483 66.1229V68.4288C66.9483 68.4565 66.94 68.4814 66.9234 68.5035C66.9068 68.5228 66.8778 68.5394 66.8363 68.5533C66.7976 68.5671 66.7451 68.5768 66.6787 68.5823C66.6124 68.5906 66.5281 68.5947 66.4257 68.5947C66.3234 68.5947 66.2391 68.5906 66.1728 68.5823C66.1064 68.5768 66.0525 68.5671 66.011 68.5533C65.9723 68.5394 65.9447 68.5228 65.9281 68.5035C65.9115 68.4814 65.9032 68.4565 65.9032 68.4288V64.7294C65.9032 64.7017 65.9101 64.6782 65.9239 64.6589C65.9377 64.6367 65.9626 64.6188 65.9986 64.6049C66.0345 64.5911 66.0801 64.5814 66.1354 64.5759C66.1935 64.5676 66.2654 64.5635 66.3511 64.5635C66.4396 64.5635 66.5128 64.5676 66.5709 64.5759C66.629 64.5814 66.6732 64.5911 66.7036 64.6049C66.7368 64.6188 66.7603 64.6367 66.7741 64.6589C66.788 64.6782 66.7949 64.7017 66.7949 64.7294V65.1897C66.8916 65.0515 66.9829 64.9381 67.0686 64.8496C67.1543 64.7584 67.2359 64.6865 67.3133 64.634C67.3907 64.5814 67.4681 64.5455 67.5455 64.5261C67.623 64.504 67.7004 64.493 67.7778 64.493C67.8137 64.493 67.8524 64.4957 67.8939 64.5013C67.9354 64.504 67.9783 64.5109 68.0225 64.522C68.0667 64.5303 68.1054 64.5413 68.1386 64.5552C68.1718 64.5662 68.1953 64.5787 68.2091 64.5925C68.2257 64.6063 68.2368 64.6215 68.2423 64.6381C68.2506 64.6547 68.2575 64.6782 68.263 64.7086C68.2686 64.7363 68.2727 64.7791 68.2755 64.8372C68.2782 64.8953 68.2796 64.9741 68.2796 65.0736Z" fill="#00555C"/>
<path d="M71.7563 68.4413C71.7563 68.48 71.7425 68.5104 71.7148 68.5325C71.6872 68.5546 71.6429 68.5698 71.5821 68.5781C71.524 68.5892 71.4369 68.5947 71.3208 68.5947C71.1964 68.5947 71.1052 68.5892 71.0471 68.5781C70.9918 68.5698 70.9517 68.5546 70.9268 68.5325C70.9047 68.5104 70.8936 68.48 70.8936 68.4413V68.1468C70.7416 68.3099 70.5674 68.4371 70.3711 68.5284C70.1775 68.6196 69.9619 68.6652 69.7241 68.6652C69.5278 68.6652 69.3467 68.639 69.1808 68.5864C69.0176 68.5367 68.8752 68.462 68.7536 68.3625C68.6347 68.2602 68.5421 68.1344 68.4757 67.9851C68.4094 67.8358 68.3762 67.6616 68.3762 67.4625C68.3762 67.2468 68.4177 67.0602 68.5006 66.9026C68.5863 66.7422 68.7121 66.6109 68.878 66.5086C69.0467 66.4035 69.2554 66.3261 69.5043 66.2763C69.7531 66.2266 70.042 66.2017 70.3711 66.2017H70.7319V65.9777C70.7319 65.8616 70.7195 65.7607 70.6946 65.675C70.6724 65.5865 70.6337 65.5132 70.5784 65.4552C70.5259 65.3971 70.454 65.3542 70.3628 65.3266C70.2743 65.2989 70.1637 65.2851 70.031 65.2851C69.8568 65.2851 69.7006 65.3045 69.5623 65.3432C69.4269 65.3819 69.3066 65.4247 69.2015 65.4717C69.0964 65.5187 69.008 65.5616 68.9361 65.6003C68.867 65.639 68.8103 65.6584 68.766 65.6584C68.7356 65.6584 68.708 65.6487 68.6831 65.6293C68.661 65.61 68.6416 65.5823 68.625 65.5464C68.6112 65.5105 68.6001 65.4662 68.5918 65.4137C68.5835 65.3611 68.5794 65.3031 68.5794 65.2395C68.5794 65.1538 68.5863 65.086 68.6001 65.0363C68.614 64.9865 68.6402 64.9423 68.6789 64.9036C68.7176 64.8621 68.7854 64.8178 68.8822 64.7708C68.9789 64.7211 69.0923 64.6754 69.2222 64.634C69.3522 64.5925 69.4932 64.5593 69.6453 64.5344C69.8001 64.5068 69.9591 64.493 70.1222 64.493C70.4125 64.493 70.66 64.522 70.8646 64.5801C71.072 64.6354 71.242 64.7225 71.3747 64.8413C71.5075 64.9575 71.6042 65.1082 71.6651 65.2934C71.7259 65.4787 71.7563 65.6985 71.7563 65.9528V68.4413ZM70.7319 66.857H70.3337C70.1651 66.857 70.0213 66.8694 69.9024 66.8943C69.7835 66.9192 69.6868 66.9565 69.6121 67.0063C69.5374 67.056 69.4821 67.1169 69.4462 67.1888C69.413 67.2579 69.3964 67.3381 69.3964 67.4293C69.3964 67.5841 69.4448 67.7058 69.5416 67.7943C69.6411 67.8828 69.778 67.927 69.9522 67.927C70.0987 67.927 70.2328 67.8897 70.3545 67.815C70.4789 67.7404 70.6047 67.6311 70.7319 67.4874V66.857Z" fill="#00555C"/>
<path d="M73.9017 67.9726C73.9017 68.2298 73.856 68.4026 73.7648 68.491C73.6763 68.5795 73.516 68.6238 73.2837 68.6238C73.0514 68.6238 72.8911 68.5809 72.8026 68.4952C72.7141 68.4067 72.6699 68.2408 72.6699 67.9975C72.6699 67.7376 72.7141 67.5634 72.8026 67.4749C72.8938 67.3865 73.057 67.3422 73.292 67.3422C73.5215 67.3422 73.6805 67.3865 73.7689 67.4749C73.8574 67.5606 73.9017 67.7265 73.9017 67.9726Z" fill="#00555C"/>
<path d="M49.4875 57.2298C49.4875 57.794 49.3834 58.1731 49.1751 58.3673C48.9732 58.5614 48.6071 58.6584 48.0769 58.6584C47.5468 58.6584 47.1807 58.5644 46.9787 58.3764C46.7768 58.1822 46.6758 57.8183 46.6758 57.2844C46.6758 56.7142 46.7768 56.332 46.9787 56.1379C47.187 55.9437 47.5594 55.8467 48.0959 55.8467C48.6197 55.8467 48.9826 55.9437 49.1846 56.1379C49.3866 56.3259 49.4875 56.6899 49.4875 57.2298Z" fill="#00A98A"/>
<path d="M47.8402 64.7888C47.8402 65.4307 47.7217 65.8622 47.4847 66.0831C47.2549 66.304 46.8383 66.4144 46.235 66.4144C45.6317 66.4144 45.2152 66.3074 44.9854 66.0934C44.7555 65.8725 44.6406 65.4584 44.6406 64.8509C44.6406 64.202 44.7555 63.7671 44.9854 63.5462C45.2224 63.3253 45.6461 63.2148 46.2566 63.2148C46.8527 63.2148 47.2657 63.3253 47.4955 63.5462C47.7253 63.7602 47.8402 64.1744 47.8402 64.7888Z" fill="#00A98A"/>
<path d="M44.2495 72.531C44.2495 73.5232 44.0664 74.19 43.7001 74.5314C43.3449 74.8728 42.7011 75.0435 41.7688 75.0435C40.8364 75.0435 40.1926 74.8781 39.8375 74.5474C39.4823 74.206 39.3047 73.5659 39.3047 72.6271C39.3047 71.6242 39.4823 70.9521 39.8375 70.6107C40.2037 70.2693 40.8586 70.0986 41.8021 70.0986C42.7233 70.0986 43.3616 70.2693 43.7167 70.6107C44.0719 70.9414 44.2495 71.5815 44.2495 72.531Z" fill="#00A98A"/>
<path d="M41.2461 82.2141C41.2461 83.5175 41.0055 84.3935 40.5244 84.842C40.0577 85.2905 39.212 85.5147 37.9871 85.5147C36.7623 85.5147 35.9165 85.2975 35.4499 84.863C34.9833 84.4145 34.75 83.5736 34.75 82.3402C34.75 81.0228 34.9833 80.1398 35.4499 79.6913C35.9311 79.2428 36.7914 79.0186 38.0309 79.0186C39.2412 79.0186 40.0796 79.2428 40.5462 79.6913C41.0128 80.1258 41.2461 80.9667 41.2461 82.2141Z" fill="#00A98A"/>
<path d="M42.2121 93.8472C42.2121 95.2285 41.9571 96.1567 41.4472 96.632C40.9527 97.1073 40.0565 97.3449 38.7585 97.3449C37.4605 97.3449 36.5643 97.1147 36.0698 96.6543C35.5754 96.179 35.3281 95.2879 35.3281 93.9809C35.3281 92.5848 35.5754 91.6491 36.0698 91.1738C36.5798 90.6986 37.4914 90.4609 38.8049 90.4609C40.0874 90.4609 40.9759 90.6986 41.4704 91.1738C41.9649 91.6343 42.2121 92.5254 42.2121 93.8472Z" fill="#00A98A"/>
<path d="M46.8732 104.663C46.8732 105.908 46.6434 106.745 46.1838 107.173C45.738 107.601 44.9302 107.816 43.7602 107.816C42.5901 107.816 41.7823 107.608 41.3366 107.193C40.8908 106.765 40.668 105.961 40.668 104.783C40.668 103.525 40.8908 102.681 41.3366 102.253C41.7962 101.825 42.618 101.61 43.8019 101.61C44.958 101.61 45.7589 101.825 46.2047 102.253C46.6504 102.668 46.8732 103.471 46.8732 104.663Z" fill="#00A98A"/>
<path d="M50.1639 113.937C50.1639 114.813 50.0023 115.401 49.6791 115.702C49.3657 116.003 48.7976 116.154 47.975 116.154C47.1523 116.154 46.5843 116.008 46.2709 115.716C45.9575 115.415 45.8008 114.85 45.8008 114.022C45.8008 113.137 45.9575 112.544 46.2709 112.243C46.5941 111.942 47.1719 111.791 48.0044 111.791C48.8172 111.791 49.3804 111.942 49.6938 112.243C50.0072 112.535 50.1639 113.099 50.1639 113.937Z" fill="#00A98A"/>
<path d="M50.3584 99.9614C42.8376 86.712 50.1316 73.2448 50.3584 73.2012L50.0184 74.5523C47.4485 85.361 49.1742 95.9953 50.3584 99.9614Z" fill="#00555C"/>
</svg>
