<svg width="179" height="179" viewBox="0 0 179 179" fill="none" xmlns="http://www.w3.org/2000/svg">
<path d="M57.5914 159.893C57.8637 160.016 58.0907 160.2 58.2725 160.446C58.4542 160.691 58.5654 160.964 58.6061 161.263C58.6327 161.567 58.5759 161.875 58.4356 162.186C58.2998 162.488 58.1112 162.725 57.8698 162.897C57.6144 163.074 57.3345 163.176 57.03 163.203C56.7255 163.229 56.4371 163.181 56.1648 163.058C55.8731 162.927 55.6412 162.741 55.4692 162.499C55.2874 162.254 55.1832 161.978 55.1566 161.674C55.116 161.375 55.1635 161.075 55.2994 160.773C55.4396 160.462 55.6375 160.218 55.8929 160.04C56.1343 159.868 56.4072 159.769 56.7116 159.742C57.0064 159.711 57.2996 159.762 57.5914 159.893Z" fill="#347021"/>
<path d="M85.7248 163.995L78.9438 174.251L77.3798 174.001L74.1289 162.136L75.7877 162.402L78.6275 173.293L77.9956 173.192L84.0976 163.735L85.7248 163.995ZM83.1488 166.418L82.5196 167.614L76.2951 166.616L76.0396 165.278L83.1488 166.418Z" fill="#347021"/>
<path d="M95.2461 163.605L95.6451 173.404L99.4819 173.248L99.5385 174.639L90.2822 175.016L90.2256 173.625L94.0624 173.469L93.6634 163.669L95.2461 163.605Z" fill="#347021"/>
<path d="M108.329 161.203C109.161 161.012 109.985 160.954 110.801 161.029C111.619 161.114 112.294 161.309 112.824 161.614L112.526 162.963C112.027 162.695 111.427 162.515 110.728 162.424C110.028 162.333 109.33 162.368 108.634 162.528C108 162.674 107.502 162.865 107.14 163.102C106.779 163.338 106.533 163.602 106.403 163.895C106.276 164.198 106.249 164.51 106.323 164.833C106.41 165.207 106.604 165.48 106.906 165.651C107.197 165.825 107.556 165.934 107.982 165.978C108.4 166.035 108.855 166.062 109.347 166.058C109.839 166.055 110.339 166.065 110.848 166.091C111.35 166.129 111.823 166.211 112.268 166.339C112.703 166.469 113.082 166.688 113.405 166.997C113.73 167.316 113.959 167.767 114.093 168.349C114.222 168.91 114.195 169.458 114.011 169.993C113.82 170.541 113.45 171.025 112.901 171.447C112.344 171.881 111.588 172.209 110.631 172.428C109.997 172.574 109.349 172.636 108.687 172.613C108.025 172.59 107.43 172.475 106.901 172.268L107.128 170.903C107.668 171.107 108.213 171.217 108.764 171.233C109.317 171.259 109.838 171.215 110.327 171.103C110.94 170.962 111.426 170.768 111.785 170.521C112.144 170.275 112.388 170 112.515 169.697C112.632 169.396 112.653 169.085 112.579 168.763C112.491 168.378 112.301 168.099 112.009 167.925C111.707 167.754 111.348 167.645 110.932 167.598C110.506 167.554 110.046 167.528 109.552 167.521C109.06 167.525 108.565 167.513 108.066 167.486C107.557 167.46 107.085 167.383 106.65 167.253C106.205 167.126 105.821 166.907 105.498 166.599C105.175 166.29 104.948 165.849 104.817 165.278C104.69 164.727 104.723 164.177 104.914 163.63C105.108 163.093 105.489 162.606 106.056 162.169C106.615 161.745 107.373 161.423 108.329 161.203Z" fill="#347021"/>
<path d="M120.499 157.24L124.72 167.614L123.238 168.217L119.017 157.843L120.499 157.24Z" fill="#347021"/>
<path d="M134.636 148.82L134.02 156.672L133.372 155.624L140.313 158.478L138.762 159.438L133.278 157.206L133.882 156.814L133.456 162.722L131.973 163.64L132.538 156.253L133.144 157.233L125.834 154.268L127.399 153.3L133.241 155.686L132.642 156.057L133.072 149.788L134.636 148.82Z" fill="#347021"/>
<path d="M146.277 137.82L150.314 149.434L149.165 150.525L137.763 145.909L138.981 144.752L149.36 149.104L148.896 149.545L145.083 138.955L146.277 137.82ZM146.64 141.338L147.208 142.564L142.638 146.905L141.42 146.297L146.64 141.338Z" fill="#347021"/>
<path d="M154.453 125.802L163.712 132.104L161.255 135.715C160.702 136.526 160.103 137.132 159.458 137.531C158.812 137.93 158.141 138.119 157.446 138.097C156.751 138.076 156.069 137.837 155.398 137.381C154.728 136.925 154.256 136.377 153.981 135.739C153.715 135.106 153.649 134.416 153.783 133.669C153.917 132.922 154.261 132.142 154.813 131.331L156.775 128.447L156.979 129.457L153.553 127.125L154.453 125.802ZM150.24 131.993L155.202 131.925L154.239 133.34L149.259 133.435L150.24 131.993ZM156.846 129.367L157.9 129.213L155.964 132.057C155.388 132.903 155.134 133.665 155.201 134.344C155.271 135.037 155.637 135.608 156.299 136.058C156.96 136.508 157.621 136.636 158.283 136.441C158.939 136.255 159.555 135.739 160.131 134.892L162.066 132.048L162.323 133.094L156.846 129.367Z" fill="#347021"/>
<path d="M160.707 111.117L171.108 115.27L169.489 119.326C169.125 120.238 168.671 120.958 168.126 121.487C167.582 122.016 166.968 122.346 166.285 122.475C165.602 122.604 164.883 122.518 164.131 122.218C163.378 121.917 162.798 121.485 162.392 120.92C161.995 120.36 161.777 119.699 161.737 118.936C161.706 118.178 161.873 117.343 162.237 116.431L163.53 113.192L163.962 114.139L160.113 112.603L160.707 111.117ZM163.813 114.08L164.823 113.708L163.548 116.903C163.168 117.854 163.084 118.653 163.297 119.301C163.505 119.958 163.981 120.435 164.724 120.732C165.467 121.028 166.14 121.01 166.744 120.677C167.344 120.354 167.834 119.717 168.214 118.766L169.489 115.571L169.965 116.536L163.813 114.08Z" fill="#347021"/>
<path d="M162.898 98.3717C163.026 97.528 163.287 96.7639 163.683 96.0795C164.076 95.4055 164.566 94.8433 165.152 94.3929C165.749 93.944 166.413 93.6239 167.143 93.4327C167.873 93.2414 168.644 93.2074 169.456 93.3306C170.268 93.4538 170.995 93.7151 171.635 94.1144C172.276 94.5137 172.81 95.0154 173.236 95.6195C173.672 96.2253 173.979 96.9083 174.155 97.6686C174.331 98.4289 174.354 99.2362 174.224 100.09C174.096 100.934 173.836 101.688 173.444 102.351C173.061 103.027 172.571 103.589 171.974 104.038C171.387 104.499 170.728 104.819 170 105C169.269 105.191 168.493 105.225 167.67 105.1C166.848 104.975 166.116 104.713 165.475 104.314C164.833 103.925 164.294 103.422 163.859 102.806C163.433 102.202 163.132 101.52 162.956 100.759C162.789 100.011 162.77 99.2153 162.898 98.3717ZM164.306 98.5853C164.213 99.197 164.233 99.7772 164.365 100.326C164.496 100.885 164.723 101.384 165.045 101.821C165.376 102.27 165.783 102.64 166.268 102.929C166.751 103.229 167.299 103.425 167.91 103.518C168.522 103.611 169.103 103.586 169.653 103.443C170.202 103.31 170.696 103.078 171.135 102.745C171.583 102.425 171.952 102.017 172.243 101.521C172.532 101.037 172.723 100.488 172.816 99.8768C172.911 99.2546 172.892 98.6638 172.762 98.1045C172.629 97.5558 172.397 97.0567 172.066 96.6073C171.746 96.1595 171.344 95.7856 170.861 95.4857C170.376 95.1964 169.828 95.0053 169.216 94.9125C168.605 94.8197 168.024 94.8395 167.476 94.972C166.925 95.1151 166.425 95.3521 165.976 95.6831C165.537 96.0157 165.173 96.4243 164.884 96.9091C164.593 97.4043 164.4 97.9631 164.306 98.5853Z" fill="#347021"/>
<path d="M162.91 77.2241L174.077 76.3585L174.414 80.7134C174.49 81.6918 174.401 82.5386 174.146 83.2537C173.891 83.9689 173.486 84.5353 172.929 84.9528C172.373 85.3704 171.691 85.6105 170.883 85.6731C170.075 85.7358 169.364 85.6037 168.75 85.2768C168.147 84.9491 167.664 84.4516 167.302 83.7842C166.94 83.1169 166.721 82.294 166.646 81.3156L166.376 77.838L167.165 78.499L163.034 78.8193L162.91 77.2241ZM163.489 84.6897L167.321 81.5361L167.453 83.243L163.624 86.4285L163.489 84.6897ZM167.006 78.5114L167.732 77.7329L167.998 81.1626C168.077 82.1836 168.355 82.9377 168.831 83.425C169.319 83.9221 169.962 84.1398 170.759 84.0779C171.557 84.0161 172.153 83.7024 172.548 83.1369C172.944 82.582 173.102 81.7941 173.023 80.7731L172.757 77.3434L173.61 77.9994L167.006 78.5114Z" fill="#347021"/>
<path d="M160.819 67.8915L171.669 65.1131L172.066 66.6631L161.216 69.4415L160.819 67.8915Z" fill="#347021"/>
<path d="M155.714 56.3829C155.098 55.0457 154.997 53.8183 155.41 52.7005C155.823 51.5827 156.766 50.6848 158.239 50.0069L164.024 47.3444L164.693 48.7978L158.966 51.4336C157.832 51.9554 157.118 52.5838 156.822 53.3188C156.531 54.0635 156.595 54.8912 157.014 55.802C157.437 56.7225 158.025 57.3095 158.775 57.5628C159.53 57.8258 160.475 57.6964 161.609 57.1746L167.335 54.5388L167.984 55.9487L162.199 58.6112C160.727 59.2891 159.431 59.4215 158.313 59.0084C157.2 58.6049 156.333 57.7297 155.714 56.3829Z" fill="#347021"/>
<path d="M146.078 41.8074C145.548 41.1382 145.168 40.4257 144.937 39.6698C144.713 38.9222 144.636 38.1805 144.707 37.4446C144.786 36.702 145.005 35.9985 145.363 35.3341C145.722 34.6697 146.223 34.0827 146.867 33.5731C147.511 33.0635 148.198 32.7107 148.927 32.5148C149.656 32.3188 150.387 32.2711 151.119 32.3717C151.86 32.4657 152.568 32.7078 153.244 33.0979C153.92 33.4881 154.526 34.0219 155.062 34.6995C155.591 35.3687 155.965 36.0729 156.183 36.8121C156.415 37.553 156.492 38.2947 156.413 39.0373C156.349 39.7816 156.134 40.4818 155.769 41.1378C155.411 41.8022 154.905 42.3925 154.253 42.9087C153.6 43.425 152.91 43.781 152.181 43.977C151.458 44.1813 150.723 44.2323 149.976 44.13C149.243 44.0294 148.539 43.784 147.863 43.3939C147.202 43.0055 146.607 42.4767 146.078 41.8074ZM146.619 46.0509C146.388 45.7581 146.204 45.4481 146.067 45.1208C145.922 44.8002 145.824 44.4431 145.771 44.0497C145.709 43.6629 145.692 43.228 145.718 42.745C145.735 42.2687 145.792 41.7209 145.887 41.1017L147.3 42.1664C147.189 42.6622 147.127 43.0992 147.113 43.4773C147.098 43.8703 147.137 44.2129 147.233 44.5049C147.319 44.8036 147.449 45.0617 147.621 45.2792C148.117 45.9066 148.792 46.2434 149.644 46.2897L149.396 47.4453C148.26 47.4191 147.334 46.9543 146.619 46.0509ZM147.194 40.9239C147.578 41.4091 148.016 41.7905 148.508 42.068C149.006 42.3539 149.529 42.525 150.077 42.5813C150.631 42.6459 151.179 42.5997 151.722 42.4427C152.27 42.2941 152.783 42.0312 153.26 41.654C153.745 41.2701 154.123 40.8282 154.394 40.3282C154.672 39.8366 154.839 39.317 154.895 38.7692C154.966 38.2232 154.92 37.6748 154.756 37.1242C154.6 36.582 154.329 36.0682 153.945 35.583C153.555 35.0895 153.11 34.6998 152.612 34.4139C152.121 34.1363 151.598 33.9652 151.043 33.9006C150.497 33.8293 149.95 33.868 149.401 34.0166C148.859 34.1736 148.345 34.444 147.86 34.8279C147.383 35.2051 147.006 35.6396 146.728 36.1311C146.457 36.6311 146.289 37.1583 146.225 37.7127C146.16 38.2671 146.206 38.8154 146.363 39.3576C146.527 39.9083 146.804 40.4304 147.194 40.9239Z" fill="#347021"/>
<path d="M128.336 18.6833L133.216 21.7429L132.494 22.8952L127.614 19.8355L128.336 18.6833ZM125.815 22.9757L131.346 26.4433L130.606 27.6227L123.72 23.3051L129.669 13.8159L136.366 18.0144L135.626 19.1938L130.285 15.8452L125.815 22.9757Z" fill="#347021"/>
<path d="M97.4775 15.2243L104.817 5.40155L107.314 5.9663L109.728 17.9952L107.075 17.3951L105.261 6.84712L106.26 7.07302L100.068 15.8103L97.4775 15.2243ZM100.441 13.4341L101.547 11.6664L107.165 12.9371L107.417 15.0119L100.441 13.4341Z" fill="#347021"/>
<path d="M87.3209 15.1012L87.4576 6.01418L83.874 5.96027L83.9058 3.84851L93.6647 3.99532L93.6329 6.10708L90.0493 6.05317L89.9126 15.1401L87.3209 15.1012Z" fill="#347021"/>
<path d="M73.1827 17.2568C71.6219 17.5566 70.318 17.3563 69.2711 16.6559C68.2241 15.9555 67.5457 14.7987 67.2359 13.1855L66.0527 7.02611L68.5982 6.53715L69.7632 12.6023C69.9644 13.6498 70.3241 14.3628 70.8421 14.7412C71.3601 15.1196 72.0067 15.2343 72.7818 15.0854C73.557 14.9365 74.1151 14.5904 74.456 14.047C74.797 13.5036 74.8668 12.7081 74.6656 11.6606L73.5006 5.59547L76.0146 5.11255L77.1978 11.2719C77.5076 12.8851 77.3061 14.2109 76.5932 15.2494C75.8803 16.2879 74.7435 16.957 73.1827 17.2568Z" fill="#347021"/>
<path d="M53.6203 16.7634L58.565 14.6132L59.3689 16.462L54.4242 18.6121L53.6203 16.7634ZM55.6338 20.9126L61.2242 18.4817L62.0536 20.3892L54.101 23.8473L49.6348 13.5763L57.3967 10.2011L58.2261 12.1086L52.8265 14.4565L55.6338 20.9126Z" fill="#347021"/>
<path d="M40.8111 33.0102L34.2959 23.9003L38.2392 21.0801C39.0548 20.4968 39.8537 20.1287 40.6361 19.9757C41.4122 19.8141 42.1376 19.8657 42.8123 20.1307C43.487 20.3956 44.0695 20.8708 44.5596 21.5562C45.0436 22.233 45.302 22.9334 45.3346 23.6575C45.3673 24.3817 45.1848 25.0892 44.7872 25.7801C44.3834 26.4623 43.7737 27.0951 42.9581 27.6783L40.1861 29.6608L40.4437 28.0406L42.9195 31.5024L40.8111 33.0102ZM40.6112 28.2749L38.9575 27.9429L41.6124 26.0442C42.2631 25.5788 42.6497 25.0925 42.7722 24.5853C42.8946 24.0781 42.779 23.5772 42.4253 23.0827C42.0654 22.5795 41.6257 22.3038 41.1061 22.2558C40.5865 22.2077 40.0014 22.4164 39.3507 22.8818L36.6958 24.7805L36.9161 23.1082L40.6112 28.2749Z" fill="#347021"/>
<path d="M28.4172 46.4655L23.3828 35.2845L25.087 33.3742L36.7785 37.093L34.9678 39.1227L24.8625 35.5968L25.5441 34.8326L30.1854 44.4836L28.4172 46.4655ZM28.2879 43.0053L27.2774 41.1818L31.1118 36.8836L33.049 37.6683L28.2879 43.0053Z" fill="#347021"/>
<path d="M21.2043 59.5062L11.415 54.0646L13.7705 49.8273C14.2576 48.9509 14.8219 48.276 15.4633 47.8027C16.0954 47.3242 16.7731 47.0602 17.4962 47.0107C18.2194 46.9611 18.9492 47.141 19.6858 47.5504C20.413 47.9547 20.9464 48.477 21.2861 49.1173C21.6164 49.7525 21.7452 50.4648 21.6725 51.2542C21.5998 52.0437 21.3199 52.8766 20.8327 53.753L19.1769 56.7317L18.7437 55.1729L22.4636 57.2407L21.2043 59.5062ZM24.6636 53.283L19.7511 53.7558L21.0959 51.3365L26.024 50.8357L24.6636 53.283ZM18.9954 55.3128L17.3729 55.7289L18.9587 52.876C19.3474 52.1768 19.4885 51.5718 19.3819 51.061C19.266 50.545 18.9423 50.1393 18.4109 49.8439C17.8701 49.5433 17.3547 49.4826 16.8646 49.6617C16.3745 49.8408 15.9352 50.28 15.5465 50.9792L13.9606 53.8321L13.4435 52.2266L18.9954 55.3128Z" fill="#347021"/>
<path d="M10.8077 69.8861L12.3583 64.7218L14.2891 65.3016L12.7386 70.4658L10.8077 69.8861ZM15.2763 71.0273L17.0293 65.1888L19.0214 65.7869L16.5277 74.0926L5.80078 70.8719L8.23467 62.7654L10.2268 63.3636L8.53368 69.0029L15.2763 71.0273Z" fill="#347021"/>
<path d="M15.1472 86.1773L6.09777 85.3413L5.76808 88.9101L3.66504 88.7158L4.56285 78.9972L6.66589 79.1915L6.33621 82.7603L15.3857 83.5963L15.1472 86.1773Z" fill="#347021"/>
<path d="M16.3935 100.87C16.5038 101.749 16.4632 102.582 16.2717 103.369C16.079 104.146 15.7578 104.842 15.3083 105.457C14.8574 106.062 14.302 106.562 13.642 106.956C12.9807 107.34 12.2373 107.584 11.4117 107.688C10.5862 107.792 9.80559 107.739 9.06988 107.53C8.33284 107.311 7.67048 106.959 7.08281 106.474C6.49514 105.988 6.01194 105.393 5.63319 104.688C5.25446 103.983 5.01062 103.197 4.9017 102.329C4.79145 101.45 4.83338 100.628 5.02748 99.862C5.22026 99.0853 5.54208 98.3945 5.99293 97.7897C6.44246 97.1742 6.99722 96.6692 7.65722 96.2746C8.30663 95.8813 9.04939 95.6322 9.8855 95.5273C10.711 95.4237 11.4976 95.4809 12.2452 95.6988C12.9823 95.918 13.6446 96.2703 14.2323 96.7556C14.808 97.2316 15.2853 97.8221 15.664 98.5271C16.0415 99.2215 16.2846 100.003 16.3935 100.87ZM14.2047 101.161C14.1423 100.664 14.0005 100.219 13.7794 99.8279C13.5569 99.4258 13.267 99.0859 12.9096 98.8083C12.5523 98.5306 12.146 98.3343 11.6908 98.2195C11.2343 98.094 10.7414 98.0645 10.2123 98.1309C9.68308 98.1973 9.21282 98.3477 8.80147 98.5821C8.3888 98.8059 8.04363 99.0965 7.76597 99.4538C7.48698 99.8006 7.28938 100.196 7.17318 100.641C7.05697 101.085 7.03008 101.556 7.09252 102.054C7.15495 102.551 7.2974 103.001 7.51987 103.403C7.74101 103.795 8.03026 104.129 8.38762 104.407C8.74498 104.685 9.15191 104.886 9.60842 105.012C10.0636 105.127 10.5558 105.151 11.085 105.084C11.6036 105.019 12.0745 104.874 12.4978 104.649C12.9091 104.415 13.2543 104.124 13.5333 103.777C13.8109 103.42 14.0079 103.019 14.1241 102.574C14.2403 102.13 14.2672 101.659 14.2047 101.161Z" fill="#347021"/>
<path d="M19.6787 115.747L9.02247 119.195L8.22461 116.729L18.8808 113.281L19.6787 115.747Z" fill="#347021"/>
<path d="M24.7588 125.638C25.17 126.434 25.4598 127.25 25.6282 128.088C25.7872 128.93 25.8111 129.662 25.7 130.284L23.5619 130.398C23.6449 129.815 23.6366 129.183 23.537 128.502C23.423 127.816 23.2118 127.175 22.9034 126.578C22.6685 126.123 22.4373 125.78 22.2101 125.549C21.9685 125.314 21.7328 125.172 21.5032 125.122C21.2735 125.073 21.0545 125.102 20.846 125.21C20.5806 125.347 20.426 125.559 20.382 125.845C20.3286 126.137 20.3426 126.478 20.4241 126.868C20.4961 127.263 20.5971 127.691 20.7272 128.152C20.8429 128.609 20.9421 129.08 21.0249 129.565C21.1027 130.041 21.1254 130.504 21.0932 130.953C21.0609 131.401 20.9305 131.823 20.7019 132.217C20.4684 132.602 20.0863 132.931 19.5556 133.205C18.987 133.499 18.3921 133.614 17.7711 133.551C17.1357 133.483 16.5215 133.212 15.9285 132.738C15.3211 132.259 14.7751 131.551 14.2905 130.613C13.9674 129.987 13.725 129.332 13.5634 128.647C13.3922 127.967 13.3336 127.319 13.3875 126.703L15.5032 126.511C15.4777 127.112 15.5233 127.677 15.64 128.205C15.7471 128.738 15.9158 129.227 16.1458 129.672C16.3759 130.118 16.6165 130.456 16.8676 130.686C17.1187 130.917 17.3614 131.049 17.5956 131.084C17.8204 131.124 18.0417 131.088 18.2597 130.976C18.5156 130.843 18.6702 130.631 18.7236 130.34C18.7676 130.053 18.7488 129.714 18.6674 129.324C18.5859 128.934 18.4873 128.511 18.3716 128.054C18.251 127.588 18.147 127.12 18.0597 126.649C17.9675 126.168 17.9376 125.703 17.9698 125.254C18.0021 124.806 18.135 124.389 18.3685 124.004C18.5971 123.61 18.972 123.278 19.4932 123.009C20.0524 122.72 20.6449 122.612 21.2708 122.685C21.8967 122.758 22.5134 123.034 23.1208 123.512C23.7233 123.981 24.2693 124.69 24.7588 125.638Z" fill="#347021"/>
<path d="M32.039 137.004L23.0982 143.749L21.5371 141.68L30.4779 134.935L32.039 137.004Z" fill="#347021"/>
<path d="M36.6 150.194L32.717 146.476L34.1555 144.973L38.0385 148.691L36.6 150.194ZM40.7215 145.612L42.5937 147.404L34.8478 155.494L28.7344 149.64L30.1729 148.138L34.4141 152.199L40.7215 145.612Z" fill="#347021"/>
</svg>
