<svg xmlns="http://www.w3.org/2000/svg" width="24" height="24" viewBox="0 0 24 24" fill="none"><path d="M24 12C24 18.6274 18.6274 24 12 24C5.37258 24 0 18.6274 0 12C0 5.37258 5.37258 0 12 0C18.6274 0 24 5.37258 24 12Z" fill="#DCE9E2"></path><path fill-rule="evenodd" clip-rule="evenodd" d="M17.6213 7.65131C17.9142 7.9442 17.9142 8.41908 17.6213 8.71197L10.6213 15.712C10.4807 15.8526 10.2899 15.9316 10.091 15.9316C9.89208 15.9316 9.70132 15.8526 9.56067 15.712L6.37885 12.5302C6.08596 12.2373 6.08596 11.7624 6.37885 11.4695C6.67174 11.1766 7.14662 11.1766 7.43951 11.4695L10.091 14.121L16.5607 7.65131C16.8536 7.35842 17.3284 7.35842 17.6213 7.65131Z" fill="#00856F"></path></svg>