<svg xmlns="http://www.w3.org/2000/svg" width="118" height="51" viewBox="0 0 118 51" fill="none"><path d="M25.2929 13.2799C25.2929 13.2799 27.6412 27.1863 7.2749 11.7129C7.2749 11.7129 29.7974 30.1238 21.5741 42.8561C21.5697 42.8561 34.3734 35.664 25.2929 13.2799Z" fill="#00AC8D"></path><path d="M30.0933 28.4595C30.0933 28.4595 30.8746 37.8614 23.2361 42.5623C23.2361 42.5623 33.0308 42.1694 37.3389 31.5934C37.3389 31.5934 32.9326 38.5489 30.0933 28.4595Z" fill="#004F42"></path><path d="M20.5931 42.2673C20.5931 42.2673 25.294 32.0842 13.9323 23.8564C13.9323 23.8564 15.4993 29.5351 10.7983 31.4949C10.7983 31.4949 19.0261 29.7315 20.5931 42.2673Z" fill="#004F42"></path><path d="M4.53022 41.6826C4.53022 41.6826 10.0124 36.004 3.15967 33.6513C3.15967 33.6513 12.758 28.9503 19.2223 42.2674C19.2223 42.2674 15.4991 34.4325 4.53022 41.6826Z" fill="#004F42"></path><path d="M34.7936 30.9056C36.1448 30.9056 37.2401 29.8103 37.2401 28.4591C37.2401 27.108 36.1448 26.0127 34.7936 26.0127C33.4425 26.0127 32.3472 27.108 32.3472 28.4591C32.3472 29.8103 33.4425 30.9056 34.7936 30.9056Z" fill="#004F42"></path><path d="M10.7001 28.5619C11.8368 28.5619 12.7582 27.6405 12.7582 26.5039C12.7582 25.3672 11.8368 24.4458 10.7001 24.4458C9.56351 24.4458 8.64209 25.3672 8.64209 26.5039C8.64209 27.6405 9.56351 28.5619 10.7001 28.5619Z" fill="#004F42"></path><path d="M2.08369 39.9188C3.22032 39.9188 4.14175 38.9974 4.14175 37.8608C4.14175 36.7242 3.22032 35.8027 2.08369 35.8027C0.947057 35.8027 0.0256348 36.7242 0.0256348 37.8608C0.0256348 38.9974 0.947057 39.9188 2.08369 39.9188Z" fill="#004F42"></path><path d="M19.3208 16.4141C21.3229 16.4141 22.9459 14.7911 22.9459 12.7891C22.9459 10.787 21.3229 9.16406 19.3208 9.16406C17.3188 9.16406 15.6958 10.787 15.6958 12.7891C15.6958 14.7911 17.3188 16.4141 19.3208 16.4141Z" fill="#00AC8D"></path><path d="M53.0176 20.2419V18.4795H61.3206V20.2419H58.2255V28.5894H56.1127V20.2419H53.0176ZM63.1953 28.5894H60.9048L64.3948 18.4795H67.1493L70.6345 28.5894H68.344L65.8116 20.7898H65.7326L63.1953 28.5894ZM63.0521 24.6155H68.4624V26.284H63.0521V24.6155ZM70.2309 20.2419V18.4795H78.534V20.2419H75.4388V28.5894H73.326V20.2419H70.2309ZM82.0388 18.4795V28.5894H79.9014V18.4795H82.0388ZM85.54 28.5894H83.2495L86.7396 18.4795H89.4941L92.9792 28.5894H90.6887L88.1563 20.7898H88.0773L85.54 28.5894ZM85.3969 24.6155H90.8072V26.284H85.3969V24.6155ZM102.652 18.4795V28.5894H100.806L96.4076 22.2263H96.3335V28.5894H94.196V18.4795H96.0719L100.436 24.8377H100.525V18.4795H102.652ZM106.161 28.5894H103.87L107.36 18.4795H110.115L113.6 28.5894H111.309L108.777 20.7898H108.698L106.161 28.5894ZM106.018 24.6155H111.428V26.284H106.018V24.6155Z" fill="#005142"></path><path d="M53.8203 41.9883V32.3879H60.1768V34.0614H55.85V36.349H59.7549V38.0225H55.85V41.9883H53.8203ZM61.5421 41.9883V32.3879H68.0111V34.0614H63.5719V36.349H67.6783V38.0225H63.5719V40.3148H68.0299V41.9883H61.5421ZM69.6249 41.9883V32.3879H73.4125C74.1376 32.3879 74.7563 32.5175 75.2689 32.7769C75.7845 33.0332 76.1767 33.3973 76.4455 33.8692C76.7174 34.3379 76.8533 34.8895 76.8533 35.5239C76.8533 36.1615 76.7158 36.7099 76.4408 37.1693C76.1658 37.6256 75.7673 37.9756 75.2454 38.2194C74.7267 38.4631 74.0985 38.585 73.361 38.585H70.8249V36.9537H73.0328C73.4203 36.9537 73.7422 36.9006 73.9985 36.7943C74.2548 36.688 74.4454 36.5287 74.5704 36.3162C74.6985 36.1036 74.7626 35.8396 74.7626 35.5239C74.7626 35.2052 74.6985 34.9364 74.5704 34.7176C74.4454 34.4989 74.2532 34.3333 73.9938 34.2207C73.7376 34.1051 73.4141 34.0473 73.0235 34.0473H71.6546V41.9883H69.6249ZM74.8095 37.6193L77.1955 41.9883H74.9548L72.6203 37.6193H74.8095ZM78.2878 41.9883V32.3879H82.0754C82.8005 32.3879 83.4192 32.5175 83.9318 32.7769C84.4474 33.0332 84.8396 33.3973 85.1084 33.8692C85.3803 34.3379 85.5162 34.8895 85.5162 35.5239C85.5162 36.1615 85.3787 36.7099 85.1037 37.1693C84.8287 37.6256 84.4302 37.9756 83.9083 38.2194C83.3895 38.4631 82.7614 38.585 82.0239 38.585H79.4878V36.9537H81.6957C82.0832 36.9537 82.4051 36.9006 82.6614 36.7943C82.9176 36.688 83.1083 36.5287 83.2333 36.3162C83.3614 36.1036 83.4255 35.8396 83.4255 35.5239C83.4255 35.2052 83.3614 34.9364 83.2333 34.7176C83.1083 34.4989 82.9161 34.3333 82.6567 34.2207C82.4004 34.1051 82.077 34.0473 81.6863 34.0473H80.3175V41.9883H78.2878ZM83.4724 37.6193L85.8584 41.9883H83.6177L81.2832 37.6193H83.4724ZM86.9506 41.9883V32.3879H93.4197V34.0614H88.9804V36.349H93.0869V38.0225H88.9804V40.3148H93.4384V41.9883H86.9506ZM97.0632 32.3879V41.9883H95.0334V32.3879H97.0632ZM98.7332 41.9883V32.3879H102.521C103.246 32.3879 103.865 32.5175 104.377 32.7769C104.893 33.0332 105.285 33.3973 105.554 33.8692C105.826 34.3379 105.962 34.8895 105.962 35.5239C105.962 36.1615 105.824 36.7099 105.549 37.1693C105.274 37.6256 104.876 37.9756 104.354 38.2194C103.835 38.4631 103.207 38.585 102.469 38.585H99.9333V36.9537H102.141C102.529 36.9537 102.851 36.9006 103.107 36.7943C103.363 36.688 103.554 36.5287 103.679 36.3162C103.807 36.1036 103.871 35.8396 103.871 35.5239C103.871 35.2052 103.807 34.9364 103.679 34.7176C103.554 34.4989 103.362 34.3333 103.102 34.2207C102.846 34.1051 102.522 34.0473 102.132 34.0473H100.763V41.9883H98.7332ZM103.918 37.6193L106.304 41.9883H104.063L101.729 37.6193H103.918ZM109.051 41.9883H106.876L110.19 32.3879H112.806L116.115 41.9883H113.94L111.535 34.5817H111.46L109.051 41.9883ZM108.915 38.2147H114.053V39.7991H108.915V38.2147Z" fill="#005142"></path><path d="M55.4386 12.3594H53.4068V6.62793H55.4554C56.0319 6.62793 56.5282 6.74267 56.9442 6.97215C57.3603 7.19977 57.6802 7.5272 57.9041 7.95445C58.1299 8.38169 58.2427 8.8929 58.2427 9.48806C58.2427 10.0851 58.1299 10.5981 57.9041 11.0273C57.6802 11.4564 57.3584 11.7857 56.9386 12.0152C56.5207 12.2446 56.0207 12.3594 55.4386 12.3594ZM54.6186 11.3211H55.3882C55.7464 11.3211 56.0477 11.2577 56.2921 11.1308C56.5384 11.0021 56.7231 10.8034 56.8463 10.5347C56.9713 10.2642 57.0338 9.9153 57.0338 9.48806C57.0338 9.06454 56.9713 8.71845 56.8463 8.44979C56.7231 8.18113 56.5394 7.98336 56.2949 7.8565C56.0505 7.72963 55.7492 7.6662 55.391 7.6662H54.6186V11.3211ZM59.118 12.3594V8.06079H60.2738V8.8108H60.3186C60.3969 8.54401 60.5285 8.34251 60.7132 8.20632C60.8979 8.06825 61.1106 7.99922 61.3512 7.99922C61.4109 7.99922 61.4753 8.00295 61.5443 8.01042C61.6134 8.01788 61.674 8.02814 61.7262 8.0412V9.09906C61.6703 9.08226 61.5928 9.06734 61.494 9.05428C61.3951 9.04122 61.3046 9.03469 61.2225 9.03469C61.0471 9.03469 60.8904 9.07294 60.7523 9.14943C60.6162 9.22406 60.5079 9.32854 60.4277 9.46287C60.3494 9.5972 60.3102 9.75205 60.3102 9.92743V12.3594H59.118ZM63.4453 12.4405C63.171 12.4405 62.9266 12.393 62.712 12.2978C62.4975 12.2008 62.3277 12.0581 62.2027 11.8696C62.0796 11.6793 62.018 11.4424 62.018 11.1588C62.018 10.92 62.0618 10.7194 62.1495 10.5571C62.2372 10.3948 62.3566 10.2642 62.5077 10.1653C62.6589 10.0664 62.8305 9.9918 63.0227 9.94142C63.2167 9.89105 63.4201 9.8556 63.6328 9.83508C63.8828 9.80896 64.0843 9.7847 64.2372 9.76231C64.3902 9.73806 64.5012 9.70261 64.5703 9.65597C64.6393 9.60933 64.6738 9.5403 64.6738 9.44888V9.43208C64.6738 9.25484 64.6179 9.11771 64.5059 9.0207C64.3958 8.92368 64.2391 8.87517 64.0358 8.87517C63.8212 8.87517 63.6505 8.92275 63.5236 9.0179C63.3967 9.11118 63.3128 9.22872 63.2717 9.37052L62.1691 9.28096C62.2251 9.01976 62.3352 8.79401 62.4993 8.60371C62.6635 8.41154 62.8753 8.26415 63.1346 8.16154C63.3958 8.05706 63.6981 8.00482 64.0414 8.00482C64.2802 8.00482 64.5087 8.03281 64.727 8.08878C64.9472 8.14475 65.1421 8.2315 65.3119 8.34904C65.4835 8.46658 65.6188 8.6177 65.7177 8.80241C65.8166 8.98525 65.866 9.20447 65.866 9.46007V12.3594H64.7354V11.7633H64.7018C64.6328 11.8976 64.5404 12.0161 64.4248 12.1187C64.3091 12.2194 64.1701 12.2987 64.0078 12.3566C63.8455 12.4125 63.6579 12.4405 63.4453 12.4405ZM63.7867 11.6178C63.9621 11.6178 64.1169 11.5832 64.2512 11.5142C64.3856 11.4433 64.491 11.3482 64.5675 11.2288C64.644 11.1094 64.6822 10.9741 64.6822 10.823V10.3668C64.6449 10.3911 64.5936 10.4134 64.5283 10.434C64.4649 10.4526 64.393 10.4703 64.3128 10.4871C64.2326 10.5021 64.1524 10.5161 64.0721 10.5291C63.9919 10.5403 63.9191 10.5506 63.8538 10.5599C63.7139 10.5804 63.5917 10.6131 63.4872 10.6579C63.3828 10.7026 63.3016 10.7633 63.2438 10.8398C63.1859 10.9144 63.157 11.0077 63.157 11.1196C63.157 11.2819 63.2158 11.406 63.3333 11.4918C63.4527 11.5758 63.6038 11.6178 63.7867 11.6178ZM67.4878 12.4321C67.3031 12.4321 67.1445 12.3668 67.012 12.2362C66.8814 12.1038 66.8161 11.9452 66.8161 11.7605C66.8161 11.5776 66.8814 11.4209 67.012 11.2903C67.1445 11.1597 67.3031 11.0944 67.4878 11.0944C67.6669 11.0944 67.8236 11.1597 67.9579 11.2903C68.0923 11.4209 68.1594 11.5776 68.1594 11.7605C68.1594 11.8836 68.1277 11.9965 68.0643 12.0991C68.0027 12.1999 67.9215 12.281 67.8208 12.3426C67.7201 12.4023 67.609 12.4321 67.4878 12.4321Z" fill="#5C5C5C"></path><rect x="43.9812" y="3.83105" width="1.07273" height="42.9091" rx="0.536364" fill="#9C9C9C"></rect></svg>