<svg xmlns="http://www.w3.org/2000/svg" width="46" height="46" viewBox="0 0 46 46" fill="none"><g id="Icon/Outline/arrow-ios-right"><g id="Mask"><mask id="path-1-outside-1_37_875" maskUnits="userSpaceOnUse" x="8.41601" y="16.25" width="29" height="16" fill="black"><rect fill="white" x="8.41601" y="16.25" width="29" height="16"></rect><path fill-rule="evenodd" clip-rule="evenodd" d="M9.58301 19.1657C9.58301 18.7325 9.72868 18.2974 10.0277 17.939C10.7043 17.1264 11.9137 17.0171 12.7263 17.6937L23.0208 26.2727L33.2979 18.0023C34.1221 17.3391 35.3296 17.4694 35.9928 18.2936C36.6559 19.1197 36.5256 20.3253 35.7014 20.9904L24.2014 30.244C23.4903 30.8152 22.4745 30.8075 21.773 30.2229L10.273 20.6396C9.81876 20.2601 9.58301 19.7158 9.58301 19.1657"></path></mask><path d="M10.0277 17.939L10.7956 18.5796L10.7962 18.5789L10.0277 17.939ZM12.7263 17.6937L13.3665 16.9255L13.3662 16.9252L12.7263 17.6937ZM23.0208 26.2727L22.3806 27.0409L23.0097 27.5652L23.6477 27.0518L23.0208 26.2727ZM33.2979 18.0023L32.671 17.2232L32.671 17.2232L33.2979 18.0023ZM35.9928 18.2936L36.7726 17.6676L36.7719 17.6667L35.9928 18.2936ZM35.7014 20.9904L36.3283 21.7695L36.3294 21.7686L35.7014 20.9904ZM24.2014 30.244L24.8277 31.0237L24.8283 31.0231L24.2014 30.244ZM21.773 30.2229L22.4132 29.4547L21.773 30.2229ZM10.273 20.6396L9.63187 21.407L9.63283 21.4078L10.273 20.6396ZM10.583 19.1657C10.583 18.9577 10.6522 18.7515 10.7956 18.5796L9.25979 17.2984C8.80516 17.8434 8.58301 18.5074 8.58301 19.1657L10.583 19.1657ZM10.7962 18.5789C11.1186 18.1916 11.6974 18.1382 12.0865 18.4622L13.3662 16.9252C12.13 15.896 10.2899 16.0612 9.25916 17.2992L10.7962 18.5789ZM12.0861 18.4619L22.3806 27.0409L23.661 25.5045L13.3665 16.9255L12.0861 18.4619ZM23.6477 27.0518L33.9249 18.7813L32.671 17.2232L22.3938 25.4936L23.6477 27.0518ZM33.9248 18.7814C34.319 18.4642 34.8969 18.5269 35.2137 18.9205L36.7719 17.6667C35.7622 16.412 33.9252 16.214 32.671 17.2232L33.9248 18.7814ZM35.213 18.9196C35.5311 19.3159 35.4685 19.8933 35.0734 20.2122L36.3294 21.7686C37.5827 20.7572 37.7808 18.9235 36.7726 17.6676L35.213 18.9196ZM35.0745 20.2113L23.5745 29.4649L24.8283 31.0231L36.3283 21.7695L35.0745 20.2113ZM23.5752 29.4644C23.2343 29.7382 22.7482 29.7339 22.4132 29.4547L21.1328 30.9912C22.2008 31.8812 23.7464 31.8922 24.8277 31.0237L23.5752 29.4644ZM22.4132 29.4547L10.9132 19.8714L9.63283 21.4078L21.1328 30.9912L22.4132 29.4547ZM10.9142 19.8722C10.6956 19.6896 10.583 19.4303 10.583 19.1657L8.58301 19.1657C8.58301 20.0012 8.94196 20.8307 9.63187 21.407L10.9142 19.8722Z" fill="white" mask="url(#path-1-outside-1_37_875)"></path></g><mask id="mask0_37_875" style="mask-type:alpha" maskUnits="userSpaceOnUse" x="9" y="17" width="28" height="14"><path id="Mask_2" fill-rule="evenodd" clip-rule="evenodd" d="M9.58301 19.1657C9.58301 18.7325 9.72868 18.2974 10.0277 17.939C10.7043 17.1264 11.9137 17.0171 12.7263 17.6937L23.0208 26.2727L33.2979 18.0023C34.1221 17.3391 35.3296 17.4694 35.9928 18.2936C36.6559 19.1197 36.5256 20.3253 35.7014 20.9904L24.2014 30.244C23.4903 30.8152 22.4745 30.8075 21.773 30.2229L10.273 20.6396C9.81876 20.2601 9.58301 19.7158 9.58301 19.1657" fill="white"></path></mask><g mask="url(#mask0_37_875)"><g id="&#xF0;&#x9F;&#x8E;&#xA8; Color"><rect id="Base" x="46" width="46" height="46" transform="rotate(90 46 0)" fill="white"></rect></g></g></g></svg>