<svg xmlns="http://www.w3.org/2000/svg" width="252" height="132" viewBox="0 0 252 132" fill="none"><path opacity="0.15" d="M11.8138 42.1544V41.4109C11.8324 37.96 12.149 35.2145 12.7634 33.1744C13.3964 31.1344 14.2901 29.4948 15.4445 28.2555C16.5989 26.9971 18.0047 25.8437 19.6618 24.795C20.7975 24.0705 21.8123 23.2793 22.706 22.4214C23.6183 21.5443 24.3351 20.572 24.8565 19.5043C25.3778 18.4175 25.6385 17.2069 25.6385 15.8723C25.6385 14.3661 25.294 13.0601 24.6051 11.9542C23.9162 10.8484 22.9853 9.99047 21.8123 9.38036C20.6579 8.77026 19.3638 8.4652 17.9302 8.4652C16.6082 8.4652 15.3514 8.76072 14.1598 9.35176C12.9868 9.92374 12.0093 10.8008 11.2273 11.9828C10.4639 13.1459 10.0357 14.6235 9.94259 16.4156H0C0.0930955 12.7931 0.949573 9.76168 2.56943 7.32126C4.20791 4.88084 6.36773 3.05052 9.04887 1.83031C11.7486 0.610104 14.7277 0 17.986 0C21.5423 0 24.6703 0.638704 27.3701 1.91611C30.0884 3.19352 32.2017 5.0143 33.7099 7.37845C35.2366 9.72355 36 12.5072 36 15.7293C36 17.9028 35.6555 19.8475 34.9666 21.5634C34.2964 23.2793 33.3375 24.8046 32.09 26.1392C30.8425 27.4738 29.3623 28.6654 27.6493 29.714C26.1412 30.6673 24.903 31.6587 23.9348 32.6883C22.9853 33.7178 22.2777 34.9285 21.8123 36.3203C21.3654 37.693 21.1327 39.3899 21.114 41.4109V42.1544H11.8138ZM16.6734 60C14.9977 60 13.5547 59.3899 12.3445 58.1697C11.1342 56.9495 10.5291 55.4623 10.5291 53.7083C10.5291 51.9924 11.1342 50.5243 12.3445 49.3041C13.5547 48.0839 14.9977 47.4738 16.6734 47.4738C18.3305 47.4738 19.7642 48.0839 20.9744 49.3041C22.2033 50.5243 22.8177 51.9924 22.8177 53.7083C22.8177 54.8713 22.5291 55.9295 21.9519 56.8827C21.3933 57.836 20.6486 58.5987 19.7176 59.1706C18.8053 59.7235 17.7905 60 16.6734 60Z" fill="url(#paint0_linear_103_205)"></path><path d="M23.8986 46.6925V24.8479H28.5171V33.861H37.8928V24.8479H42.5006V46.6925H37.8928V37.6688H28.5171V46.6925H23.8986Z" fill="#004F42"></path><path d="M46.3085 46.6925V24.8479H61.028V28.6558H50.927V33.861H60.2707V37.6688H50.927V42.8847H61.0707V46.6925H46.3085ZM52.0683 22.736L54.3296 17.8828H58.5321L55.2789 22.736H52.0683Z" fill="#004F42"></path><path d="M64.6999 46.6925V24.8479H73.3183C74.968 24.8479 76.376 25.143 77.5422 25.7332C78.7155 26.3163 79.6079 27.1447 80.2194 28.2185C80.838 29.2851 81.1474 30.5402 81.1474 31.9837C81.1474 33.4343 80.8345 34.6823 80.2087 35.7276C79.583 36.7658 78.6763 37.5622 77.4888 38.1168C76.3084 38.6715 74.8791 38.9488 73.201 38.9488H67.4305V35.2369H72.4543C73.3361 35.2369 74.0685 35.116 74.6516 34.8743C75.2347 34.6325 75.6684 34.2698 75.9529 33.7863C76.2444 33.3028 76.3902 32.7019 76.3902 31.9837C76.3902 31.2584 76.2444 30.6468 75.9529 30.1491C75.6684 29.6513 75.2311 29.2744 74.6409 29.0185C74.0578 28.7553 73.3218 28.6238 72.433 28.6238H69.3184V46.6925H64.6999ZM76.4969 36.7515L81.926 46.6925H76.8275L71.5157 36.7515H76.4969Z" fill="#004F42"></path><path d="M102.683 24.8479V46.6925H98.6935L89.1898 32.9437H89.0298V46.6925H84.4113V24.8479H88.4645L97.8935 38.5861H98.0855V24.8479H102.683Z" fill="#004F42"></path><path d="M111.117 24.8479V46.6925H106.499V24.8479H111.117Z" fill="#004F42"></path><path d="M118.682 46.6925H113.733L121.274 24.8479H127.226L134.756 46.6925H129.807L124.335 29.8398H124.165L118.682 46.6925ZM118.373 38.1062H130.063V41.7114H118.373V38.1062Z" fill="#004F42"></path><path d="M152.081 46.6925H144.337V24.8479H152.145C154.342 24.8479 156.234 25.2852 157.82 26.1599C159.405 27.0274 160.625 28.2754 161.478 29.9038C162.339 31.5321 162.769 33.4805 162.769 35.7489C162.769 38.0244 162.339 39.9799 161.478 41.6154C160.625 43.2509 159.398 44.506 157.798 45.3806C156.205 46.2552 154.3 46.6925 152.081 46.6925ZM148.956 42.7353H151.889C153.254 42.7353 154.403 42.4936 155.334 42.01C156.273 41.5194 156.977 40.7621 157.446 39.7381C157.923 38.707 158.161 37.3773 158.161 35.7489C158.161 34.1347 157.923 32.8157 157.446 31.7917C156.977 30.7677 156.276 30.014 155.345 29.5304C154.413 29.0469 153.265 28.8051 151.9 28.8051H148.956V42.7353Z" fill="#004F42"></path><path d="M166.19 46.6925V24.8479H180.909V28.6558H170.808V33.861H180.152V37.6688H170.808V42.8847H180.952V46.6925H166.19Z" fill="#004F42"></path><path d="M31.6423 88.6926H23.8986V66.8479H31.7063C33.9036 66.8479 35.7951 67.2852 37.3808 68.1599C38.9665 69.0274 40.186 70.2754 41.0393 71.9038C41.8998 73.5322 42.33 75.4805 42.33 77.7489C42.33 80.0244 41.8998 81.9799 41.0393 83.6154C40.186 85.2509 38.9594 86.5059 37.3595 87.3806C35.7666 88.2552 33.8609 88.6926 31.6423 88.6926ZM28.5171 84.7353H31.4503C32.8156 84.7353 33.964 84.4936 34.8955 84.01C35.8342 83.5194 36.5382 82.7621 37.0075 81.7381C37.4839 80.707 37.7221 79.3773 37.7221 77.7489C37.7221 76.1347 37.4839 74.8157 37.0075 73.7917C36.5382 72.7677 35.8377 72.014 34.9062 71.5304C33.9747 71.0469 32.8263 70.8051 31.461 70.8051H28.5171V84.7353Z" fill="#004F42"></path><path d="M50.3697 66.8479V88.6926H45.7512V66.8479H50.3697Z" fill="#004F42"></path><path d="M66.0199 73.1304C65.9345 72.27 65.5683 71.6015 64.9212 71.1251C64.2741 70.6487 63.3959 70.4105 62.2867 70.4105C61.5329 70.4105 60.8965 70.5171 60.3774 70.7305C59.8583 70.9367 59.4601 71.2247 59.1828 71.5944C58.9125 71.9642 58.7774 72.3837 58.7774 72.8531C58.7632 73.2442 58.845 73.5855 59.0228 73.877C59.2076 74.1686 59.4601 74.421 59.7801 74.6343C60.1001 74.8405 60.4698 75.0219 60.8894 75.1783C61.3089 75.3276 61.7569 75.4556 62.2333 75.5623L64.1959 76.0316C65.1488 76.2449 66.0234 76.5294 66.8198 76.8849C67.6163 77.2405 68.306 77.6778 68.8891 78.1969C69.4722 78.716 69.9237 79.3275 70.2437 80.0315C70.5708 80.7355 70.7379 81.5426 70.745 82.4527C70.7379 83.7896 70.3966 84.9487 69.7211 85.93C69.0527 86.9042 68.0856 87.6615 66.8198 88.2019C65.5612 88.7352 64.043 89.0019 62.2653 89.0019C60.5018 89.0019 58.9659 88.7317 57.6575 88.1912C56.3562 87.6508 55.3393 86.8508 54.6069 85.7913C53.8816 84.7247 53.5012 83.4056 53.4656 81.8341H57.9348C57.9846 82.5665 58.1943 83.1781 58.5641 83.6687C58.941 84.1523 59.4423 84.5185 60.0681 84.7673C60.7009 85.0091 61.4156 85.13 62.212 85.13C62.9942 85.13 63.6733 85.0162 64.2493 84.7887C64.8323 84.5611 65.2839 84.2447 65.6039 83.8394C65.9239 83.4341 66.0839 82.9683 66.0839 82.4421C66.0839 81.9514 65.9381 81.539 65.6465 81.2048C65.3621 80.8706 64.9426 80.5861 64.3879 80.3515C63.8404 80.1168 63.1684 79.9035 62.372 79.7115L59.9934 79.1142C58.1517 78.6662 56.6975 77.9658 55.6309 77.0129C54.5642 76.0601 54.0345 74.7766 54.0416 73.1624C54.0345 71.8398 54.3865 70.6842 55.0975 69.6958C55.8157 68.7074 56.8006 67.9359 58.0521 67.3812C59.3036 66.8266 60.7258 66.5493 62.3186 66.5493C63.9399 66.5493 65.355 66.8266 66.5638 67.3812C67.7798 67.9359 68.7256 68.7074 69.4011 69.6958C70.0766 70.6842 70.4251 71.8291 70.4464 73.1304H66.0199Z" fill="#004F42"></path><path d="M93.1256 74.4957H88.4538C88.3685 73.8912 88.1943 73.3544 87.9312 72.8851C87.6681 72.4086 87.3303 72.0033 86.9179 71.6691C86.5054 71.3349 86.029 71.0789 85.4886 70.9011C84.9553 70.7233 84.3757 70.6345 83.75 70.6345C82.6193 70.6345 81.6345 70.9153 80.7954 71.4771C79.9563 72.0317 79.3057 72.8424 78.8434 73.909C78.3812 74.9685 78.1501 76.2556 78.1501 77.7702C78.1501 79.3275 78.3812 80.6359 78.8434 81.6954C79.3128 82.755 79.967 83.5549 80.806 84.0954C81.6451 84.6358 82.6158 84.906 83.718 84.906C84.3366 84.906 84.909 84.8242 85.4352 84.6607C85.9686 84.4971 86.4414 84.2589 86.8539 83.946C87.2663 83.626 87.6076 83.2385 87.8778 82.7834C88.1551 82.3283 88.3471 81.8092 88.4538 81.2261L93.1256 81.2475C93.0048 82.2501 92.7026 83.2172 92.219 84.1487C91.7426 85.0731 91.0991 85.9015 90.2884 86.6339C89.4849 87.3593 88.5249 87.9352 87.4085 88.3619C86.2992 88.7814 85.0441 88.9912 83.6433 88.9912C81.6949 88.9912 79.9527 88.5503 78.4168 87.6686C76.888 86.7868 75.6791 85.5104 74.7902 83.8394C73.9085 82.1683 73.4676 80.1453 73.4676 77.7702C73.4676 75.3881 73.9156 73.3615 74.8116 71.6904C75.7075 70.0194 76.9235 68.7465 78.4595 67.8719C79.9954 66.9901 81.7234 66.5493 83.6433 66.5493C84.909 66.5493 86.0823 66.727 87.1632 67.0826C88.2511 67.4381 89.2147 67.9572 90.0537 68.6399C90.8928 69.3154 91.5755 70.1438 92.1017 71.1251C92.635 72.1064 92.9763 73.2299 93.1256 74.4957Z" fill="#004F42"></path><path d="M116.512 77.7702C116.512 80.1524 116.06 82.179 115.157 83.85C114.261 85.5211 113.038 86.7975 111.488 87.6792C109.945 88.5539 108.21 88.9912 106.283 88.9912C104.341 88.9912 102.599 88.5503 101.056 87.6686C99.513 86.7868 98.2935 85.5104 97.3975 83.8394C96.5015 82.1683 96.0536 80.1453 96.0536 77.7702C96.0536 75.3881 96.5015 73.3615 97.3975 71.6904C98.2935 70.0194 99.513 68.7465 101.056 67.8719C102.599 66.9901 104.341 66.5493 106.283 66.5493C108.21 66.5493 109.945 66.9901 111.488 67.8719C113.038 68.7465 114.261 70.0194 115.157 71.6904C116.06 73.3615 116.512 75.3881 116.512 77.7702ZM111.829 77.7702C111.829 76.2272 111.598 74.9259 111.136 73.8664C110.681 72.8068 110.037 72.0033 109.205 71.4558C108.373 70.9082 107.399 70.6345 106.283 70.6345C105.166 70.6345 104.192 70.9082 103.36 71.4558C102.528 72.0033 101.881 72.8068 101.419 73.8664C100.964 74.9259 100.736 76.2272 100.736 77.7702C100.736 79.3133 100.964 80.6146 101.419 81.6741C101.881 82.7336 102.528 83.5372 103.36 84.0847C104.192 84.6322 105.166 84.906 106.283 84.906C107.399 84.906 108.373 84.6322 109.205 84.0847C110.037 83.5372 110.681 82.7336 111.136 81.6741C111.598 80.6146 111.829 79.3133 111.829 77.7702Z" fill="#004F42"></path><path d="M129.127 88.6926V66.8479H136.508C138.222 66.8479 139.623 67.1572 140.711 67.7759C141.806 68.3874 142.616 69.2158 143.143 70.2611C143.669 71.3064 143.932 72.4726 143.932 73.7597C143.932 75.0468 143.669 76.2165 143.143 77.2689C142.624 78.3213 141.82 79.1604 140.732 79.7862C139.644 80.4048 138.25 80.7141 136.551 80.7141H131.26V78.3675H136.466C137.639 78.3675 138.581 78.1649 139.292 77.7596C140.003 77.3542 140.519 76.8067 140.839 76.117C141.166 75.4201 141.329 74.6343 141.329 73.7597C141.329 72.8851 141.166 72.1029 140.839 71.4131C140.519 70.7233 140 70.1829 139.281 69.7918C138.563 69.3936 137.61 69.1945 136.423 69.1945H131.772V88.6926H129.127Z" fill="#004F42"></path><path d="M148.193 88.6926V66.8479H155.574C157.281 66.8479 158.682 67.1395 159.777 67.7226C160.872 68.2985 161.683 69.0914 162.209 70.1011C162.735 71.1109 162.998 72.2593 162.998 73.5464C162.998 74.8334 162.735 75.9747 162.209 76.9703C161.683 77.9658 160.875 78.748 159.787 79.3169C158.7 79.8786 157.309 80.1595 155.617 80.1595H149.644V77.7702H155.532C156.698 77.7702 157.636 77.5996 158.348 77.2583C159.066 76.9169 159.585 76.4334 159.905 75.8076C160.232 75.1748 160.395 74.421 160.395 73.5464C160.395 72.6717 160.232 71.9073 159.905 71.2531C159.578 70.5989 159.055 70.094 158.337 69.7385C157.619 69.3758 156.669 69.1945 155.489 69.1945H150.838V88.6926H148.193ZM158.476 78.8795L163.851 88.6926H160.779L155.489 78.8795H158.476Z" fill="#004F42"></path><path d="M167.406 88.6926V66.8479H180.589V69.1945H170.051V76.5756H179.907V78.9222H170.051V86.346H180.76V88.6926H167.406Z" fill="#004F42"></path><path d="M202.935 73.6744H200.29C200.134 72.9135 199.86 72.2451 199.469 71.6691C199.085 71.0931 198.616 70.6096 198.061 70.2185C197.513 69.8203 196.905 69.5216 196.237 69.3225C195.569 69.1234 194.872 69.0238 194.146 69.0238C192.824 69.0238 191.626 69.3581 190.552 70.0265C189.485 70.6949 188.635 71.6798 188.003 72.9811C187.377 74.2823 187.064 75.8787 187.064 77.7702C187.064 79.6617 187.377 81.2581 188.003 82.5594C188.635 83.8607 189.485 84.8456 190.552 85.514C191.626 86.1824 192.824 86.5166 194.146 86.5166C194.872 86.5166 195.569 86.4171 196.237 86.218C196.905 86.0189 197.513 85.7238 198.061 85.3327C198.616 84.9344 199.085 84.4474 199.469 83.8714C199.86 83.2883 200.134 82.6199 200.29 81.8661H202.935C202.736 82.9825 202.374 83.9816 201.847 84.8633C201.321 85.7451 200.667 86.4953 199.885 87.1139C199.103 87.7255 198.224 88.1912 197.25 88.5112C196.283 88.8312 195.249 88.9912 194.146 88.9912C192.283 88.9912 190.626 88.5361 189.176 87.6259C187.725 86.7157 186.584 85.4215 185.752 83.7434C184.92 82.0652 184.504 80.0742 184.504 77.7702C184.504 75.4663 184.92 73.4753 185.752 71.7971C186.584 70.1189 187.725 68.8247 189.176 67.9146C190.626 67.0044 192.283 66.5493 194.146 66.5493C195.249 66.5493 196.283 66.7093 197.25 67.0292C198.224 67.3492 199.103 67.8186 199.885 68.4372C200.667 69.0487 201.321 69.7954 201.847 70.6771C202.374 71.5518 202.736 72.5508 202.935 73.6744Z" fill="#004F42"></path><path d="M209.855 66.8479V88.6926H207.21V66.8479H209.855Z" fill="#004F42"></path><path d="M227.105 72.3091C226.977 71.2282 226.458 70.3891 225.548 69.7918C224.638 69.1945 223.521 68.8959 222.199 68.8959C221.232 68.8959 220.386 69.0523 219.66 69.3652C218.942 69.678 218.38 70.1083 217.975 70.6558C217.577 71.2033 217.378 71.8255 217.378 72.5224C217.378 73.1055 217.516 73.6068 217.794 74.0264C218.078 74.4388 218.441 74.7837 218.882 75.061C219.322 75.3312 219.785 75.5552 220.268 75.733C220.752 75.9036 221.196 76.0423 221.602 76.149L223.82 76.7463C224.389 76.8956 225.022 77.1018 225.719 77.3649C226.423 77.628 227.095 77.9871 227.735 78.4422C228.382 78.8902 228.915 79.4662 229.335 80.1702C229.754 80.8741 229.964 81.7381 229.964 82.7621C229.964 83.9425 229.655 85.0091 229.036 85.962C228.424 86.9148 227.528 87.6721 226.348 88.2339C225.175 88.7957 223.749 89.0765 222.071 89.0765C220.506 89.0765 219.152 88.8241 218.007 88.3192C216.869 87.8144 215.973 87.1104 215.319 86.2073C214.672 85.3042 214.306 84.2554 214.22 83.0607H216.951C217.022 83.8856 217.299 84.5682 217.783 85.1087C218.274 85.642 218.892 86.0402 219.639 86.3033C220.393 86.5593 221.203 86.6873 222.071 86.6873C223.081 86.6873 223.987 86.5237 224.791 86.1966C225.594 85.8624 226.231 85.4002 226.7 84.81C227.169 84.2127 227.404 83.5158 227.404 82.7194C227.404 81.9941 227.201 81.4039 226.796 80.9488C226.391 80.4937 225.857 80.1239 225.196 79.8395C224.535 79.5551 223.82 79.3062 223.052 79.0929L220.364 78.3249C218.658 77.8342 217.307 77.1338 216.311 76.2236C215.315 75.3134 214.818 74.1224 214.818 72.6504C214.818 71.4273 215.148 70.3607 215.81 69.4505C216.478 68.5332 217.374 67.8221 218.498 67.3172C219.628 66.8053 220.89 66.5493 222.284 66.5493C223.692 66.5493 224.944 66.8017 226.039 67.3066C227.134 67.8043 228.001 68.487 228.641 69.3545C229.288 70.222 229.63 71.2069 229.665 72.3091H227.105Z" fill="#004F42"></path><path d="M235.209 88.6926H232.436L240.457 66.8479H243.187L251.209 88.6926H248.435L241.908 70.3038H241.737L235.209 88.6926ZM236.233 80.1595H247.411V82.5061H236.233V80.1595Z" fill="#004F42"></path><path d="M31.3863 130.693H24.6452V108.848H31.685C33.804 108.848 35.6173 109.285 37.1248 110.16C38.6323 111.027 39.7878 112.275 40.5914 113.904C41.3949 115.525 41.7966 117.466 41.7966 119.728C41.7966 122.003 41.3913 123.962 40.5807 125.605C39.77 127.24 38.5896 128.499 37.0395 129.381C35.4893 130.255 33.6049 130.693 31.3863 130.693ZM27.2905 128.346H31.2157C33.0218 128.346 34.5187 127.998 35.7062 127.301C36.8937 126.604 37.779 125.612 38.3621 124.325C38.9452 123.038 39.2367 121.505 39.2367 119.728C39.2367 117.964 38.9487 116.446 38.3728 115.173C37.7968 113.893 36.9364 112.912 35.7915 112.229C34.6467 111.539 33.2209 111.195 31.5143 111.195H27.2905V128.346Z" fill="#004F42"></path><path d="M46.2338 130.693V108.848H59.4174V111.195H48.8791V118.576H58.7348V120.922H48.8791V128.346H59.5881V130.693H46.2338Z" fill="#004F42"></path><path d="M90.2111 115.674H87.5658C87.4094 114.913 87.1356 114.245 86.7445 113.669C86.3605 113.093 85.8912 112.61 85.3366 112.218C84.789 111.82 84.1811 111.522 83.5126 111.323C82.8442 111.123 82.1473 111.024 81.422 111.024C80.0994 111.024 78.9012 111.358 77.8275 112.026C76.7609 112.695 75.9111 113.68 75.2782 114.981C74.6525 116.282 74.3396 117.879 74.3396 119.77C74.3396 121.662 74.6525 123.258 75.2782 124.559C75.9111 125.861 76.7609 126.846 77.8275 127.514C78.9012 128.182 80.0994 128.517 81.422 128.517C82.1473 128.517 82.8442 128.417 83.5126 128.218C84.1811 128.019 84.789 127.724 85.3366 127.333C85.8912 126.934 86.3605 126.447 86.7445 125.871C87.1356 125.288 87.4094 124.62 87.5658 123.866H90.2111C90.012 124.983 89.6493 125.982 89.1231 126.863C88.5969 127.745 87.9427 128.495 87.1605 129.114C86.3783 129.725 85.5001 130.191 84.5259 130.511C83.5589 130.831 82.5242 130.991 81.422 130.991C79.559 130.991 77.9021 130.536 76.4515 129.626C75.0009 128.716 73.8596 127.422 73.0276 125.743C72.1957 124.065 71.7797 122.074 71.7797 119.77C71.7797 117.466 72.1957 115.475 73.0276 113.797C73.8596 112.119 75.0009 110.825 76.4515 109.915C77.9021 109.004 79.559 108.549 81.422 108.549C82.5242 108.549 83.5589 108.709 84.5259 109.029C85.5001 109.349 86.3783 109.819 87.1605 110.437C87.9427 111.049 88.5969 111.795 89.1231 112.677C89.6493 113.552 90.012 114.551 90.2111 115.674Z" fill="#004F42"></path><path d="M97.1309 108.848V130.693H94.4856V108.848H97.1309Z" fill="#004F42"></path><path d="M102.435 130.693V108.848H109.816C111.522 108.848 112.923 109.139 114.018 109.723C115.113 110.299 115.924 111.091 116.45 112.101C116.976 113.111 117.24 114.259 117.24 115.546C117.24 116.833 116.976 117.975 116.45 118.97C115.924 119.966 115.117 120.748 114.029 121.317C112.941 121.879 111.551 122.159 109.858 122.159H103.885V119.77H109.773C110.939 119.77 111.878 119.6 112.589 119.258C113.307 118.917 113.826 118.433 114.146 117.808C114.473 117.175 114.637 116.421 114.637 115.546C114.637 114.672 114.473 113.907 114.146 113.253C113.819 112.599 113.297 112.094 112.578 111.738C111.86 111.376 110.911 111.195 109.73 111.195H105.08V130.693H102.435ZM112.717 120.88L118.093 130.693H115.021L109.73 120.88H112.717Z" fill="#004F42"></path><path d="M135.983 108.848H138.628V123.311C138.628 124.805 138.276 126.138 137.572 127.311C136.875 128.478 135.89 129.398 134.618 130.074C133.345 130.742 131.852 131.077 130.138 131.077C128.424 131.077 126.931 130.742 125.658 130.074C124.385 129.398 123.397 128.478 122.693 127.311C121.996 126.138 121.647 124.805 121.647 123.311V108.848H124.293V123.098C124.293 124.165 124.527 125.114 124.997 125.946C125.466 126.771 126.134 127.422 127.002 127.898C127.877 128.367 128.922 128.602 130.138 128.602C131.354 128.602 132.399 128.367 133.274 127.898C134.148 127.422 134.817 126.771 135.279 125.946C135.748 125.114 135.983 124.165 135.983 123.098V108.848Z" fill="#004F42"></path><path d="M143.911 130.693V108.848H151.292C152.998 108.848 154.399 109.139 155.494 109.723C156.589 110.299 157.4 111.091 157.926 112.101C158.452 113.111 158.716 114.259 158.716 115.546C158.716 116.833 158.452 117.975 157.926 118.97C157.4 119.966 156.593 120.748 155.505 121.317C154.417 121.879 153.027 122.159 151.334 122.159H145.361V119.77H151.249C152.415 119.77 153.354 119.6 154.065 119.258C154.783 118.917 155.302 118.433 155.622 117.808C155.949 117.175 156.113 116.421 156.113 115.546C156.113 114.672 155.949 113.907 155.622 113.253C155.295 112.599 154.773 112.094 154.054 111.738C153.336 111.376 152.387 111.195 151.206 111.195H146.556V130.693H143.911ZM154.193 120.88L159.569 130.693H156.497L151.206 120.88H154.193Z" fill="#004F42"></path><path d="M178.056 115.674C177.822 114.956 177.512 114.313 177.128 113.744C176.751 113.168 176.3 112.677 175.774 112.272C175.255 111.866 174.664 111.557 174.003 111.344C173.342 111.131 172.616 111.024 171.827 111.024C170.533 111.024 169.356 111.358 168.297 112.026C167.237 112.695 166.394 113.68 165.769 114.981C165.143 116.282 164.83 117.879 164.83 119.77C164.83 121.662 165.146 123.258 165.779 124.559C166.412 125.861 167.269 126.846 168.35 127.514C169.431 128.182 170.647 128.517 171.998 128.517C173.249 128.517 174.351 128.25 175.304 127.717C176.264 127.176 177.011 126.415 177.544 125.434C178.085 124.446 178.355 123.283 178.355 121.946L179.166 122.117H172.595V119.77H180.915V122.117C180.915 123.916 180.531 125.48 179.763 126.81C179.002 128.14 177.95 129.171 176.606 129.903C175.269 130.629 173.733 130.991 171.998 130.991C170.064 130.991 168.364 130.536 166.899 129.626C165.442 128.716 164.304 127.422 163.486 125.743C162.675 124.065 162.27 122.074 162.27 119.77C162.27 118.042 162.501 116.489 162.963 115.109C163.433 113.722 164.094 112.542 164.947 111.568C165.801 110.594 166.81 109.847 167.977 109.328C169.143 108.809 170.426 108.549 171.827 108.549C172.979 108.549 174.053 108.723 175.048 109.072C176.051 109.413 176.943 109.9 177.726 110.533C178.515 111.159 179.173 111.909 179.699 112.784C180.225 113.651 180.588 114.615 180.787 115.674H178.056Z" fill="#004F42"></path><path d="M188.091 108.848V130.693H185.445V108.848H188.091Z" fill="#004F42"></path><path d="M194.29 130.693H191.517L199.538 108.848H202.269L210.29 130.693H207.517L200.989 112.304H200.818L194.29 130.693ZM195.314 122.159H206.493V124.506H195.314V122.159Z" fill="#004F42"></path><path d="M214.759 124.549V124.421C214.773 123.063 214.916 121.982 215.186 121.178C215.456 120.375 215.84 119.724 216.338 119.226C216.835 118.728 217.433 118.27 218.13 117.85C218.549 117.594 218.926 117.292 219.26 116.944C219.594 116.588 219.858 116.179 220.05 115.717C220.249 115.255 220.348 114.743 220.348 114.181C220.348 113.484 220.185 112.88 219.858 112.368C219.53 111.856 219.093 111.461 218.546 111.184C217.998 110.907 217.39 110.768 216.722 110.768C216.139 110.768 215.577 110.889 215.036 111.131C214.496 111.372 214.044 111.753 213.682 112.272C213.319 112.791 213.109 113.47 213.052 114.309H210.365C210.421 113.1 210.734 112.066 211.303 111.205C211.879 110.345 212.636 109.687 213.575 109.232C214.521 108.777 215.57 108.549 216.722 108.549C217.973 108.549 219.061 108.798 219.986 109.296C220.917 109.794 221.635 110.476 222.14 111.344C222.652 112.211 222.908 113.2 222.908 114.309C222.908 115.091 222.787 115.799 222.545 116.432C222.311 117.065 221.969 117.63 221.521 118.128C221.081 118.625 220.547 119.066 219.922 119.45C219.296 119.841 218.794 120.254 218.418 120.688C218.041 121.114 217.767 121.623 217.596 122.213C217.426 122.803 217.333 123.539 217.319 124.421V124.549H214.759ZM216.124 130.863C215.598 130.863 215.147 130.675 214.77 130.298C214.393 129.921 214.204 129.469 214.204 128.943C214.204 128.417 214.393 127.966 214.77 127.589C215.147 127.212 215.598 127.023 216.124 127.023C216.651 127.023 217.102 127.212 217.479 127.589C217.856 127.966 218.044 128.417 218.044 128.943C218.044 129.292 217.955 129.612 217.778 129.903C217.607 130.195 217.376 130.429 217.084 130.607C216.8 130.778 216.48 130.863 216.124 130.863Z" fill="#004F42"></path><defs><linearGradient id="paint0_linear_103_205" x1="-0.552015" y1="58.391" x2="59.2903" y2="51.8208" gradientUnits="userSpaceOnUse"><stop stop-color="#004F42"></stop><stop offset="1" stop-color="#00AC8D"></stop></linearGradient></defs></svg>