<?xml version="1.0" encoding="UTF-8" standalone="no"?>
<!-- Created with Inkscape (http://www.inkscape.org/) -->

<svg
   version="1.1"
   id="svg1359"
   xml:space="preserve"
   width="682.66669"
   height="682.66669"
   viewBox="0 0 682.66669 682.66669"
   xmlns="http://www.w3.org/2000/svg"
   xmlns:svg="http://www.w3.org/2000/svg"><defs
     id="defs1363"><clipPath
       clipPathUnits="userSpaceOnUse"
       id="clipPath1373"><path
         d="M 0,512 H 512 V 0 H 0 Z"
         id="path1371" /></clipPath></defs><g
     id="g1365"
     transform="matrix(1.3333333,0,0,-1.3333333,0,682.66667)"><g
       id="g1367"><g
         id="g1369"
         clip-path="url(#clipPath1373)"><g
           id="g1375"
           transform="translate(277,100)"><path
             d="m 0,0 h -157 c -55.229,0 -100,44.771 -100,100 v 192 c 0,55.229 44.771,100 100,100 h 272 c 55.229,0 100,-44.771 100,-100 v -36"
             style="fill:none;stroke:#00A98A;stroke-width:40;stroke-linecap:round;stroke-linejoin:round;stroke-miterlimit:10;stroke-dasharray:none;stroke-opacity:1"
             id="path1377" /></g><g
           id="g1379"
           transform="translate(120,302)"><path
             d="M 0,0 H 144"
             style="fill:none;stroke:#00A98A;stroke-width:40;stroke-linecap:round;stroke-linejoin:round;stroke-miterlimit:10;stroke-dasharray:none;stroke-opacity:1"
             id="path1381" /></g><g
           id="g1383"
           transform="translate(120,222)"><path
             d="M 0,0 H 91"
             style="fill:none;stroke:#00A98A;stroke-width:40;stroke-linecap:round;stroke-linejoin:round;stroke-miterlimit:10;stroke-dasharray:none;stroke-opacity:1"
             id="path1385" /></g><g
           id="g1387"
           transform="translate(417.4463,294.7168)"><path
             d="m 0,0 4.438,-6.682 c 4.17,-6.277 11.725,-9.407 19.113,-7.917 l 7.863,1.587 c 12.997,2.622 24.466,-8.847 21.844,-21.844 l -1.586,-7.864 c -1.49,-7.387 1.639,-14.942 7.917,-19.112 l 6.682,-4.439 c 11.044,-7.335 11.044,-23.556 0,-30.892 l -6.682,-4.439 c -6.278,-4.169 -9.407,-11.724 -7.917,-19.112 l 1.586,-7.863 c 2.622,-12.997 -8.847,-24.466 -21.844,-21.844 l -7.863,1.586 c -7.388,1.49 -14.943,-1.639 -19.113,-7.917 L 0,-163.434 c -7.336,-11.044 -23.556,-11.044 -30.893,0 l -4.438,6.682 c -4.169,6.278 -11.725,9.407 -19.113,7.917 l -7.863,-1.586 c -12.997,-2.622 -24.466,8.847 -21.844,21.844 l 1.587,7.863 c 1.49,7.388 -1.64,14.943 -7.917,19.112 l -6.682,4.439 c -11.045,7.336 -11.045,23.557 0,30.892 l 6.682,4.439 c 6.277,4.17 9.407,11.725 7.917,19.112 l -1.587,7.864 c -2.622,12.997 8.847,24.466 21.844,21.844 l 7.863,-1.587 c 7.388,-1.49 14.944,1.64 19.113,7.917 L -30.893,0 C -23.556,11.044 -7.336,11.044 0,0 Z"
             style="fill:none;stroke:#00A98A;stroke-width:40;stroke-linecap:round;stroke-linejoin:round;stroke-miterlimit:10;stroke-dasharray:none;stroke-opacity:1"
             id="path1389" /></g><g
           id="g1391"
           transform="translate(120,382)"><path
             d="M 0,0 H 272"
             style="fill:none;stroke:#00A98A;stroke-width:40;stroke-linecap:round;stroke-linejoin:round;stroke-miterlimit:10;stroke-dasharray:none;stroke-opacity:1"
             id="path1393" /></g><g
           id="g1395"
           transform="translate(451,72)"><path
             d="M 0,0 V -37.803 C 0,-50.216 -14.829,-56.629 -23.874,-48.127 L -50,-24 -76.126,-48.127 C -85.171,-56.629 -100,-50.216 -100,-37.803 V 0"
             style="fill:none;stroke:#00A98A;stroke-width:40;stroke-linecap:round;stroke-linejoin:round;stroke-miterlimit:10;stroke-dasharray:none;stroke-opacity:1"
             id="path1397" /></g></g></g></g></svg>
