<?xml version="1.0" encoding="UTF-8"?>
<svg version="1.1" xmlns="http://www.w3.org/2000/svg" width="256" height="256">
<path d="M0 0 C84.48 0 168.96 0 256 0 C256 84.48 256 168.96 256 256 C171.52 256 87.04 256 0 256 C0 171.52 0 87.04 0 0 Z " fill="#FC5B53" transform="translate(0,0)"/>
<path d="M0 0 C1.3923683 0.00138269 1.3923683 0.00138269 2.81286526 0.00279331 C3.87442333 0.00141865 4.93598141 0.00004398 6.02970791 -0.00137234 C7.20430569 0.00222294 8.37890347 0.00581821 9.58909512 0.00952244 C10.81819103 0.00937641 12.04728695 0.00923038 13.3136282 0.00907993 C16.69365019 0.00965891 20.07361176 0.01468819 23.45362306 0.02165389 C26.98237542 0.02788795 30.5111285 0.02849127 34.03988552 0.0296793 C40.72639466 0.03279246 47.41288753 0.04100564 54.09938949 0.05102879 C61.7099065 0.06219039 69.32042427 0.06770049 76.93094742 0.07272422 C92.59036221 0.08318827 108.24976075 0.10078742 123.90916348 0.12304783 C126.08341825 4.47155737 125.09412822 10.34662149 125.09666348 15.12304783 C125.10890957 16.3373447 125.12115566 17.55164158 125.13377285 18.80273533 C125.13570644 19.96031345 125.13764004 21.11789158 125.13963223 22.31054783 C125.14374111 23.37660252 125.14785 24.4426572 125.1520834 25.54101658 C124.90916348 28.12304783 124.90916348 28.12304783 122.90916348 30.12304783 C119.86557822 30.31146537 116.91361112 30.37467863 113.86961269 30.35009861 C112.93297787 30.35039066 111.99634304 30.35068272 111.03132534 30.35098362 C107.92540736 30.34958667 104.81972721 30.33400832 101.71385098 30.31836033 C99.56436704 30.3146315 97.41488141 30.31178391 95.26539516 30.30978489 C89.60017636 30.30213822 83.93505964 30.28248086 78.26988125 30.26037693 C72.49210396 30.23994074 66.71431022 30.23078794 60.93650723 30.22070408 C49.59400717 30.19923593 38.25160977 30.16404538 26.90916348 30.12304783 C26.90916348 39.36304783 26.90916348 48.60304783 26.90916348 58.12304783 C29.80681484 58.1125742 32.70446621 58.10210056 35.68992519 58.09130955 C45.24529404 58.05822514 54.80066536 58.03610032 64.35607624 58.01942348 C70.15163474 58.00896968 75.94713474 57.99478143 81.74265957 57.97216892 C87.3317577 57.95049738 92.92079944 57.93849124 98.50993633 57.93329334 C100.64626485 57.92958733 102.78259015 57.92235082 104.91889477 57.91158772 C107.90253619 57.89714839 110.88594217 57.89506671 113.86961269 57.89599705 C114.76009304 57.8888065 115.65057339 57.88161594 116.56803799 57.8742075 C122.68105915 57.89494351 122.68105915 57.89494351 124.90916348 60.12304783 C125.10240127 62.79295658 125.17144458 65.35870365 125.1520834 68.02929783 C125.15398174 68.84567722 125.15588009 69.66205662 125.15783596 70.50317478 C125.1615498 73.20989589 125.1508309 75.91635045 125.13963223 78.62304783 C125.13844064 80.49869855 125.13798722 82.37434987 125.13824368 84.25000095 C125.13667775 88.18428365 125.12837986 92.11847549 125.11497402 96.05273533 C125.09798404 101.10374494 125.09415963 106.1546546 125.0949192 111.20568943 C125.09464768 115.07976332 125.08916922 118.95381522 125.08191776 122.82788181 C125.07872852 124.69067309 125.07676309 126.55346686 125.07602406 128.41626072 C125.0738632 131.0164832 125.06512445 133.6165983 125.05442715 136.21679783 C125.05488033 136.99192722 125.05533352 137.76705662 125.05580044 138.56567478 C125.02364069 143.8940934 125.02364069 143.8940934 123.90916348 146.12304783 C119.93985358 146.14770664 115.97057313 146.16588806 112.00120449 146.17797947 C110.64995962 146.1830184 109.29872022 146.1898496 107.94749355 146.19848728 C106.00895913 146.21057202 104.07038547 146.21574611 102.13181973 146.22070408 C100.96400967 146.2259409 99.79619961 146.23117771 98.59300137 146.23657322 C95.90916348 146.12304783 95.90916348 146.12304783 94.90916348 145.12304783 C94.81545723 143.34312859 94.79172077 141.55948044 94.79563808 139.77710056 C94.79575138 138.06543957 94.79575138 138.06543957 94.79586697 136.31919956 C94.80102825 135.07755543 94.80618954 133.83591129 94.81150723 132.55664158 C94.81292217 131.29288197 94.81433712 130.02912235 94.81579494 128.72706699 C94.82045765 125.36179894 94.82944867 121.99659793 94.84049892 118.63134861 C94.85071502 115.19955113 94.85529299 111.76774674 94.86033535 108.33593845 C94.87138967 101.59828959 94.88814638 94.86067258 94.90916348 88.12304783 C93.11178234 88.12970966 93.11178234 88.12970966 91.27809048 88.13650608 C80.00615769 88.17698411 68.73423958 88.20699943 57.46225071 88.22667217 C51.66669221 88.23712598 45.87119221 88.25131423 40.07566738 88.27392673 C34.48656925 88.29559827 28.89752751 88.30760441 23.30839062 88.31280231 C21.1720621 88.31650833 19.0357368 88.32374484 16.89943218 88.33450794 C13.91579076 88.34894727 10.93238478 88.35102895 7.94871426 88.35009861 C7.05823391 88.35728916 6.16775356 88.36447971 5.25028896 88.37188816 C-0.8627322 88.35115215 -0.8627322 88.35115215 -3.09083652 86.12304783 C-3.28410972 83.41771211 -3.35310197 80.81516443 -3.33375645 78.10913181 C-3.33565479 77.28139256 -3.33755314 76.4536533 -3.33950901 75.60083103 C-3.34322258 72.85683909 -3.33250521 70.11311011 -3.32130527 67.36914158 C-3.32011379 65.46867498 -3.31966025 63.56820778 -3.31991673 61.66774082 C-3.31835091 57.68218399 -3.31005311 53.69671686 -3.29664707 49.71118259 C-3.27964556 44.5905726 -3.275833 39.47006118 -3.27659225 34.34942627 C-3.27632095 30.42478073 -3.27084639 26.50015694 -3.26359081 22.57551861 C-3.26039851 20.68678102 -3.25843543 18.79804095 -3.25769711 16.9093008 C-3.25554012 14.27534716 -3.24681024 11.64150021 -3.2361002 9.00756931 C-3.23655338 8.2194939 -3.23700657 7.4314185 -3.23747349 6.61946201 C-3.19904077 0.18826676 -3.19904077 0.18826676 0 0 Z " fill="#FEFEFE" transform="translate(67.09083652496338,54.876952171325684)"/>
<path d="M0 0 C1.13464188 0.00607269 1.13464188 0.00607269 2.29220581 0.01226807 C3.08907806 0.00876343 3.88595032 0.00525879 4.70697021 0.00164795 C7.34875118 -0.00717566 9.99026573 -0.00131805 12.63204956 0.00543213 C14.46286063 0.00408566 16.29367136 0.00214528 18.1244812 -0.00036621 C21.96460366 -0.00331832 25.80463319 0.00098296 29.64474487 0.01031494 C34.5747365 0.02170953 39.50451039 0.01515052 44.43449402 0.00317001 C48.21592865 -0.00404624 51.99731139 -0.00176174 55.77874756 0.0034256 C57.5968834 0.00476275 59.4150239 0.00311211 61.2331543 -0.00153351 C63.77119482 -0.00659491 66.3088794 0.0011059 68.84689331 0.01226807 C69.60332123 0.0082196 70.35974915 0.00417114 71.13909912 0 C76.34102095 0.04252852 76.34102095 0.04252852 78.56954956 2.27105713 C79.02919646 6.5655892 78.89354735 10.89228531 78.88204956 15.20855713 C78.89816284 16.4144751 78.91427612 17.62039307 78.93087769 18.862854 C78.93152222 20.01720947 78.93216675 21.17156494 78.93283081 22.36090088 C78.93581177 23.42171875 78.93879272 24.48253662 78.94186401 25.57550049 C78.56954956 28.27105713 78.56954956 28.27105713 77.52357483 29.91526794 C74.52882703 31.99315646 71.44963038 31.68839388 67.93283081 31.65924072 C67.15692596 31.66449768 66.38102112 31.66975464 65.581604 31.6751709 C63.01488154 31.68838297 60.44877842 31.67962879 57.88204956 31.66949463 C56.09990317 31.67151502 54.31775758 31.67442617 52.53561401 31.67819214 C48.79977551 31.68261712 45.06415213 31.67617889 41.32833862 31.66217041 C36.53625872 31.64507837 31.74468286 31.65491863 26.95262146 31.6728878 C23.272351 31.68372097 19.59220031 31.68028146 15.91192627 31.67250443 C14.14485617 31.67050112 12.37777524 31.67296625 10.61071777 31.67994308 C8.14227432 31.68754998 5.67465061 31.67596466 3.20626831 31.65924072 C2.10742813 31.66834976 2.10742813 31.66834976 0.98638916 31.67764282 C-1.93605611 31.64090396 -3.94251081 31.60961123 -6.38447571 29.91526794 C-7.97735413 27.41135667 -7.80199727 25.30232938 -7.79373169 22.36090088 C-7.79308716 21.20654541 -7.79244263 20.05218994 -7.79177856 18.862854 C-7.77566528 17.65693604 -7.759552 16.45101807 -7.74295044 15.20855713 C-7.7461731 13.99877197 -7.74939575 12.78898682 -7.75271606 11.5425415 C-7.68213077 0.06280557 -7.68213077 0.06280557 0 0 Z " fill="#FEFBFC" transform="translate(71.43045043945313,170.72894287109375)"/>
</svg>
